<?xml version="1.0" standalone="no"?>
<!DOCTYPE svg PUBLIC "-//W3C//DTD SVG 1.1//EN" "http://www.w3.org/Graphics/SVG/1.1/DTD/svg11.dtd" >
<svg xmlns="http://www.w3.org/2000/svg">
<metadata></metadata>
<defs>
<font id="sakkal_majallabold" horiz-adv-x="830" >
<font-face units-per-em="2048" ascent="1395" descent="-653" />
<missing-glyph horiz-adv-x="310" />
<glyph horiz-adv-x="0" />
<glyph unicode="&#xd;" horiz-adv-x="413" />
<glyph unicode=" "  horiz-adv-x="310" />
<glyph unicode="&#x09;" horiz-adv-x="310" />
<glyph unicode="&#xa0;" horiz-adv-x="310" />
<glyph unicode="!" horiz-adv-x="450" d="M90 109l135 140l136 -140l-136 -140zM112 1024h226l-64 -708h-98z" />
<glyph unicode="&#x22;" horiz-adv-x="630" d="M62 1137h196l-46 -382h-104zM372 1137h196l-46 -382h-104z" />
<glyph unicode="#" horiz-adv-x="918" d="M60 275l21 115h172l49 239h-183l23 116h184l58 278h100l-58 -278h163l60 278h97l-59 -278h177l-24 -116h-177l-50 -239h190l-23 -115h-191l-58 -275h-100l58 275h-161l-57 -275h-99l57 275h-169zM352 390h162l51 239h-163z" />
<glyph unicode="$" horiz-adv-x="778" d="M17 60l51 152q21 -14 53.5 -30t69.5 -29.5t76 -23.5t75 -12v317q-51 19 -102.5 42t-93.5 59t-68 89t-26 131q0 39 19.5 81.5t57 81t91.5 68t122 42.5v111h89v-103h1q71 0 129.5 -7t119.5 -18l-32 -152q-52 18 -109.5 31.5t-108.5 16.5v-280q51 -19 104 -42.5t96 -59.5 t70 -90t27 -135q0 -48 -20.5 -96t-59 -89t-93.5 -72.5t-124 -45.5v-119h-89v109q-5 0 -8.5 -0.5t-7.5 -0.5q-50 0 -91.5 5t-78.5 15t-71 23.5t-68 30.5zM228 787q0 -23 9 -41t25 -33t36.5 -27.5t43.5 -22.5v245q-21 -2 -42.5 -6.5t-33.5 -11.5q-20 -11 -29 -38t-9 -65z M431 120q20 2 37.5 6.5t30.5 9.5q23 10 37.5 44.5t14.5 91.5q0 24 -10 42.5t-26.5 33.5t-38 27.5t-45.5 23.5v-279z" />
<glyph unicode="%" horiz-adv-x="1231" d="M21 757q0 124 68 196t201 72t200.5 -69t67.5 -197q0 -125 -67.5 -196.5t-200.5 -71.5q-131 0 -200 67.5t-69 198.5zM188 758q0 -56 5 -92.5t16.5 -57.5t30 -29.5t46.5 -8.5h2q40 0 68 18q9 6 15.5 21t11 37.5t6.5 51t2 59.5q0 55 -5 91t-17 57.5t-31 30.5t-47 9 q-19 0 -39 -4.5t-33 -13.5q-17 -12 -24 -54t-7 -115zM260 -11l597 1088l97 -53l-598 -1082zM663 266q0 124 68 196t201 72t200.5 -69t67.5 -197q0 -125 -67.5 -196.5t-200.5 -71.5q-131 0 -200 67.5t-69 198.5zM830 267q0 -56 5 -92.5t16.5 -57.5t30 -29.5t46.5 -8.5h2 q40 0 68 18q9 6 15.5 21t11 37.5t6.5 51t2 59.5q0 55 -5 91t-17 57.5t-31 30.5t-47 9q-19 0 -39 -4.5t-33 -13.5q-17 -12 -24 -54t-7 -115z" />
<glyph unicode="&#x26;" horiz-adv-x="1045" d="M32 276q0 51 14 92.5t41.5 76.5t67.5 65t93 58q-33 52 -52 107.5t-19 115.5q0 51 19 94.5t54 75.5t84.5 50t110.5 18q69 0 117.5 -15t79.5 -40.5t45 -59t14 -70.5q0 -45 -17 -82.5t-47.5 -70t-73 -61.5t-92.5 -57q53 -64 116 -134.5t130 -135.5q30 52 43 114t13 119 q0 17 -3 37t-7 32l161 25q8 -14 12 -37t4 -43q0 -83 -37 -165t-104 -157q75 -65 144.5 -105.5t125.5 -40.5h21v-66q-38 -11 -79.5 -19t-101.5 -8q-56 0 -118.5 31.5t-127.5 83.5q-77 -55 -158.5 -84t-166.5 -29q-74 0 -131 23.5t-96 63t-59 91t-20 107.5zM245 295 q0 -42 13.5 -74.5t37 -55t55.5 -34.5t68 -12q93 0 169 50q-75 70 -144.5 150t-125.5 152q-41 -40 -57 -82.5t-16 -93.5zM352 807q0 -40 15 -80t44 -79q38 21 64 39.5t42 38.5t23 43t7 52q0 56 -25 86t-67 30q-18 0 -36.5 -7t-33 -22t-24 -40t-9.5 -61z" />
<glyph unicode="'" horiz-adv-x="320" d="M62 1137h196l-46 -382h-104z" />
<glyph unicode="(" horiz-adv-x="586" d="M111 438q0 222 78.5 422t238.5 368l100 -81q-126 -153 -183 -329t-57 -379q0 -201 57 -375.5t182 -324.5l-99 -81q-159 177 -238 369.5t-79 410.5z" />
<glyph unicode=")" horiz-adv-x="586" d="M58 1147l100 81q160 -168 238.5 -368t78.5 -422q0 -218 -79 -410.5t-238 -369.5l-99 81q125 150 182 324.5t57 375.5q0 203 -57 379t-183 329z" />
<glyph unicode="*" horiz-adv-x="683" d="M18 713l239 119l-238 89l80 127l197 -164l-28 253h150l-28 -253l197 164l80 -127l-238 -89l239 -119l-87 -123l-191 183l28 -254h-150l28 254l-191 -183z" />
<glyph unicode="+" horiz-adv-x="822" d="M50 424v107h308v323h106v-323h308v-107h-308v-322h-106v322h-308z" />
<glyph unicode="," horiz-adv-x="360" d="M14 -172l114 382l178 -73l-209 -338z" />
<glyph unicode="-" horiz-adv-x="488" d="M50 293l10 136h378l-10 -136h-378z" />
<glyph unicode="." horiz-adv-x="400" d="M62 114l137 137l138 -137l-138 -137z" />
<glyph unicode="/" horiz-adv-x="635" d="M-16 -195l570 1388l99 -40l-570 -1387z" />
<glyph unicode="0" d="M54 511q0 121 19.5 218t62.5 165t112 104.5t168 36.5t167.5 -34.5t111.5 -101.5t62.5 -164t19.5 -222q0 -122 -19.5 -219t-62.5 -165t-111.5 -104.5t-167.5 -36.5q-98 0 -166.5 34t-112 100t-63.5 163.5t-20 225.5zM267 512q0 -110 7.5 -189.5t25 -131.5t45.5 -77t70 -25 q29 0 57.5 7t50.5 20q20 12 31 107.5t11 287.5q0 214 -33.5 319t-113.5 105q-60 0 -99 -21q-23 -12 -37.5 -114t-14.5 -288z" />
<glyph unicode="1" d="M85 756l381 268h154v-1024h-205v868l-269 -201z" />
<glyph unicode="2" d="M65 0v70l308 356q61 71 97.5 140t36.5 149t-47 127t-141 47q-56 0 -119 -15t-119 -35l22 163q21 7 53 13.5t68 11t73 7t68 2.5q73 0 137 -15.5t111 -47t74.5 -79t27.5 -111.5q0 -54 -17.5 -103t-47.5 -96.5t-70.5 -94.5t-86.5 -97l-219 -239q26 0 61.5 0.5t75.5 1t82 1 t82 1.5q93 2 195 5l-35 -162h-670z" />
<glyph unicode="3" d="M25 65l62 146q20 -17 51 -37t67 -37.5t74 -29.5t73 -12q42 0 73 6.5t54 17.5q28 14 47.5 58t19.5 127q0 66 -25 105t-63 60t-83.5 27t-87.5 6v95q113 7 168 49.5t55 115.5q0 66 -46 96t-148 30q-49 0 -106.5 -11.5t-111.5 -31.5l27 154q24 10 54 17t63 11.5t65.5 6.5 t60.5 2q163 0 250.5 -58.5t87.5 -177.5q0 -52 -21.5 -91t-54 -67.5t-70 -46.5t-69.5 -27v-3q41 -6 86.5 -23.5t83.5 -47t63 -72t25 -99.5q0 -62 -35.5 -122.5t-92 -108t-127 -77t-139.5 -29.5q-102 0 -183 19t-147 60z" />
<glyph unicode="4" d="M26 252v143l449 634h201v-628h131l-26 -143l-105 -5v-253h-205v248h-47t-63.5 0.5t-73 1t-75.5 0.5q-87 1 -186 2zM154 401h317v464z" />
<glyph unicode="5" d="M55 60l63 149q20 -16 50 -35.5t64.5 -37t70.5 -29.5t68 -12q36 0 62.5 6t50.5 18q26 13 43.5 61t17.5 135q0 52 -25.5 91.5t-72.5 66t-115 39.5t-152 13h-60l25 498q28 0 67 0.5t83 1t90.5 1t90.5 1.5q104 2 218 5l-25 -161h-424l-13 -201q5 1 18.5 1h23.5 q127 0 216.5 -29t146.5 -75t83 -103t26 -114q0 -62 -28.5 -127t-80 -117.5t-123 -86t-158.5 -33.5q-96 0 -169.5 18t-131.5 56z" />
<glyph unicode="6" d="M57 498q0 147 38 249.5t101.5 166t147.5 92.5t176 29q62 0 116 -7t108 -18l-31 -151q-28 10 -60.5 20.5t-66.5 19t-68.5 14t-66.5 5.5t-59.5 -5.5t-43.5 -16.5q-35 -24 -56.5 -112.5t-21.5 -221.5q38 35 97 60t129 25q65 0 117.5 -19t89 -57.5t56.5 -97.5t20 -138 q0 -77 -24 -140.5t-68.5 -109.5t-108 -71t-143.5 -25q-94 0 -164.5 34.5t-118 100t-71.5 160t-24 214.5zM270 492q0 -76 6 -148.5t23.5 -129t49 -91t81.5 -34.5q32 0 54.5 7t40.5 21q16 12 30.5 64t14.5 153q0 107 -37 153.5t-107 46.5q-45 0 -85.5 -11t-70.5 -31z" />
<glyph unicode="7" d="M69 843l25 181h679v-117l-441 -907h-154l442 852q-27 0 -64.5 -0.5t-81 -1.5t-90.5 -1.5t-92 -1.5q-106 -2 -223 -4z" />
<glyph unicode="8" d="M53 272q0 45 14.5 85.5t39 73.5t58 57.5t71.5 37.5q-32 12 -61.5 34.5t-51.5 53t-35 68t-13 80.5q0 126 84 199t248 73t247.5 -70.5t83.5 -199.5q0 -41 -12.5 -77.5t-34 -67t-49.5 -53t-59 -35.5q40 -12 75 -36t61.5 -57.5t41.5 -75t15 -88.5q0 -134 -91.5 -210.5 t-269.5 -76.5q-176 0 -269 72.5t-93 212.5zM262 273q0 -56 8.5 -92.5t26.5 -57.5t46.5 -29.5t69.5 -8.5q33 0 59.5 7t46.5 18t34 51t14 111q0 110 -36 158t-114 48q-32 0 -58 -6.5t-48 -20.5q-14 -9 -23 -26.5t-15 -41t-8.5 -52t-2.5 -58.5zM284 763q0 -52 7 -88t21.5 -59 t37.5 -33.5t55 -10.5q27 0 46.5 6t38.5 21q23 17 31 60t8 103q0 51 -7 84.5t-22 53t-38 27.5t-54 8q-26 0 -48.5 -4.5t-36.5 -12.5q-9 -5 -16 -19.5t-12 -35.5t-8 -46.5t-3 -53.5z" />
<glyph unicode="9" d="M51 689q0 77 25 140.5t71.5 109.5t112.5 71t149 25q94 0 162.5 -34.5t113.5 -100t66.5 -160t21.5 -214.5q0 -138 -33.5 -239.5t-93 -167.5t-142 -98t-180.5 -32q-66 0 -124 7.5t-114 22.5l29 146q23 -9 54 -19t65 -18.5t69 -14.5t65 -6q42 0 66 7t41 16q38 23 61.5 104.5 t23.5 227.5q-38 -35 -97 -60t-129 -25q-65 0 -117.5 19t-89 57.5t-56.5 97t-20 138.5zM260 696q0 -108 37 -157t108 -49q45 0 86 11t71 31q0 76 -4.5 148.5t-20 129t-45.5 91t-80 34.5q-30 0 -55.5 -6t-44.5 -20q-20 -14 -36 -66.5t-16 -146.5z" />
<glyph unicode=":" horiz-adv-x="399" d="M62 114l137 137l138 -137l-138 -137zM62 567l137 137l138 -137l-138 -137z" />
<glyph unicode=";" horiz-adv-x="399" d="M14 -172l114 382l178 -73l-209 -338zM62 567l137 137l138 -137l-138 -137z" />
<glyph unicode="&#x3c;" horiz-adv-x="703" d="M50 435v82l556 342l47 -90l-481 -289v-3l481 -260l-47 -92z" />
<glyph unicode="=" horiz-adv-x="822" d="M50 229v107h722v-107h-722zM50 609v107h722v-107h-722z" />
<glyph unicode="&#x3e;" horiz-adv-x="703" d="M51 217l481 260v3l-481 289l47 90l556 -342v-82l-556 -310z" />
<glyph unicode="?" horiz-adv-x="613" d="M50 854l25 160q39 10 90 16t99 6q146 0 227.5 -60.5t81.5 -188.5q0 -56 -13 -97t-37.5 -72.5t-59 -56.5t-77.5 -47q-30 -16 -50.5 -28.5t-33 -26t-17.5 -29t-5 -36.5q0 -24 5 -42t13 -33l-79 -28q-11 12 -22.5 27t-21 33.5t-15.5 39.5t-6 45q0 27 7 48.5t21.5 39.5 t36.5 34t51 33q38 22 63.5 42.5t41 42.5t22 45t6.5 50q0 25 -7.5 46t-26.5 37t-51.5 25t-82.5 9q-45 0 -91 -8t-94 -26zM129 109l135 140l136 -140l-136 -140z" />
<glyph unicode="@" horiz-adv-x="1399" d="M80 317q0 166 53 294.5t147 224.5q46 48 105 85t126 62.5t139 38.5t146 13q129 0 227 -30t164 -85.5t99 -135.5t33 -179q0 -64 -13 -118t-34.5 -99.5t-50.5 -83.5t-61 -70q-44 -43 -93.5 -73.5t-99 -50t-96 -28.5t-83.5 -9q-18 0 -35 8t-17 30q0 20 2 45t4 45 q-20 -19 -46.5 -41.5t-57 -41.5t-64.5 -31.5t-68 -12.5q-54 0 -84 39.5t-30 105.5q0 59 12 117.5t35 111t57.5 97.5t79.5 78q37 28 72 45.5t71 27.5t76.5 14t89.5 4q29 0 47 -1t41 -4l-83 -381q-9 -41 -12.5 -62.5t-3.5 -40.5t8 -32.5t42 -13.5q19 0 40.5 5t43.5 15.5 t43.5 28t41.5 42.5q18 23 35 54t30.5 71t21.5 89.5t8 109.5q0 91 -28.5 158t-81 111t-126.5 65.5t-166 21.5q-60 0 -119 -10t-113 -32t-102.5 -58.5t-87.5 -88.5q-63 -84 -99 -199.5t-36 -252.5q0 -97 26 -179t80.5 -142t138.5 -93.5t200 -33.5q63 0 116.5 10t100 27.5 t86.5 40t75 46.5l34 -55q-37 -28 -81.5 -55.5t-98.5 -49t-117 -35t-137 -13.5q-136 0 -242.5 41.5t-179.5 114t-111.5 171t-38.5 213.5zM520 278q0 -51 13.5 -65.5t39.5 -14.5q54 0 99.5 14.5t75.5 41.5l81 362q-7 0 -13 1q-5 0 -11 0.5t-10 0.5q-20 0 -45 -1.5t-50 -6 t-47 -11.5t-37 -17q-18 -13 -35 -43t-30.5 -71t-22 -90t-8.5 -100z" />
<glyph unicode="A" horiz-adv-x="990" d="M2 0l406 1015l202 35l378 -1050h-224l-120 345l-385 -5l-125 -340h-132zM295 442h316l-154 442z" />
<glyph unicode="B" horiz-adv-x="890" d="M120 4v1013q31 3 67.5 5.5t74.5 4t76.5 2.5t73.5 1q85 0 155 -14t120 -43t77 -75.5t27 -110.5q0 -52 -15 -92t-40.5 -69t-59.5 -47.5t-71 -27.5v-3q62 -13 106.5 -38.5t73 -60.5t41.5 -79t13 -93q0 -68 -23 -121t-70 -90.5t-120.5 -57t-173.5 -19.5q-33 0 -76.5 1t-89 3 t-89.5 5t-77 6zM329 98q9 -1 15 -2t13 -1.5t18 -0.5h30t41.5 1.5t44.5 4.5t40 7.5t29 10.5t23 17t21.5 30.5t15.5 49.5t6 74q0 100 -59.5 151t-172.5 51h-65v-393zM329 594h69q35 0 72 6.5t57 17.5q9 5 18.5 14.5t17 26t12 42t4.5 62.5q0 46 -13 77t-38.5 50.5t-62.5 28 t-85 8.5q-14 0 -27.5 -0.5t-23.5 -2.5v-330z" />
<glyph unicode="C" horiz-adv-x="965" d="M89 520q0 97 23.5 173t63.5 133.5t93.5 97.5t112.5 65t121 36t120 11q36 0 76.5 -2.5t78.5 -6t71 -8.5t54 -10l-39 -146q-21 6 -59.5 14t-82.5 14.5t-86.5 11t-71.5 4.5q-32 0 -56 -2t-44 -7t-38.5 -13.5t-37.5 -22.5q-48 -32 -64.5 -122.5t-16.5 -224.5 q0 -205 64 -311.5t207 -106.5q40 0 83 3t85.5 9t83 15t76.5 21v-85q-40 -18 -86.5 -31.5t-95.5 -23t-98 -14.5t-95 -5q-120 0 -204.5 38.5t-137 109t-76.5 168.5t-24 218z" />
<glyph unicode="D" horiz-adv-x="1129" d="M120 8v1008q33 4 77 7.5t93 6t98.5 4t93.5 1.5q125 0 227.5 -26.5t176 -84.5t113.5 -150t40 -222q0 -127 -32 -230.5t-101 -177t-177.5 -113.5t-262.5 -40q-43 0 -90.5 1.5t-93.5 3.5t-88 5.5t-74 6.5zM329 102q10 -2 24 -3.5t29 -3t29.5 -2t23.5 -0.5q93 0 156 11 t108 44q24 18 45 44.5t36.5 71t24.5 110.5t9 162q0 119 -29.5 195.5t-80.5 121t-119.5 61.5t-146.5 17q-12 0 -27.5 -0.5t-30.5 -2t-28.5 -3l-22.5 -2.5v-821z" />
<glyph unicode="E" horiz-adv-x="795" d="M120 0v1024h595l-10 -104l-376 -5v-333l354 -4l-10 -95l-344 -8v-366l418 -8l-10 -101h-617z" />
<glyph unicode="F" horiz-adv-x="763" d="M120 0v1024h605l-9 -103l-387 -5v-364l374 -4l-10 -95l-364 -8v-445h-209z" />
<glyph unicode="G" horiz-adv-x="1074" d="M90 520q0 120 41 215.5t115.5 162.5t178.5 102.5t229 35.5q31 0 69.5 -2t76 -6t71 -8.5t55.5 -10.5l-36 -149q-26 8 -65.5 16.5t-83 15t-87 11t-77.5 4.5q-56 0 -105.5 -8.5t-91.5 -39.5q-23 -17 -37 -53t-22 -82.5t-11 -100t-3 -104.5q0 -205 53.5 -314t169.5 -109 q29 0 61.5 2t64 6t59 8t47.5 9v274l-228 12l11 83h430v-418q-35 -15 -86 -30t-111 -27.5t-123.5 -20.5t-123.5 -8q-120 0 -204 38.5t-136.5 109t-76.5 168.5t-24 218z" />
<glyph unicode="H" horiz-adv-x="1121" d="M120 0v1024h209v-448h463v448h209v-1024h-209v461h-463v-461h-209z" />
<glyph unicode="I" horiz-adv-x="449" d="M120 0v1024h209v-1024h-209z" />
<glyph unicode="J" horiz-adv-x="449" d="M-17 -261q42 25 69 55t42 64.5t20.5 74.5t5.5 84v1007h209v-947q0 -80 -19.5 -143.5t-58.5 -112.5t-97 -84.5t-135 -60.5z" />
<glyph unicode="K" horiz-adv-x="1011" d="M120 0v1024h209v-480q30 35 73 86.5t88 104.5t86.5 100.5t68.5 76.5q36 38 65.5 60.5t58 34.5t59.5 15.5t70 3.5q17 0 38 -2t29 -5v-64h-14q-28 0 -54 -7t-52.5 -23t-56 -40.5t-65.5 -60.5q-39 -39 -82 -86t-91 -101q64 -124 123 -228t115.5 -179t113.5 -116.5t117 -41.5 h12v-65q-34 -9 -69 -13.5t-81 -4.5q-50 0 -91.5 10.5t-78 34.5t-70.5 62.5t-69.5 94t-75 129.5t-86.5 169q-8 -8 -19 -21t-23 -27t-22.5 -26t-16.5 -19v-396h-209z" />
<glyph unicode="L" horiz-adv-x="752" d="M120 0v1024h209v-916h389l-10 -108h-588z" />
<glyph unicode="M" horiz-adv-x="1474" d="M85 0l105 1031h194l359 -726l343 726h189l114 -1031h-211l-84 781l-368 -781h-64l-387 781l-69 -781h-121z" />
<glyph unicode="N" horiz-adv-x="1173" d="M120 0v1031h91l724 -716h1q-2 83 -3 155q0 31 -0.5 62.5t-1 60t-0.5 52.5v39v340h122v-1029h-93l-723 718h-3q2 -90 4 -166q1 -32 1.5 -64.5t1 -60t1 -48t0.5 -29.5v-345h-122z" />
<glyph unicode="O" horiz-adv-x="1197" d="M90 516q0 120 29.5 216t90.5 163.5t155.5 103.5t225.5 36q129 0 225.5 -36t161 -103.5t97 -163.5t32.5 -216q0 -122 -32.5 -220t-97.5 -167t-162 -106t-226 -37q-132 0 -226 38t-155 107.5t-89.5 167t-28.5 217.5zM307 515q0 -92 14 -167t46.5 -129t86.5 -83.5t135 -29.5 q83 0 137.5 14.5t91.5 38.5q17 11 30 44.5t21.5 81.5t13 107.5t4.5 122.5q0 94 -17 168t-53 126t-92 79.5t-134 27.5q-68 0 -126.5 -14t-92.5 -40t-49.5 -112.5t-15.5 -234.5z" />
<glyph unicode="P" horiz-adv-x="855" d="M120 0v1019q33 2 72 4t80 3.5t82.5 2.5t80.5 1q94 0 163.5 -20.5t115.5 -58t68 -92t22 -121.5q0 -71 -24 -133.5t-75 -109t-130 -73.5t-188 -27h-9l-14 79l29 6q41 9 77 23t62.5 41t41.5 71.5t15 113.5q0 52 -13 89.5t-36 61.5t-55.5 35.5t-72.5 11.5t-83 -6v-921h-209z " />
<glyph unicode="Q" horiz-adv-x="1197" d="M90 516q0 120 29.5 216t90.5 163.5t155.5 103.5t225.5 36q129 0 225.5 -36t161 -103.5t97 -163.5t32.5 -216q0 -181 -71.5 -307.5t-214.5 -182.5q18 -27 47 -61t66.5 -70t80 -70.5t87 -62t89 -44t84.5 -16.5q23 0 42.5 3.5t33.5 5.5l9 -77q-23 -7 -53 -14t-63 -12 t-68.5 -8.5t-70.5 -3.5q-56 0 -119.5 33t-126.5 88t-122 125t-106 145q-11 0 -21 -0.5t-21 -0.5q-132 0 -226 38t-155 107.5t-89.5 167t-28.5 217.5zM307 515q0 -92 14 -167t46.5 -129t86.5 -83.5t135 -29.5q83 0 137.5 14.5t91.5 38.5q17 11 30 44.5t21.5 81.5t13 107.5 t4.5 122.5q0 94 -17 168t-53 126t-92 79.5t-134 27.5q-68 0 -126.5 -14t-92.5 -40t-49.5 -112.5t-15.5 -234.5z" />
<glyph unicode="R" horiz-adv-x="937" d="M120 0v1022q31 2 67.5 4t75 3.5t78 2.5t75.5 1q186 0 282 -68t96 -212q0 -64 -16.5 -112t-43.5 -83.5t-62 -59.5t-73 -41q46 -79 87.5 -149t82.5 -122.5t84 -83t92 -30.5h7v-65q-25 -8 -57 -13t-72 -5q-38 0 -69.5 4t-59 15.5t-54 33.5t-54.5 58t-60 88.5t-70 125.5 l-57 108h-70v-422h-209zM329 523h36q44 0 84.5 10.5t63.5 26.5q12 8 24 19.5t21.5 32t15 51.5t5.5 78q0 52 -12.5 88t-37 57.5t-60.5 31t-84 9.5q-11 0 -27 -1t-29 -3v-400z" />
<glyph unicode="S" horiz-adv-x="785" d="M27 60l51 152q22 -15 59.5 -31.5t80 -30.5t86.5 -23.5t80 -9.5q83 0 125 18q23 10 37.5 45t14.5 92q0 40 -21.5 66.5t-56.5 46.5t-80 36t-91.5 34t-91.5 41.5t-80 58t-56.5 83t-21.5 117.5q0 45 24.5 95t71.5 91t115.5 68t156.5 27q71 0 135.5 -7t125.5 -18l-32 -152 q-29 10 -64.5 19t-72.5 15.5t-72 10.5t-62 4q-29 0 -60.5 -3.5t-51.5 -14.5t-29 -38t-9 -65q0 -39 21.5 -65t56.5 -45t80 -35t92 -34.5t92 -42t80 -59t56.5 -85.5t21.5 -121q0 -56 -28.5 -112t-81 -101t-126.5 -73t-166 -28q-50 0 -91.5 5t-78.5 15t-71 23.5t-68 30.5z" />
<glyph unicode="T" horiz-adv-x="869" d="M15 920l10 104h829l-10 -101l-305 -8v-915h-209v915z" />
<glyph unicode="U" horiz-adv-x="1111" d="M115 347v677h209v-697q0 -77 14.5 -122.5t42 -69.5t68.5 -31t95 -7q66 0 114 13t80 35q32 23 40.5 70.5t8.5 115.5v693h209v-663q0 -77 -30 -145t-88.5 -119t-145.5 -81t-202 -30q-95 0 -171.5 19t-130.5 61.5t-83.5 111.5t-29.5 169z" />
<glyph unicode="V" horiz-adv-x="970" d="M1 1024h225l194 -552q22 -63 42 -123.5t36 -109.5q18 -57 34 -109l40 124q17 54 38 116t40 116l192 538h127l-379 -1024h-205z" />
<glyph unicode="W" horiz-adv-x="1434" d="M5 1024h221l173 -610q11 -38 21.5 -81.5t19.5 -81.5q11 -44 21 -87q15 48 30 94q13 39 27 82t25 75l161 481h120l167 -481q11 -32 24.5 -75t25.5 -82q14 -46 28 -94q14 48 26 94q11 39 22.5 82t20.5 75l166 609h125l-293 -1024h-205l-184 535q-7 19 -12 36t-9 30 q-4 15 -9 28q-3 -13 -7 -29q-4 -14 -9 -32t-12 -38l-177 -530h-205z" />
<glyph unicode="X" horiz-adv-x="925" d="M5 0l359 507l-332 517h235l220 -359l234 359h137l-310 -443l377 -581h-235l-267 424l-281 -424h-137z" />
<glyph unicode="Y" horiz-adv-x="856" d="M-10 1024h238l252 -502l261 502h127l-335 -631v-393h-209v393z" />
<glyph unicode="Z" horiz-adv-x="953" d="M54 0v70l515 844h-36q-49 0 -114 0.5t-129 1.5t-118 2t-81 2l16 104h714v-64l-517 -854h326q68 1 112 11t72.5 25.5t45.5 33t31 33.5l52 -41q-12 -24 -31.5 -55t-49.5 -58t-73.5 -46t-103.5 -19q-30 0 -85 0.5t-121.5 2t-137 2.5t-131 2.5t-103 2t-53.5 0.5z" />
<glyph unicode="[" horiz-adv-x="564" d="M165 -261v1408h353v-95h-177v-1218h177v-95h-353z" />
<glyph unicode="\" horiz-adv-x="635" d="M-15 1153l99 40l570 -1388l-99 -39z" />
<glyph unicode="]" horiz-adv-x="564" d="M46 -166h177v1218h-177v95h353v-1408h-353v95z" />
<glyph unicode="^" horiz-adv-x="796" d="M38 396l307 628h82l329 -628l-95 -38l-271 544h-3l-253 -544z" />
<glyph unicode="_" horiz-adv-x="678" d="M-5 -168h688v-74h-688v74z" />
<glyph unicode="`" horiz-adv-x="447" d="M59 1015l105 102l223 -256l-66 -63z" />
<glyph unicode="a" horiz-adv-x="784" d="M60 188q0 54 14.5 93.5t46.5 66t83 40t125 15.5l123 4v99q0 40 -23 58.5t-77 18.5q-39 0 -90 -9t-106 -30l-28 71q37 16 77.5 31t82 27t84 19t85.5 7q47 0 84.5 -8.5t63 -28.5t39 -53t13.5 -82v-316q0 -110 56 -110q27 0 71 12v-46q-16 -15 -38 -29t-47 -24.5t-52 -16.5 t-53 -6q-28 0 -48 7.5t-34.5 20t-24.5 27.5t-17 30q-26 -17 -51 -33t-52.5 -28.5t-58 -20t-67.5 -7.5q-84 0 -132.5 50t-48.5 151zM275 210q0 -46 13.5 -75.5t45.5 -29.5q34 0 65 8t62 20q-1 4 -2 22.5t-2.5 47t-2.5 64.5t-1 76q-75 0 -114 -8.5t-48 -20.5q-4 -5 -7 -17 t-5 -27t-3 -31t-1 -29z" />
<glyph unicode="b" horiz-adv-x="870" d="M115 25v1097l205 40v-427q0 -18 -0.5 -37t-0.5 -35q-1 -18 -1 -37q42 29 92.5 51t112.5 22q55 0 106 -18t90 -58t62.5 -104.5t23.5 -156.5q0 -89 -26 -158.5t-74.5 -117.5t-118.5 -73.5t-157 -25.5q-69 0 -151.5 8.5t-162.5 29.5zM320 102q21 -5 46.5 -7.5t48.5 -2.5 q45 0 77 7t49 22q17 17 34 76.5t17 153.5q0 116 -40 171.5t-105 55.5q-32 0 -65.5 -7t-61.5 -19v-450z" />
<glyph unicode="c" horiz-adv-x="707" d="M65 324q0 88 25 157.5t73.5 118t119.5 74t164 25.5q55 0 112 -7.5t104 -18.5l-35 -136q-38 19 -91.5 36.5t-115.5 17.5q-26 0 -51.5 -5t-44.5 -18q-21 -14 -33.5 -68.5t-12.5 -168.5q0 -64 9.5 -107.5t28 -70.5t46 -39t64.5 -12q57 0 119 12t113 32l18 -50 q-60 -47 -136.5 -78t-167.5 -31q-65 0 -121 18t-97.5 58t-65.5 104.5t-24 156.5z" />
<glyph unicode="d" horiz-adv-x="870" d="M65 324q0 88 23.5 157.5t68 117.5t107.5 73.5t143 25.5q32 0 70.5 -4t75.5 -9q-1 15 -1 30q-1 12 -1 25.5v21.5v360l204 40v-1162h-138l-58 64h-3q-21 -15 -44 -28.5t-47.5 -24.5t-52.5 -17.5t-59 -6.5q-56 0 -108 18t-92 58t-64 104.5t-24 156.5zM277 335 q0 -117 41 -172t109 -55q34 0 66 8.5t57 21.5v446q-46 10 -95 10q-42 0 -75 -7t-51 -22q-17 -17 -34.5 -74.5t-17.5 -155.5z" />
<glyph unicode="e" horiz-adv-x="790" d="M65 324q0 103 27 175t75 116t113 64t140 20q52 0 100.5 -14t89 -47t70.5 -88t45 -137v-9q-10 -12 -26 -22t-41.5 -17.5t-62.5 -13t-89 -9.5l-227 -16v-29q0 -40 11 -74t33 -58.5t55.5 -38.5t77.5 -14q36 0 75.5 7t75.5 17t65.5 20.5t45.5 18.5l17 -49 q-33 -24 -73.5 -48.5t-87 -45t-98.5 -33t-107 -12.5q-65 0 -120.5 18t-96 58t-64 104.5t-23.5 156.5zM281 410l226 10q-4 30 -11.5 62t-20.5 59t-33 44.5t-48 17.5q-19 0 -37.5 -4.5t-33.5 -15.5q-9 -6 -16.5 -24.5t-13 -43t-9 -52.5t-3.5 -53z" />
<glyph unicode="f" horiz-adv-x="526" d="M10 591l10 56q21 7 41 13q17 5 34.5 10t28.5 7v124q0 64 30 125.5t78 109.5t108.5 77.5t122.5 29.5q26 0 58.5 -2.5t56.5 -6.5l-35 -119q-26 6 -59 12t-61 6q-18 0 -38.5 -3t-32.5 -15q-6 -7 -10.5 -29t-7.5 -53.5t-4 -69.5t-1 -76v-103h181l-11 -80l-60 -6 q-26 -2 -55 -4t-55 -4v-590h-205v590h-67q-22 0 -47 1z" />
<glyph unicode="g" horiz-adv-x="820" d="M50 -328q0 26 10 48t28 41t42.5 36t54.5 32l49 -12q-7 -22 -9.5 -39.5t-2.5 -39.5q0 -46 33.5 -74t98.5 -28q30 0 60 3t58 8.5t51.5 13t40.5 16.5q24 13 30.5 39.5t6.5 64.5q0 76 -161 76l-114 1q-122 1 -178 34t-56 111q0 26 11.5 51t29.5 48.5t39.5 44t41.5 36.5 q-31 14 -58.5 36.5t-48.5 52.5t-33.5 68t-12.5 82q0 65 23.5 116.5t65.5 87t99.5 54.5t124.5 19q56 0 99 -6t85 -17q27 1 57 3t60 5t58 6.5t51 8.5l-15 -89q-23 -8 -59 -12.5t-65 -4.5q14 -23 29.5 -63t15.5 -103q0 -65 -23.5 -115t-65 -84t-98.5 -51.5t-125 -17.5 q-22 0 -52 1.5t-47 6.5q-8 -12 -16.5 -33t-8.5 -41q0 -24 24.5 -32.5t86.5 -8.5h163q74 0 124 -11.5t81 -35t44 -59.5t13 -86q0 -60 -36 -120.5t-100 -108.5t-152 -78t-192 -30q-72 0 -121.5 12t-80.5 32.5t-44.5 47.5t-13.5 57zM266 426q0 -36 7.5 -68t22 -56t35.5 -38 t49 -14t46.5 4.5t33.5 13.5t24.5 52t9.5 110q0 37 -7.5 69.5t-22 56.5t-36.5 37.5t-51 13.5q-26 0 -43.5 -4t-32.5 -14q-16 -11 -25.5 -52.5t-9.5 -110.5z" />
<glyph unicode="h" horiz-adv-x="889" d="M115 0v1122l205 39v-426q0 -18 -0.5 -40.5t-1.5 -42.5q-1 -24 -1 -48h2q21 13 51 29.5t65 31t72.5 24.5t73.5 10q41 0 77 -12.5t63 -38t42.5 -63t15.5 -88.5v-497h-205v459q0 61 -20.5 90t-69.5 29q-18 0 -39 -4.5t-43 -13t-43.5 -19t-38.5 -22.5v-519h-205z" />
<glyph unicode="i" horiz-adv-x="435" d="M86 944l128 128l129 -128l-129 -128zM115 0v684h205v-684h-205z" />
<glyph unicode="j" horiz-adv-x="435" d="M27 -426q28 32 45 69t26.5 81t13 97t3.5 118v745h205v-659q0 -90 -14 -163.5t-42.5 -134.5t-72.5 -111t-105 -94zM86 944l128 128l129 -128l-129 -128z" />
<glyph unicode="k" horiz-adv-x="849" d="M115 0v1122l205 40v-677v-19t-0.5 -27t-1 -26t-0.5 -18q22 27 50.5 61.5t58 68.5t56 63.5t44.5 46.5q17 16 32 26.5t31 17.5t34.5 10t42.5 3q13 0 28.5 -1t30.5 -3t28 -4.5t22 -5.5v-67h-4q-42 0 -74 -6t-60 -21t-64.5 -48.5t-72.5 -70.5q16 -28 37 -67.5t45 -82 t51.5 -84t57 -75t61 -54t64.5 -20.5q5 0 11.5 0.5t11.5 1.5v-64q-13 -6 -33 -11.5t-43 -10t-46 -7t-42 -2.5q-58 0 -101.5 28.5t-79 75t-66.5 107t-64 123.5l-45 -46v-277h-205z" />
<glyph unicode="l" horiz-adv-x="435" d="M115 0v1122l205 40v-1162h-205z" />
<glyph unicode="m" horiz-adv-x="1308" d="M115 0v684h183l18 -80h2q21 13 49.5 29.5t61.5 31t69 24.5t71 10q57 0 102.5 -26t68.5 -78q22 14 54 32t68 34t73.5 27t72.5 11q39 0 74 -12.5t60.5 -38t40.5 -63t15 -88.5v-497h-205v459q0 61 -19 90t-64 29q-16 0 -36 -4.5t-40 -13t-39.5 -19t-35.5 -22.5v-519h-205 v459q0 61 -19 90t-64 29q-16 0 -36 -4.5t-40 -13t-39.5 -19t-35.5 -22.5v-519h-205z" />
<glyph unicode="n" horiz-adv-x="889" d="M115 0v684h183l19 -80h2q21 13 51 29.5t65 31t72.5 24.5t73.5 10q41 0 77 -12.5t63 -38t42.5 -63t15.5 -88.5v-497h-205v459q0 61 -20.5 90t-69.5 29q-18 0 -39 -4.5t-43 -13t-43.5 -19t-38.5 -22.5v-519h-205z" />
<glyph unicode="o" horiz-adv-x="853" d="M65 342q0 82 23 148.5t68.5 112.5t113.5 71t157 25t156.5 -23.5t113 -69t68.5 -111.5t23 -151q0 -83 -23 -149t-68.5 -112.5t-113 -71t-156.5 -24.5q-176 0 -269 90.5t-93 264.5zM278 343q0 -134 34 -197.5t113 -63.5q31 0 58 5t45 15q11 6 20 27.5t15 53.5t9.5 73 t3.5 86q0 131 -35 196t-112 65q-29 0 -57 -5.5t-50 -17.5q-12 -6 -20 -27.5t-13.5 -53.5t-8 -72.5t-2.5 -83.5z" />
<glyph unicode="p" horiz-adv-x="870" d="M115 -469v1133l182 30l21 -68q21 15 43 28t46 23t51 16t59 6q56 0 108 -18t92 -58t64 -104.5t24 -156.5q0 -89 -26 -158.5t-74.5 -117.5t-118.5 -73.5t-157 -25.5q-29 0 -59 4t-52 9q0 -10 1 -34.5t1 -49.5v-353zM320 102q46 -10 95 -10q39 0 72.5 7t50.5 22 q9 9 18.5 28.5t17.5 49.5t13 69t5 86q0 114 -40 169t-105 55q-35 0 -66 -7t-61 -19v-450z" />
<glyph unicode="q" horiz-adv-x="870" d="M65 324q0 88 23.5 158t68 118t107.5 73.5t143 25.5q78 0 168 -6.5t180 -16.5v-1113l-205 -32v427q0 27 0.5 57t2.5 45h-3q-21 -15 -43 -28t-46 -23t-51 -16t-58 -6q-56 0 -108 18t-91.5 58t-63.5 104.5t-24 156.5zM277 335q0 -117 41 -172t109 -55q34 0 65 8t58 22v446 q-46 10 -95 10q-39 0 -72.5 -7t-51.5 -22q-18 -17 -36 -76.5t-18 -153.5z" />
<glyph unicode="r" horiz-adv-x="570" d="M115 0v684h184l18 -109h1q8 12 19.5 28.5t25 32.5t28.5 29.5t30 18.5q26 10 60.5 12.5t73.5 2.5l-23 -169q-24 8 -50.5 13t-51.5 5q-18 0 -32 -3t-26 -10t-24.5 -17.5t-27.5 -26.5v-491h-205z" />
<glyph unicode="s" horiz-adv-x="652" d="M50 50l51 128q22 -14 49 -30.5t56.5 -30.5t62 -23.5t67.5 -9.5q24 0 42.5 3.5t31.5 12.5q11 8 16 28.5t5 49.5q0 34 -26.5 53t-65.5 33.5t-85.5 29t-85.5 38t-65.5 61t-26.5 98.5q0 20 7 40.5t18.5 39.5t26.5 35.5t30 29.5q38 32 83.5 47.5t105.5 15.5q50 0 105.5 -5.5 t105.5 -12.5l-23 -136q-24 8 -52.5 16t-57 14.5t-54.5 10.5t-47 4q-26 0 -40.5 -2.5t-22.5 -7.5t-11.5 -19.5t-3.5 -29.5q0 -31 26.5 -49t66 -32t85.5 -28.5t85.5 -38.5t66 -61t26.5 -97q0 -58 -25.5 -95t-58.5 -65q-18 -15 -37.5 -29t-44 -25t-56 -17.5t-73.5 -6.5 q-76 0 -139 15t-118 48z" />
<glyph unicode="t" horiz-adv-x="574" d="M45 614v42l222 148h56l3 -120h217l-9 -75q-25 -4 -60 -7.5t-68 -6.5q-39 -4 -79 -6v-385q0 -37 13.5 -61.5t58.5 -24.5q12 0 31.5 1.5t41 3.5t42.5 4.5t35 4.5v-57q-26 -16 -60 -31.5t-71.5 -28t-76.5 -20.5t-74 -8q-27 0 -53 5t-46.5 19.5t-33 40.5t-12.5 68v470z" />
<glyph unicode="u" horiz-adv-x="889" d="M110 187v497h205v-459q0 -61 20.5 -90t69.5 -29q18 0 39 4.5t43 13t43.5 19t38.5 22.5v519h205v-684h-183l-19 80h-2q-21 -13 -51 -29.5t-65 -31t-72.5 -24.5t-73.5 -10q-41 0 -77 12.5t-63 38t-42.5 63t-15.5 88.5z" />
<glyph unicode="v" horiz-adv-x="780" d="M-6 611v65q11 2 30.5 5t42 5.5t44.5 4t38 1.5q38 0 63.5 -7t45.5 -30q18 -21 42 -74.5t49.5 -122.5t50 -146t45.5 -147h2q40 72 64 127t37 103t16.5 93.5t3.5 96.5q0 12 -1 25t-2.5 25.5t-3.5 23.5t-3 17l154 21q6 -14 9.5 -35.5t3.5 -42.5q0 -82 -24 -163.5t-62 -160 t-84 -153t-91 -142.5h-168q-30 96 -64 191t-65.5 175t-59.5 138t-46 80q-23 27 -58 27h-9z" />
<glyph unicode="w" horiz-adv-x="1147" d="M0 612v64q28 5 69 10.5t83 5.5q32 0 54 -7t37 -25q12 -15 25.5 -45t27.5 -69.5t28 -86t27 -94.5t24.5 -94.5t21.5 -86.5h3q26 60 47 115.5t38.5 110t32 109t26.5 113.5l143 21q35 -93 73 -209t80 -260h3q31 55 50 108.5t29.5 104t14 97.5t3.5 90q0 23 -4 49t-8 39l153 25 q5 -14 8 -36t3 -42q0 -80 -18 -156t-50 -151.5t-76.5 -152.5t-96.5 -159h-150q-14 55 -27 107t-27.5 102t-30.5 100t-35 102h-3q-14 -47 -34 -103t-43 -112t-46.5 -107.5t-42.5 -88.5h-154q-17 63 -34.5 127t-35 124.5t-34.5 115.5t-32 99t-28 75t-22 44q-12 16 -26 21.5 t-31 5.5h-15z" />
<glyph unicode="x" horiz-adv-x="803" d="M5 7v71h11q39 0 72 13t66 43t70.5 80t85.5 124q-39 70 -69 121.5t-55.5 84.5t-49 49t-48.5 16h-19v70q11 3 30 5t38.5 4t37 3t26.5 1q39 0 67.5 -9.5t53.5 -32.5t50.5 -62t59.5 -98q33 52 59.5 90.5t50.5 63t47.5 36.5t51.5 12q19 0 46 -3.5t44 -10.5v-73h-26 q-26 0 -51 -11t-51 -35t-55 -62.5t-64 -93.5q38 -69 74.5 -128.5t70 -103.5t63.5 -69t56 -25q11 0 16.5 0.5t13.5 2.5v-70q-10 -3 -26 -6t-35 -5.5t-38.5 -3.5t-35.5 -1q-43 0 -77.5 14t-67 44.5t-65 79.5t-72.5 119q-33 -53 -62 -99.5t-59 -82t-64.5 -56t-78.5 -20.5 q-19 0 -47.5 3.5t-44.5 10.5z" />
<glyph unicode="y" horiz-adv-x="759" d="M-126 -377h16q37 0 86 20t94 58q24 21 57 53.5t68 71t68.5 79.5t60.5 79q-42 121 -82.5 225t-76 183.5t-63 130.5t-43.5 66q-15 14 -31.5 18t-26.5 4h-5v65q13 3 33 5.5t42 5t43 4t36 1.5q29 0 54 -7.5t42 -24.5q21 -20 45.5 -65.5t51 -109.5t53.5 -142.5t53 -164.5h3 q34 53 56.5 101t35 94.5t17.5 93.5t5 99q0 14 -1.5 30.5t-4 31.5t-5.5 26.5t-5 17.5l159 27q5 -16 10 -46.5t5 -58.5q0 -73 -24.5 -148t-63.5 -149.5t-87 -148t-94 -143.5q-48 -72 -80.5 -120t-58 -84t-50 -66t-55.5 -67q-54 -65 -108 -95.5t-111 -30.5q-29 0 -63 4.5 t-55 11.5v65z" />
<glyph unicode="z" horiz-adv-x="696" d="M22 0v42l335 549h-13q-41 0 -80.5 -1t-74.5 -2t-64 -3t-50 -3l16 91q35 3 96 5t132 3t144.5 2t133.5 1v-36l-335 -557q10 -1 31 -2t44.5 -1.5t45.5 -1t36 -0.5q59 0 96 7t61 18.5t39 27t29 32.5l34 -19q-11 -24 -26 -53t-41 -54.5t-66.5 -42.5t-102.5 -17q-29 0 -69 1 t-83 3t-86 3.5t-80 3.5t-64 3t-38 1z" />
<glyph unicode="{" horiz-adv-x="548" d="M50 397v93q63 4 103.5 47t40.5 125v234q0 125 84 188t240 63v-95q-71 0 -109.5 -28.5t-38.5 -97.5v-274q0 -42 -16.5 -77.5t-42.5 -62t-57 -43.5t-61 -23v-4q30 -5 61 -22t57 -43.5t42.5 -61.5t16.5 -77v-278q0 -69 38.5 -97.5t109.5 -28.5v-95q-156 0 -240 63t-84 188 v238q0 81 -40.5 123t-103.5 46z" />
<glyph unicode="|" horiz-adv-x="363" d="M128 -377v1590h107v-1590h-107z" />
<glyph unicode="}" horiz-adv-x="548" d="M30 -166q71 0 109.5 28.5t38.5 97.5v278q0 42 16.5 77t42.5 61.5t57 43.5t61 22v4q-30 6 -61 23t-57 43.5t-42.5 62t-16.5 77.5v274q0 69 -38.5 97.5t-109.5 28.5v95q156 0 240 -63t84 -188v-234q0 -82 40.5 -125t103.5 -47v-93q-63 -4 -103.5 -46t-40.5 -123v-238 q0 -125 -84 -188t-240 -63v95z" />
<glyph unicode="~" horiz-adv-x="895" d="M50 352q1 52 16 96t43.5 75.5t69.5 49t95 17.5q58 0 106 -22t90.5 -48.5t81.5 -48.5t79 -22q51 0 82.5 31t33.5 100h98q-2 -53 -16.5 -96.5t-43 -75t-69.5 -49t-95 -17.5q-52 0 -100 22t-92.5 48.5t-85.5 48.5t-79 22q-51 0 -82.5 -31t-33.5 -100h-98z" />
<glyph unicode="&#xa1;" horiz-adv-x="453" d="M91 560l136 140l135 -140l-135 -140zM114 -355l64 708h98l64 -708h-226z" />
<glyph unicode="&#xa2;" horiz-adv-x="707" d="M65 479q0 79 20.5 144t60.5 112.5t98.5 76.5t135.5 38v91h89v-87q51 -2 101.5 -9.5t92.5 -16.5l-35 -136q-31 15 -71.5 30t-87.5 21v-485q49 4 98.5 15t91.5 28l18 -50q-43 -34 -95.5 -60t-112.5 -39v-120h-89v110h-7q-65 0 -121 18t-97.5 58t-65.5 104.5t-24 156.5z M279 486q0 -106 25 -158t76 -66v481q-16 -3 -30 -7.5t-25 -12.5q-21 -14 -33.5 -68.5t-12.5 -168.5z" />
<glyph unicode="&#xa3;" horiz-adv-x="885" d="M12 90q79 26 120.5 88t41.5 162v101h-117l10 101h107v145q0 54 27 115t76.5 113t119.5 86.5t155 34.5q67 0 121 -5.5t112 -19.5l-31 -151q-57 20 -118.5 34.5t-115.5 14.5q-80 0 -121 -29q-9 -6 -16 -22.5t-11.5 -40.5t-7 -54.5t-2.5 -63.5v-157h240l-9 -101h-231v-51 q0 -43 -12 -79t-34 -66t-52.5 -55.5t-66.5 -48.5q61 25 102 30t64 5q25 0 59 -6.5t71 -14t74 -13.5t70 -6q29 0 52.5 10t42 25t34 33.5t29.5 35.5l71 -54q-28 -43 -56.5 -79t-62.5 -62.5t-74 -41t-91 -14.5q-38 0 -80 8.5t-86 19t-88.5 19t-86.5 8.5q-37 0 -87 -8.5 t-116 -35.5z" />
<glyph unicode="&#xa4;" horiz-adv-x="822" d="M74 196l80 78q-33 42 -51.5 93.5t-18.5 109.5q0 57 18.5 108.5t51.5 93.5l-80 81l54 54l80 -81q42 33 93.5 51.5t108.5 18.5t108.5 -18.5t93.5 -51.5l81 81l54 -54l-81 -81q33 -42 51.5 -93.5t18.5 -108.5t-18.5 -108.5t-51.5 -93.5l80 -78l-54 -54l-80 78 q-42 -33 -93.5 -51.5t-108.5 -18.5t-108.5 18.5t-93.5 51.5l-80 -79zM184 477q0 -47 17.5 -88t48.5 -72t72 -48.5t88 -17.5t88 17.5t72 48.5t48.5 72t17.5 88t-17.5 88t-48.5 72t-72 48.5t-88 17.5t-88 -17.5t-72 -48.5t-48.5 -72t-17.5 -88z" />
<glyph unicode="&#xa5;" horiz-adv-x="857" d="M-10 1024h238l252 -502l231 502h127l-264 -546h208l-10 -97h-239v-126h249l-10 -97h-239v-158h-209v158h-249l10 97h239v126h-249l10 97h194z" />
<glyph unicode="&#xa6;" horiz-adv-x="363" d="M128 219h107v-598h-107v598zM128 615v598h107v-598h-107z" />
<glyph unicode="&#xa7;" horiz-adv-x="670" d="M38 -87l45 123q19 -13 44 -28t53.5 -27.5t59 -21t60.5 -8.5q81 0 119 27q17 12 26 44t9 80q0 34 -16.5 59t-43.5 44t-61.5 34.5t-70.5 31t-70 33t-61 41t-43.5 55t-16.5 75.5q0 42 11 72.5t30 53.5t45 40t56 32q-27 18 -52.5 38t-45.5 46.5t-32 59.5t-12 76 q0 54 17.5 91.5t49.5 68.5q42 38 101.5 61t123.5 23q50 0 99.5 -5.5t100.5 -12.5l-29 -136q-19 8 -47.5 18t-59 19t-58.5 15t-46 6q-22 0 -48.5 -4.5t-38.5 -14.5q-11 -9 -15 -30.5t-4 -50.5q0 -46 28.5 -77.5t71.5 -57.5t92.5 -50t92.5 -55t71.5 -73t28.5 -103 q0 -39 -10.5 -68.5t-26.5 -52t-36 -39.5t-39 -30q47 -32 77 -75.5t30 -106.5q0 -62 -23.5 -110.5t-56.5 -83.5q-18 -19 -41.5 -36.5t-52.5 -31t-63.5 -22t-73.5 -8.5q-72 0 -132.5 13t-115.5 39zM226 517q0 -23 21.5 -43t52 -37t64.5 -32t60 -28q17 13 26 46.5t9 72.5 q0 16 -14.5 35t-38.5 37.5t-54.5 36t-63.5 31.5q-17 -9 -28.5 -23t-19 -30.5t-11 -33.5t-3.5 -32z" />
<glyph unicode="&#xa8;" horiz-adv-x="651" d="M61 925l103 105l106 -105l-106 -105zM383 925l104 105l105 -105l-105 -105z" />
<glyph unicode="&#xa9;" horiz-adv-x="1171" d="M65 512q0 108 40.5 203t111 165.5t165.5 111.5t203 41t203 -41t165.5 -111.5t111.5 -165.5t41 -203t-41 -203t-111.5 -165.5t-165.5 -111t-203 -40.5t-203 40.5t-165.5 111t-111 165.5t-40.5 203zM144 512q0 -92 34.5 -172t94.5 -140t140 -94.5t172 -34.5 q91 0 171.5 34.5t140.5 94.5t95 140t35 172q0 91 -35 171.5t-95 140.5t-140.5 95t-171.5 35q-92 0 -172 -35t-140 -95t-94.5 -140.5t-34.5 -171.5zM294 516q0 93 29.5 156t76 101.5t104 55.5t113.5 17q21 0 45.5 -1t48.5 -3t44.5 -4.5t32.5 -4.5l-25 -98q-13 4 -35 9 t-47.5 9.5t-50 7.5t-42.5 3q-39 0 -64.5 -6t-50.5 -25q-30 -22 -39.5 -73.5t-9.5 -143.5q0 -65 8.5 -114.5t28 -82.5t51.5 -50t80 -17q54 0 107 7.5t100 22.5v-54q-48 -23 -104 -35t-111 -12q-73 0 -127.5 24t-90.5 68t-54 105.5t-18 137.5z" />
<glyph unicode="&#xaa;" horiz-adv-x="552" d="M38 668q0 72 46.5 112.5t153.5 42.5l90 2v61q0 35 -17 51t-57 16q-14 0 -33.5 -2.5t-41 -7.5t-44 -11.5t-41.5 -14.5l-17 61q24 10 52.5 19t59 16.5t61 12t58.5 4.5q31 0 59 -6t49 -21t33.5 -39t12.5 -60v-224q0 -40 9.5 -56t29.5 -16q10 0 22.5 1.5t27.5 6.5v-47 q-12 -6 -29 -12t-35.5 -11t-37.5 -8t-35 -3q-38 0 -54 19t-23 40q-19 -12 -36.5 -23t-37 -19.5t-41 -14t-47.5 -5.5q-61 0 -99 33.5t-38 102.5zM173 682q0 -38 7.5 -50t33.5 -12q30 0 58 7t58 24q0 3 -1 29.5t-1 89.5q-36 0 -61 -2.5t-41 -6.5t-25 -9t-13 -9 q-8 -9 -11.5 -24.5t-3.5 -36.5z" />
<glyph unicode="&#xab;" horiz-adv-x="761" d="M60 341l243 324l81 -64l-177 -225l189 -213l-110 -102zM375 341l243 324l81 -64l-177 -225l189 -213l-110 -102z" />
<glyph unicode="&#xac;" horiz-adv-x="822" d="M50 424v107h722v-429h-106v322h-616z" />
<glyph unicode="&#xad;" horiz-adv-x="488" d="M50 293l10 136h378l-10 -136h-378z" />
<glyph unicode="&#xae;" horiz-adv-x="1171" d="M65 512q0 108 40.5 203t111 165.5t165.5 111.5t203 41t203 -41t165.5 -111.5t111.5 -165.5t41 -203t-41 -203t-111.5 -165.5t-165.5 -111t-203 -40.5t-203 40.5t-165.5 111t-111 165.5t-40.5 203zM144 512q0 -92 34.5 -172t94.5 -140t140 -94.5t172 -34.5 q91 0 171.5 34.5t140.5 94.5t95 140t35 172q0 91 -35 171.5t-95 140.5t-140.5 95t-171.5 35q-92 0 -172 -35t-140 -95t-94.5 -140.5t-34.5 -171.5zM362 187v648q20 1 45 2t51.5 2t53 1.5t50.5 0.5q118 0 185 -46t67 -130q0 -41 -13.5 -73t-36 -56t-51.5 -40t-60 -25 q30 -50 57.5 -92t54.5 -72.5t54.5 -48t57.5 -17.5h7v-49q-15 -5 -33.5 -8t-41.5 -3q-33 0 -59 8.5t-52 31.5t-54.5 65t-65.5 108l-39 67h-64v-274h-113zM475 527h17q62 0 100.5 4t59.5 16q9 6 17 13.5t13.5 20t8.5 31t3 47.5q0 38 -11 61t-32 35.5t-51.5 16.5t-68.5 4h-16 t-11.5 -0.5t-12 -1t-16.5 -1.5v-246z" />
<glyph unicode="&#xaf;" horiz-adv-x="486" d="M35 801l10 105h406l-10 -105h-406z" />
<glyph unicode="&#xb0;" horiz-adv-x="532" d="M50 809q0 45 17 84.5t46 68.5t68.5 46t84.5 17t84.5 -17t68.5 -46t46 -68.5t17 -84.5t-17 -84.5t-46 -68.5t-68.5 -46t-84.5 -17t-84.5 17t-68.5 46t-46 68.5t-17 84.5zM150 809q0 -24 9 -45t25 -37t37 -25t45 -9t45 9t37 25t25 37t9 45t-9 45t-25 37t-37 25t-45 9 t-45 -9t-37 -25t-25 -37t-9 -45z" />
<glyph unicode="&#xb1;" horiz-adv-x="822" d="M50 0v107h722v-107h-722zM50 484v107h308v323h106v-323h308v-107h-308v-322h-106v322h-308z" />
<glyph unicode="&#xb2;" horiz-adv-x="499" d="M42 407v56l167 186q38 42 64 84.5t26 97.5q0 95 -104 95q-34 0 -72 -7t-71 -18l17 109q13 5 33 9t42 6.5t43 4t37 1.5q112 0 164.5 -42.5t52.5 -111.5q0 -33 -14 -66.5t-36.5 -66t-50.5 -64t-56 -60.5l-101 -107q32 0 80.5 0.5t95.5 1.5q55 1 113 3l-18 -111h-412z" />
<glyph unicode="&#xb3;" horiz-adv-x="518" d="M19 446l29 107q14 -9 36 -19.5t47.5 -19.5t51 -14.5t46.5 -5.5q23 0 41.5 4t33.5 12q17 8 28 28.5t11 62.5q0 36 -14.5 56.5t-39 31.5t-56 14t-65.5 3v67q75 4 109 27t34 61q0 35 -28 50t-81 15q-32 0 -74.5 -7t-75.5 -19l18 109q14 5 34.5 9t42 7t43 4.5t38.5 1.5 q106 0 166.5 -36t60.5 -105q0 -29 -14.5 -53t-35.5 -42t-43 -29.5t-37 -15.5v-2q27 -4 54.5 -13.5t50 -25.5t36.5 -39.5t14 -55.5q0 -39 -22 -77t-59 -68t-84 -49t-97 -19q-54 0 -108 12t-91 33z" />
<glyph unicode="&#xb4;" horiz-adv-x="462" d="M80 861l223 256l105 -102l-262 -217z" />
<glyph unicode="&#xb5;" horiz-adv-x="884" d="M68 -410q19 107 30.5 236.5t11.5 283.5v574h205v-455q0 -63 28 -93t69 -30q45 0 85 16.5t72 37.5v524h205v-489q0 -123 29 -195h-197q-13 13 -24 35.5t-13 36.5q-17 -16 -34.5 -31.5t-38.5 -28t-45.5 -20t-55.5 -7.5q-29 0 -53.5 9.5t-36.5 20.5q-5 -45 -12 -96 t-17 -103.5t-23.5 -104.5t-30.5 -99z" />
<glyph unicode="&#xb6;" horiz-adv-x="741" d="M47 784q0 55 19 99t53.5 75.5t82 48.5t104.5 17h395l-10 -92h-81v-1034l-96 -20v1054h-126v-1034l-97 -20v643q-44 5 -87.5 21t-78 47.5t-56.5 79t-22 115.5z" />
<glyph unicode="&#xb7;" horiz-adv-x="335" d="M29 471l137 137l138 -137l-138 -137z" />
<glyph unicode="&#xb8;" horiz-adv-x="343" d="M29 -344l12 81q14 -4 36 -6t39 -2q41 0 57.5 17.5t16.5 40.5q0 22 -13.5 37.5t-33 25t-42.5 14.5t-42 7l71 129h95l-44 -78q62 -10 102 -39.5t40 -80.5q0 -72 -49.5 -115t-160.5 -43q-20 0 -43.5 3t-40.5 9z" />
<glyph unicode="&#xb9;" horiz-adv-x="500" d="M22 863l229 161h102v-617h-133v513l-157 -117z" />
<glyph unicode="&#xba;" horiz-adv-x="580" d="M38 780q0 116 66 183t186 67q119 0 185.5 -64.5t66.5 -183.5q0 -117 -66.5 -183.5t-185.5 -66.5q-118 0 -185 63.5t-67 184.5zM178 781q0 -52 6 -86.5t19.5 -55.5t34.5 -29.5t51 -8.5q24 0 41.5 4.5t35.5 13.5q20 10 28 52.5t8 108.5q0 51 -6.5 85.5t-20 55.5t-34.5 30 t-50 9q-22 0 -41 -4t-36 -14q-23 -13 -29.5 -54.5t-6.5 -106.5z" />
<glyph unicode="&#xbb;" horiz-adv-x="761" d="M50 563l110 102l226 -280l-243 -324l-81 64l177 225zM365 563l110 102l226 -280l-243 -324l-81 64l177 225z" />
<glyph unicode="&#xbc;" horiz-adv-x="1136" d="M22 863l229 161h102v-617h-133v513l-157 -117zM169 0l683 1081l85 -55l-681 -1081zM573 131v98l290 390h131v-386h96l-15 -98l-81 -3v-130h-134v127h-29.5h-41t-47 0.5t-48.5 0.5q-56 0 -121 1zM665 233h195v267z" />
<glyph unicode="&#xbd;" horiz-adv-x="1170" d="M22 863l229 161h102v-617h-133v513l-157 -117zM169 0l683 1081l85 -55l-681 -1081zM709 2v56l167 186q38 42 64 84.5t26 97.5q0 95 -104 95q-34 0 -72 -7t-71 -18l17 109q13 5 33 9t42 6.5t43 4t37 1.5q112 0 164.5 -42.5t52.5 -111.5q0 -33 -14 -66.5t-36.5 -66 t-50.5 -64t-56 -60.5l-101 -107q32 0 80.5 0.5t95.5 1.5q55 1 113 3l-18 -111h-412z" />
<glyph unicode="&#xbe;" horiz-adv-x="1191" d="M47 446l29 107q14 -9 36 -19.5t47.5 -19.5t51 -14.5t46.5 -5.5q23 0 41.5 4t33.5 12q17 8 28 28.5t11 62.5q0 36 -14.5 56.5t-39 31.5t-56 14t-65.5 3v67q75 4 109 27t34 61q0 35 -28 50t-81 15q-32 0 -74.5 -7t-75.5 -19l18 109q14 5 34.5 9t42 7t43 4.5t38.5 1.5 q106 0 166.5 -36t60.5 -105q0 -29 -14.5 -53t-35.5 -42t-43 -29.5t-37 -15.5v-2q27 -4 54.5 -13.5t50 -25.5t36.5 -39.5t14 -55.5q0 -39 -22 -77t-59 -68t-84 -49t-97 -19q-54 0 -108 12t-91 33zM224 0l683 1081l85 -55l-681 -1081zM628 131v98l290 390h131v-386h96l-15 -98 l-81 -3v-130h-134v127h-29.5h-41t-47 0.5t-48.5 0.5q-56 0 -121 1zM720 233h195v267z" />
<glyph unicode="&#xbf;" horiz-adv-x="613" d="M51 -119q0 55 13 96.5t37.5 73t59 56t77.5 47.5q30 16 50.5 28.5t33 26t17.5 29t5 36.5q0 24 -5 42t-13 33l79 28q11 -12 22.5 -27t21 -33.5t15.5 -39.5t6 -45q0 -27 -7 -48.5t-21.5 -39.5t-36.5 -34t-51 -33q-38 -22 -63.5 -42.5t-41 -42.5t-22 -45t-6.5 -50 q0 -25 7.5 -46.5t26.5 -37t51.5 -24.5t82.5 -9q45 0 91 8t94 26l-25 -160q-39 -10 -90 -16t-99 -6q-146 0 -227.5 60.5t-81.5 188.5zM224 559l136 140l135 -140l-135 -140z" />
<glyph unicode="&#xc0;" horiz-adv-x="990" d="M2 0l406 1015l202 35l378 -1050h-224l-120 345l-385 -5l-125 -340h-132zM295 442h316l-154 442zM317 1338l105 102l223 -256l-66 -63z" />
<glyph unicode="&#xc1;" horiz-adv-x="990" d="M2 0l406 1015l202 35l378 -1050h-224l-120 345l-385 -5l-125 -340h-132zM295 442h316l-154 442zM383 1185l223 256l105 -102l-262 -217z" />
<glyph unicode="&#xc2;" horiz-adv-x="990" d="M2 0l406 1015l202 35l378 -1050h-224l-120 345l-385 -5l-125 -340h-132zM242 1182l195 232h117l195 -232l-53 -53l-199 154l-199 -154zM295 442h316l-154 442z" />
<glyph unicode="&#xc3;" horiz-adv-x="990" d="M2 0l406 1015l202 35l378 -1050h-224l-120 345l-385 -5l-125 -340h-132zM248 1139q7 39 19.5 71.5t31.5 56t43.5 37t54.5 13.5t60.5 -12t60 -26.5t55.5 -26.5t47 -12q22 0 36 7t23 18t14.5 24t8.5 24l61 -12q-7 -39 -20 -72t-32 -56.5t-44 -37t-56 -13.5q-33 0 -63 12 t-57.5 26.5t-53 26.5t-48.5 12q-22 0 -36 -6.5t-23 -16.5t-14 -23.5t-8 -26.5zM295 442h316l-154 442z" />
<glyph unicode="&#xc4;" horiz-adv-x="990" d="M2 0l406 1015l202 35l378 -1050h-224l-120 345l-385 -5l-125 -340h-132zM236 1221l103 105l106 -105l-106 -105zM295 442h316l-154 442zM558 1221l104 105l105 -105l-105 -105z" />
<glyph unicode="&#xc5;" horiz-adv-x="990" d="M2 0l406 1015l202 35l378 -1050h-224l-120 345l-385 -5l-125 -340h-132zM295 442h316l-154 442zM313 1125q0 44 15.5 76t41 53t59.5 31.5t71 10.5t71.5 -10.5t60 -31.5t41 -53t15.5 -76t-15.5 -76t-41 -53t-60 -31t-71.5 -10t-71 10t-59.5 31t-41 53t-15.5 76zM396 1125 q0 -25 9 -42.5t23.5 -28t33 -15t38.5 -4.5t39 4.5t34 15t24 28t9 42.5t-9 42.5t-24 28t-34 15.5t-39 5t-38.5 -5t-33 -15.5t-23.5 -28t-9 -42.5z" />
<glyph unicode="&#xc6;" horiz-adv-x="1299" d="M-30 0l557 1024h692l-10 -104l-376 -5v-333l354 -4l-10 -95l-344 -8v-366l418 -8l-10 -101h-617v363h-330l-191 -363h-133zM347 462h277v454h-36z" />
<glyph unicode="&#xc7;" horiz-adv-x="965" d="M89 520q0 97 23.5 173t63.5 133.5t93.5 97.5t112.5 65t121 36t120 11q36 0 76.5 -2.5t78.5 -6t71 -8.5t54 -10l-39 -146q-21 6 -59.5 14t-82.5 14.5t-86.5 11t-71.5 4.5q-32 0 -56 -2t-44 -7t-38.5 -13.5t-37.5 -22.5q-48 -32 -64.5 -122.5t-16.5 -224.5 q0 -205 64 -311.5t207 -106.5q40 0 83 3t85.5 9t83 15t76.5 21v-85q-40 -18 -86.5 -31.5t-95.5 -23t-98 -14.5t-95 -5q-120 0 -204.5 38.5t-137 109t-76.5 168.5t-24 218zM388 -344l12 81q14 -4 36 -6t39 -2q41 0 57.5 17.5t16.5 40.5q0 22 -13.5 37.5t-33 25t-42.5 14.5 t-42 7l71 129h95l-44 -78q62 -10 102 -39.5t40 -80.5q0 -72 -49.5 -115t-160.5 -43q-20 0 -43.5 3t-40.5 9z" />
<glyph unicode="&#xc8;" horiz-adv-x="795" d="M120 0v1024h595l-10 -104l-376 -5v-333l354 -4l-10 -95l-344 -8v-366l418 -8l-10 -101h-617zM198 1338l105 102l223 -256l-66 -63z" />
<glyph unicode="&#xc9;" horiz-adv-x="795" d="M120 0v1024h595l-10 -104l-376 -5v-333l354 -4l-10 -95l-344 -8v-366l418 -8l-10 -101h-617zM286 1185l223 256l105 -102l-262 -217z" />
<glyph unicode="&#xca;" horiz-adv-x="795" d="M120 0v1024h595l-10 -104l-376 -5v-333l354 -4l-10 -95l-344 -8v-366l418 -8l-10 -101h-617zM174 1182l195 232h117l195 -232l-53 -53l-199 154l-199 -154z" />
<glyph unicode="&#xcb;" horiz-adv-x="795" d="M120 0v1024h595l-10 -104l-376 -5v-333l354 -4l-10 -95l-344 -8v-366l418 -8l-10 -101h-617zM161 1221l103 105l106 -105l-106 -105zM483 1221l104 105l105 -105l-105 -105z" />
<glyph unicode="&#xcc;" horiz-adv-x="449" d="M13 1338l105 102l223 -256l-66 -63zM120 0v1024h209v-1024h-209z" />
<glyph unicode="&#xcd;" horiz-adv-x="449" d="M103 1185l223 256l105 -102l-262 -217zM120 0v1024h209v-1024h-209z" />
<glyph unicode="&#xce;" horiz-adv-x="449" d="M-25 1182l195 232h117l195 -232l-53 -53l-199 154l-199 -154zM120 0v1024h209v-1024h-209z" />
<glyph unicode="&#xcf;" horiz-adv-x="449" d="M-43 1221l103 105l106 -105l-106 -105zM120 0v1024h209v-1024h-209zM279 1221l104 105l105 -105l-105 -105z" />
<glyph unicode="&#xd0;" horiz-adv-x="1129" d="M5 475l10 92l105 2v447q33 4 77 7.5t93 6t98.5 4t93.5 1.5q125 0 227.5 -26.5t176 -84.5t113.5 -150t40 -222q0 -127 -32 -230.5t-101 -177t-177.5 -113.5t-262.5 -40q-43 0 -90.5 1.5t-93.5 3.5t-88 5.5t-74 6.5v464zM329 102q10 -2 24 -3.5t29 -3t29.5 -2t23.5 -0.5 q93 0 156 11t108 44q24 18 45 44.5t36.5 71t24.5 110.5t9 162q0 119 -29.5 195.5t-80.5 121t-119.5 61.5t-146.5 17q-12 0 -27.5 -0.5t-30.5 -2t-28.5 -3l-22.5 -2.5v-352l219 1l-10 -94l-209 -3v-373z" />
<glyph unicode="&#xd1;" horiz-adv-x="1173" d="M120 0v1031h91l724 -716h1q-2 83 -3 155q0 31 -0.5 62.5t-1 60t-0.5 52.5v39v340h122v-1029h-93l-723 718h-3q2 -90 4 -166q1 -32 1.5 -64.5t1 -60t1 -48t0.5 -29.5v-345h-122zM330 1139q7 39 19.5 71.5t31.5 56t43.5 37t54.5 13.5t60.5 -12t60 -26.5t55.5 -26.5t47 -12 q22 0 36 7t23 18t14.5 24t8.5 24l61 -12q-7 -39 -20 -72t-32 -56.5t-44 -37t-56 -13.5q-33 0 -63 12t-57.5 26.5t-53 26.5t-48.5 12q-22 0 -36 -6.5t-23 -16.5t-14 -23.5t-8 -26.5z" />
<glyph unicode="&#xd2;" horiz-adv-x="1197" d="M90 516q0 120 29.5 216t90.5 163.5t155.5 103.5t225.5 36q129 0 225.5 -36t161 -103.5t97 -163.5t32.5 -216q0 -122 -32.5 -220t-97.5 -167t-162 -106t-226 -37q-132 0 -226 38t-155 107.5t-89.5 167t-28.5 217.5zM307 515q0 -92 14 -167t46.5 -129t86.5 -83.5t135 -29.5 q83 0 137.5 14.5t91.5 38.5q17 11 30 44.5t21.5 81.5t13 107.5t4.5 122.5q0 94 -17 168t-53 126t-92 79.5t-134 27.5q-68 0 -126.5 -14t-92.5 -40t-49.5 -112.5t-15.5 -234.5zM406 1338l105 102l223 -256l-66 -63z" />
<glyph unicode="&#xd3;" horiz-adv-x="1197" d="M90 516q0 120 29.5 216t90.5 163.5t155.5 103.5t225.5 36q129 0 225.5 -36t161 -103.5t97 -163.5t32.5 -216q0 -122 -32.5 -220t-97.5 -167t-162 -106t-226 -37q-132 0 -226 38t-155 107.5t-89.5 167t-28.5 217.5zM307 515q0 -92 14 -167t46.5 -129t86.5 -83.5t135 -29.5 q83 0 137.5 14.5t91.5 38.5q17 11 30 44.5t21.5 81.5t13 107.5t4.5 122.5q0 94 -17 168t-53 126t-92 79.5t-134 27.5q-68 0 -126.5 -14t-92.5 -40t-49.5 -112.5t-15.5 -234.5zM430 1185l223 256l105 -102l-262 -217z" />
<glyph unicode="&#xd4;" horiz-adv-x="1197" d="M90 516q0 120 29.5 216t90.5 163.5t155.5 103.5t225.5 36q129 0 225.5 -36t161 -103.5t97 -163.5t32.5 -216q0 -122 -32.5 -220t-97.5 -167t-162 -106t-226 -37q-132 0 -226 38t-155 107.5t-89.5 167t-28.5 217.5zM307 515q0 -92 14 -167t46.5 -129t86.5 -83.5t135 -29.5 q83 0 137.5 14.5t91.5 38.5q17 11 30 44.5t21.5 81.5t13 107.5t4.5 122.5q0 94 -17 168t-53 126t-92 79.5t-134 27.5q-68 0 -126.5 -14t-92.5 -40t-49.5 -112.5t-15.5 -234.5zM328 1182l195 232h117l195 -232l-53 -53l-199 154l-199 -154z" />
<glyph unicode="&#xd5;" horiz-adv-x="1197" d="M90 516q0 120 29.5 216t90.5 163.5t155.5 103.5t225.5 36q129 0 225.5 -36t161 -103.5t97 -163.5t32.5 -216q0 -122 -32.5 -220t-97.5 -167t-162 -106t-226 -37q-132 0 -226 38t-155 107.5t-89.5 167t-28.5 217.5zM307 515q0 -92 14 -167t46.5 -129t86.5 -83.5t135 -29.5 q83 0 137.5 14.5t91.5 38.5q17 11 30 44.5t21.5 81.5t13 107.5t4.5 122.5q0 94 -17 168t-53 126t-92 79.5t-134 27.5q-68 0 -126.5 -14t-92.5 -40t-49.5 -112.5t-15.5 -234.5zM329 1139q7 39 19.5 71.5t31.5 56t43.5 37t54.5 13.5t60.5 -12t60 -26.5t55.5 -26.5t47 -12 q22 0 36 7t23 18t14.5 24t8.5 24l61 -12q-7 -39 -20 -72t-32 -56.5t-44 -37t-56 -13.5q-33 0 -63 12t-57.5 26.5t-53 26.5t-48.5 12q-22 0 -36 -6.5t-23 -16.5t-14 -23.5t-8 -26.5z" />
<glyph unicode="&#xd6;" horiz-adv-x="1197" d="M90 516q0 120 29.5 216t90.5 163.5t155.5 103.5t225.5 36q129 0 225.5 -36t161 -103.5t97 -163.5t32.5 -216q0 -122 -32.5 -220t-97.5 -167t-162 -106t-226 -37q-132 0 -226 38t-155 107.5t-89.5 167t-28.5 217.5zM307 515q0 -92 14 -167t46.5 -129t86.5 -83.5t135 -29.5 q83 0 137.5 14.5t91.5 38.5q17 11 30 44.5t21.5 81.5t13 107.5t4.5 122.5q0 94 -17 168t-53 126t-92 79.5t-134 27.5q-68 0 -126.5 -14t-92.5 -40t-49.5 -112.5t-15.5 -234.5zM315 1221l103 105l106 -105l-106 -105zM637 1221l104 105l105 -105l-105 -105z" />
<glyph unicode="&#xd7;" horiz-adv-x="822" d="M86 228l249 249l-239 239l76 76l239 -239l250 250l75 -75l-250 -250l239 -239l-76 -76l-239 239l-249 -249z" />
<glyph unicode="&#xd8;" horiz-adv-x="1197" d="M90 516q0 120 29.5 216t90.5 163.5t155.5 103.5t225.5 36q157 0 270 -55l85 121l89 -59l-85 -121q79 -68 118 -170t39 -235q0 -122 -32.5 -220t-97.5 -167t-162 -106t-226 -37q-78 0 -141.5 13t-115.5 38l-91 -130l-89 59l91 130q-79 70 -116 176.5t-37 243.5zM307 515 q0 -79 10 -146t34 -119l423 606q-35 29 -80 44.5t-103 15.5q-68 0 -126.5 -14t-92.5 -40t-49.5 -112.5t-15.5 -234.5zM418 160q32 -26 74 -40t97 -14q83 0 137.5 14.5t91.5 38.5q17 11 30 44.5t21.5 81.5t13 107.5t4.5 122.5q0 154 -46 250z" />
<glyph unicode="&#xd9;" horiz-adv-x="1111" d="M115 347v677h209v-697q0 -77 14.5 -122.5t42 -69.5t68.5 -31t95 -7q66 0 114 13t80 35q32 23 40.5 70.5t8.5 115.5v693h209v-663q0 -77 -30 -145t-88.5 -119t-145.5 -81t-202 -30q-95 0 -171.5 19t-130.5 61.5t-83.5 111.5t-29.5 169zM356 1338l105 102l223 -256l-66 -63 z" />
<glyph unicode="&#xda;" horiz-adv-x="1111" d="M115 347v677h209v-697q0 -77 14.5 -122.5t42 -69.5t68.5 -31t95 -7q66 0 114 13t80 35q32 23 40.5 70.5t8.5 115.5v693h209v-663q0 -77 -30 -145t-88.5 -119t-145.5 -81t-202 -30q-95 0 -171.5 19t-130.5 61.5t-83.5 111.5t-29.5 169zM396 1185l223 256l105 -102 l-262 -217z" />
<glyph unicode="&#xdb;" horiz-adv-x="1111" d="M115 347v677h209v-697q0 -77 14.5 -122.5t42 -69.5t68.5 -31t95 -7q66 0 114 13t80 35q32 23 40.5 70.5t8.5 115.5v693h209v-663q0 -77 -30 -145t-88.5 -119t-145.5 -81t-202 -30q-95 0 -171.5 19t-130.5 61.5t-83.5 111.5t-29.5 169zM293 1182l195 232h117l195 -232 l-53 -53l-199 154l-199 -154z" />
<glyph unicode="&#xdc;" horiz-adv-x="1111" d="M115 347v677h209v-697q0 -77 14.5 -122.5t42 -69.5t68.5 -31t95 -7q66 0 114 13t80 35q32 23 40.5 70.5t8.5 115.5v693h209v-663q0 -77 -30 -145t-88.5 -119t-145.5 -81t-202 -30q-95 0 -171.5 19t-130.5 61.5t-83.5 111.5t-29.5 169zM287 1274l103 105l106 -105 l-106 -105zM609 1274l104 105l105 -105l-105 -105z" />
<glyph unicode="&#xdd;" horiz-adv-x="856" d="M-10 1024h238l252 -502l261 502h127l-335 -631v-393h-209v393zM306 1185l223 256l105 -102l-262 -217z" />
<glyph unicode="&#xde;" horiz-adv-x="855" d="M120 0v1023l209 1v-188q18 0 36 1q16 0 34.5 0.5t35.5 0.5q94 0 163.5 -20.5t115.5 -58t68 -92t22 -121.5q0 -71 -24 -133.5t-75 -109t-130 -73.5t-188 -27h-9l-14 79l29 6q41 9 77 23t62.5 41t41.5 71.5t15 113.5q0 52 -13 89.5t-36 61.5t-55.5 35.5t-72.5 11.5t-83 -6 v-729h-209z" />
<glyph unicode="&#xdf;" horiz-adv-x="880" d="M105 0v811q0 68 28 128.5t74.5 105.5t107.5 71.5t126 26.5q66 0 121.5 -12t95.5 -36.5t62.5 -62t22.5 -88.5q0 -34 -8 -62t-22 -52.5t-34 -46.5t-45 -45q-22 -21 -35 -37t-19.5 -29.5t-8 -26t-1.5 -25.5q0 -23 10.5 -42t27 -36t37.5 -33t43 -34q28 -23 54 -46t45.5 -50.5 t31 -62.5t11.5 -81q0 -65 -22.5 -107t-60.5 -74q-32 -27 -79.5 -47t-114.5 -20q-63 0 -118 12.5t-95 35.5l44 131q16 -12 38.5 -26.5t47.5 -26.5t50.5 -20.5t48.5 -8.5q37 0 61 14q14 8 21 37t7 68q0 33 -11 57.5t-29.5 44.5t-41.5 37t-47 36q-24 18 -48 37t-43.5 42.5 t-31.5 52t-12 66.5q0 52 18.5 82.5t46.5 55.5q34 31 55.5 53t33 43t15.5 45t4 60q0 30 -12 51t-32 34.5t-47.5 19.5t-58.5 6q-9 0 -21.5 -1t-25 -3.5t-23 -6.5t-15.5 -9q-13 -14 -17.5 -74t-4.5 -145v-787h-205z" />
<glyph unicode="&#xe0;" horiz-adv-x="784" d="M60 188q0 54 14.5 93.5t46.5 66t83 40t125 15.5l123 4v99q0 40 -23 58.5t-77 18.5q-39 0 -90 -9t-106 -30l-28 71q37 16 77.5 31t82 27t84 19t85.5 7q47 0 84.5 -8.5t63 -28.5t39 -53t13.5 -82v-316q0 -110 56 -110q27 0 71 12v-46q-16 -15 -38 -29t-47 -24.5t-52 -16.5 t-53 -6q-28 0 -48 7.5t-34.5 20t-24.5 27.5t-17 30q-26 -17 -51 -33t-52.5 -28.5t-58 -20t-67.5 -7.5q-84 0 -132.5 50t-48.5 151zM203 1015l105 102l223 -256l-66 -63zM275 210q0 -46 13.5 -75.5t45.5 -29.5q34 0 65 8t62 20q-1 4 -2 22.5t-2.5 47t-2.5 64.5t-1 76 q-75 0 -114 -8.5t-48 -20.5q-4 -5 -7 -17t-5 -27t-3 -31t-1 -29z" />
<glyph unicode="&#xe1;" horiz-adv-x="784" d="M60 188q0 54 14.5 93.5t46.5 66t83 40t125 15.5l123 4v99q0 40 -23 58.5t-77 18.5q-39 0 -90 -9t-106 -30l-28 71q37 16 77.5 31t82 27t84 19t85.5 7q47 0 84.5 -8.5t63 -28.5t39 -53t13.5 -82v-316q0 -110 56 -110q27 0 71 12v-46q-16 -15 -38 -29t-47 -24.5t-52 -16.5 t-53 -6q-28 0 -48 7.5t-34.5 20t-24.5 27.5t-17 30q-26 -17 -51 -33t-52.5 -28.5t-58 -20t-67.5 -7.5q-84 0 -132.5 50t-48.5 151zM275 210q0 -46 13.5 -75.5t45.5 -29.5q34 0 65 8t62 20q-1 4 -2 22.5t-2.5 47t-2.5 64.5t-1 76q-75 0 -114 -8.5t-48 -20.5q-4 -5 -7 -17 t-5 -27t-3 -31t-1 -29zM285 861l223 256l105 -102l-262 -217z" />
<glyph unicode="&#xe2;" horiz-adv-x="784" d="M60 188q0 54 14.5 93.5t46.5 66t83 40t125 15.5l123 4v99q0 40 -23 58.5t-77 18.5q-39 0 -90 -9t-106 -30l-28 71q37 16 77.5 31t82 27t84 19t85.5 7q47 0 84.5 -8.5t63 -28.5t39 -53t13.5 -82v-316q0 -110 56 -110q27 0 71 12v-46q-16 -15 -38 -29t-47 -24.5t-52 -16.5 t-53 -6q-28 0 -48 7.5t-34.5 20t-24.5 27.5t-17 30q-26 -17 -51 -33t-52.5 -28.5t-58 -20t-67.5 -7.5q-84 0 -132.5 50t-48.5 151zM153 852l195 232h117l195 -232l-53 -53l-199 154l-199 -154zM275 210q0 -46 13.5 -75.5t45.5 -29.5q34 0 65 8t62 20q-1 4 -2 22.5t-2.5 47 t-2.5 64.5t-1 76q-75 0 -114 -8.5t-48 -20.5q-4 -5 -7 -17t-5 -27t-3 -31t-1 -29z" />
<glyph unicode="&#xe3;" horiz-adv-x="784" d="M60 188q0 54 14.5 93.5t46.5 66t83 40t125 15.5l123 4v99q0 40 -23 58.5t-77 18.5q-39 0 -90 -9t-106 -30l-28 71q37 16 77.5 31t82 27t84 19t85.5 7q47 0 84.5 -8.5t63 -28.5t39 -53t13.5 -82v-316q0 -110 56 -110q27 0 71 12v-46q-16 -15 -38 -29t-47 -24.5t-52 -16.5 t-53 -6q-28 0 -48 7.5t-34.5 20t-24.5 27.5t-17 30q-26 -17 -51 -33t-52.5 -28.5t-58 -20t-67.5 -7.5q-84 0 -132.5 50t-48.5 151zM154 819q7 39 19.5 71.5t31.5 56t43.5 37t54.5 13.5t60.5 -12t60 -26.5t55.5 -26.5t47 -12q22 0 36 7t23 18t14.5 24t8.5 24l61 -12 q-7 -39 -20 -72t-32 -56.5t-44 -37t-56 -13.5q-33 0 -63 12t-57.5 26.5t-53 26.5t-48.5 12q-22 0 -36 -6.5t-23 -16.5t-14 -23.5t-8 -26.5zM275 210q0 -46 13.5 -75.5t45.5 -29.5q34 0 65 8t62 20q-1 4 -2 22.5t-2.5 47t-2.5 64.5t-1 76q-75 0 -114 -8.5t-48 -20.5 q-4 -5 -7 -17t-5 -27t-3 -31t-1 -29z" />
<glyph unicode="&#xe4;" horiz-adv-x="784" d="M60 188q0 54 14.5 93.5t46.5 66t83 40t125 15.5l123 4v99q0 40 -23 58.5t-77 18.5q-39 0 -90 -9t-106 -30l-28 71q37 16 77.5 31t82 27t84 19t85.5 7q47 0 84.5 -8.5t63 -28.5t39 -53t13.5 -82v-316q0 -110 56 -110q27 0 71 12v-46q-16 -15 -38 -29t-47 -24.5t-52 -16.5 t-53 -6q-28 0 -48 7.5t-34.5 20t-24.5 27.5t-17 30q-26 -17 -51 -33t-52.5 -28.5t-58 -20t-67.5 -7.5q-84 0 -132.5 50t-48.5 151zM137 925l103 105l106 -105l-106 -105zM275 210q0 -46 13.5 -75.5t45.5 -29.5q34 0 65 8t62 20q-1 4 -2 22.5t-2.5 47t-2.5 64.5t-1 76 q-75 0 -114 -8.5t-48 -20.5q-4 -5 -7 -17t-5 -27t-3 -31t-1 -29zM459 925l104 105l105 -105l-105 -105z" />
<glyph unicode="&#xe5;" horiz-adv-x="784" d="M60 188q0 54 14.5 93.5t46.5 66t83 40t125 15.5l123 4v99q0 40 -23 58.5t-77 18.5q-39 0 -90 -9t-106 -30l-28 71q37 16 77.5 31t82 27t84 19t85.5 7q47 0 84.5 -8.5t63 -28.5t39 -53t13.5 -82v-316q0 -110 56 -110q27 0 71 12v-46q-16 -15 -38 -29t-47 -24.5t-52 -16.5 t-53 -6q-28 0 -48 7.5t-34.5 20t-24.5 27.5t-17 30q-26 -17 -51 -33t-52.5 -28.5t-58 -20t-67.5 -7.5q-84 0 -132.5 50t-48.5 151zM216 947q0 44 15.5 76t41 53t59.5 31.5t71 10.5t71.5 -10.5t60 -31.5t41 -53t15.5 -76t-15.5 -76t-41 -53t-60 -31t-71.5 -10t-71 10 t-59.5 31t-41 53t-15.5 76zM275 210q0 -46 13.5 -75.5t45.5 -29.5q34 0 65 8t62 20q-1 4 -2 22.5t-2.5 47t-2.5 64.5t-1 76q-75 0 -114 -8.5t-48 -20.5q-4 -5 -7 -17t-5 -27t-3 -31t-1 -29zM299 947q0 -25 9 -42.5t23.5 -28t33 -15t38.5 -4.5t39 4.5t34 15t24 28t9 42.5 t-9 42.5t-24 28t-34 15.5t-39 5t-38.5 -5t-33 -15.5t-23.5 -28t-9 -42.5z" />
<glyph unicode="&#xe6;" horiz-adv-x="1178" d="M60 188q0 54 14.5 93.5t46.5 66t83 40t125 15.5l123 4v99q0 40 -23 58.5t-77 18.5q-39 0 -90 -9t-106 -30l-28 71q37 16 77.5 31t82 27t84 19t85.5 7q51 0 90 -14t64 -43q38 29 89.5 43t107.5 14q52 0 100.5 -14t89 -47t70.5 -88t45 -137v-9q-10 -12 -26 -22t-41.5 -17.5 t-62.5 -13t-89 -9.5l-227 -16v-29q0 -40 11 -74t33 -58.5t55.5 -38.5t77.5 -14q36 0 75.5 7t75.5 17t65.5 20.5t45.5 18.5l17 -49q-33 -24 -73.5 -48.5t-87 -45t-98.5 -33t-107 -12.5q-79 0 -143 26.5t-106 88.5q-31 -22 -63.5 -43t-65.5 -37t-67.5 -25.5t-70.5 -9.5 q-84 0 -132.5 50t-48.5 151zM275 210q0 -46 13.5 -75.5t45.5 -29.5q16 0 35.5 3.5t40 9.5t40 13t35.5 14q-32 72 -32 179v19q-75 0 -114 -8.5t-48 -20.5q-4 -5 -7 -17t-5 -27t-3 -31t-1 -29zM669 410l226 10q-4 30 -11.5 62t-20.5 59t-33 44.5t-48 17.5q-19 0 -37.5 -4.5 t-33.5 -15.5q-9 -6 -16.5 -24.5t-13 -43t-9 -52.5t-3.5 -53z" />
<glyph unicode="&#xe7;" horiz-adv-x="707" d="M65 324q0 88 25 157.5t73.5 118t119.5 74t164 25.5q55 0 112 -7.5t104 -18.5l-35 -136q-38 19 -91.5 36.5t-115.5 17.5q-26 0 -51.5 -5t-44.5 -18q-21 -14 -33.5 -68.5t-12.5 -168.5q0 -64 9.5 -107.5t28 -70.5t46 -39t64.5 -12q57 0 119 12t113 32l18 -50 q-60 -47 -136.5 -78t-167.5 -31q-65 0 -121 18t-97.5 58t-65.5 104.5t-24 156.5zM246 -344l12 81q14 -4 36 -6t39 -2q41 0 57.5 17.5t16.5 40.5q0 22 -13.5 37.5t-33 25t-42.5 14.5t-42 7l71 129h95l-44 -78q62 -10 102 -39.5t40 -80.5q0 -72 -49.5 -115t-160.5 -43 q-20 0 -43.5 3t-40.5 9z" />
<glyph unicode="&#xe8;" horiz-adv-x="790" d="M65 324q0 103 27 175t75 116t113 64t140 20q52 0 100.5 -14t89 -47t70.5 -88t45 -137v-9q-10 -12 -26 -22t-41.5 -17.5t-62.5 -13t-89 -9.5l-227 -16v-29q0 -40 11 -74t33 -58.5t55.5 -38.5t77.5 -14q36 0 75.5 7t75.5 17t65.5 20.5t45.5 18.5l17 -49 q-33 -24 -73.5 -48.5t-87 -45t-98.5 -33t-107 -12.5q-65 0 -120.5 18t-96 58t-64 104.5t-23.5 156.5zM195 1015l105 102l223 -256l-66 -63zM281 410l226 10q-4 30 -11.5 62t-20.5 59t-33 44.5t-48 17.5q-19 0 -37.5 -4.5t-33.5 -15.5q-9 -6 -16.5 -24.5t-13 -43t-9 -52.5 t-3.5 -53z" />
<glyph unicode="&#xe9;" horiz-adv-x="790" d="M65 324q0 103 27 175t75 116t113 64t140 20q52 0 100.5 -14t89 -47t70.5 -88t45 -137v-9q-10 -12 -26 -22t-41.5 -17.5t-62.5 -13t-89 -9.5l-227 -16v-29q0 -40 11 -74t33 -58.5t55.5 -38.5t77.5 -14q36 0 75.5 7t75.5 17t65.5 20.5t45.5 18.5l17 -49 q-33 -24 -73.5 -48.5t-87 -45t-98.5 -33t-107 -12.5q-65 0 -120.5 18t-96 58t-64 104.5t-23.5 156.5zM266 861l223 256l105 -102l-262 -217zM281 410l226 10q-4 30 -11.5 62t-20.5 59t-33 44.5t-48 17.5q-19 0 -37.5 -4.5t-33.5 -15.5q-9 -6 -16.5 -24.5t-13 -43t-9 -52.5 t-3.5 -53z" />
<glyph unicode="&#xea;" horiz-adv-x="790" d="M65 324q0 103 27 175t75 116t113 64t140 20q52 0 100.5 -14t89 -47t70.5 -88t45 -137v-9q-10 -12 -26 -22t-41.5 -17.5t-62.5 -13t-89 -9.5l-227 -16v-29q0 -40 11 -74t33 -58.5t55.5 -38.5t77.5 -14q36 0 75.5 7t75.5 17t65.5 20.5t45.5 18.5l17 -49 q-33 -24 -73.5 -48.5t-87 -45t-98.5 -33t-107 -12.5q-65 0 -120.5 18t-96 58t-64 104.5t-23.5 156.5zM145 852l195 232h117l195 -232l-53 -53l-199 154l-199 -154zM281 410l226 10q-4 30 -11.5 62t-20.5 59t-33 44.5t-48 17.5q-19 0 -37.5 -4.5t-33.5 -15.5 q-9 -6 -16.5 -24.5t-13 -43t-9 -52.5t-3.5 -53z" />
<glyph unicode="&#xeb;" horiz-adv-x="790" d="M65 324q0 103 27 175t75 116t113 64t140 20q52 0 100.5 -14t89 -47t70.5 -88t45 -137v-9q-10 -12 -26 -22t-41.5 -17.5t-62.5 -13t-89 -9.5l-227 -16v-29q0 -40 11 -74t33 -58.5t55.5 -38.5t77.5 -14q36 0 75.5 7t75.5 17t65.5 20.5t45.5 18.5l17 -49 q-33 -24 -73.5 -48.5t-87 -45t-98.5 -33t-107 -12.5q-65 0 -120.5 18t-96 58t-64 104.5t-23.5 156.5zM139 925l103 105l106 -105l-106 -105zM281 410l226 10q-4 30 -11.5 62t-20.5 59t-33 44.5t-48 17.5q-19 0 -37.5 -4.5t-33.5 -15.5q-9 -6 -16.5 -24.5t-13 -43t-9 -52.5 t-3.5 -53zM461 925l104 105l105 -105l-105 -105z" />
<glyph unicode="&#xec;" horiz-adv-x="435" d="M15 1015l105 102l223 -256l-66 -63zM115 0v684h205v-684h-205z" />
<glyph unicode="&#xed;" horiz-adv-x="435" d="M92 861l223 256l105 -102l-262 -217zM115 0v684h205v-684h-205z" />
<glyph unicode="&#xee;" horiz-adv-x="435" d="M-34 852l195 232h117l195 -232l-53 -53l-199 154l-199 -154zM115 0v684h205v-684h-205z" />
<glyph unicode="&#xef;" horiz-adv-x="435" d="M-48 925l103 105l106 -105l-106 -105zM115 0v684h205v-684h-205zM274 925l104 105l105 -105l-105 -105z" />
<glyph unicode="&#xf0;" horiz-adv-x="821" d="M49 322q0 78 21 140.5t63 106t104 67t143 23.5q83 0 150 -25q-7 33 -16 64t-22 61.5t-31 61.5t-44 65l-195 -99l-43 83l180 90q-14 15 -26 27.5t-25.5 24.5t-29.5 25.5t-36 29.5l66 64q45 -30 81 -57t73 -59l199 98l43 -80l-173 -87q53 -56 97 -120.5t76 -139t50 -160 t18 -183.5v-19q0 -78 -23 -140.5t-68.5 -106t-113 -67t-156.5 -23.5q-176 0 -269 85t-93 250zM262 323q0 -64 8 -109.5t26 -75t46 -43t68 -13.5q32 0 58 5t45 17q13 9 22.5 30t14.5 50.5t7.5 65t2.5 72.5q0 125 -35 183t-112 58q-32 0 -58 -5.5t-46 -17.5 q-28 -17 -37.5 -74.5t-9.5 -142.5z" />
<glyph unicode="&#xf1;" horiz-adv-x="889" d="M115 0v684h183l19 -80h2q21 13 51 29.5t65 31t72.5 24.5t73.5 10q41 0 77 -12.5t63 -38t42.5 -63t15.5 -88.5v-497h-205v459q0 61 -20.5 90t-69.5 29q-18 0 -39 -4.5t-43 -13t-43.5 -19t-38.5 -22.5v-519h-205zM196 819q7 39 19.5 71.5t31.5 56t43.5 37t54.5 13.5 t60.5 -12t60 -26.5t55.5 -26.5t47 -12q22 0 36 7t23 18t14.5 24t8.5 24l61 -12q-7 -39 -20 -72t-32 -56.5t-44 -37t-56 -13.5q-33 0 -63 12t-57.5 26.5t-53 26.5t-48.5 12q-22 0 -36 -6.5t-23 -16.5t-14 -23.5t-8 -26.5z" />
<glyph unicode="&#xf2;" horiz-adv-x="853" d="M65 342q0 82 23 148.5t68.5 112.5t113.5 71t157 25t156.5 -23.5t113 -69t68.5 -111.5t23 -151q0 -83 -23 -149t-68.5 -112.5t-113 -71t-156.5 -24.5q-176 0 -269 90.5t-93 264.5zM236 1015l105 102l223 -256l-66 -63zM278 343q0 -134 34 -197.5t113 -63.5q31 0 58 5 t45 15q11 6 20 27.5t15 53.5t9.5 73t3.5 86q0 131 -35 196t-112 65q-29 0 -57 -5.5t-50 -17.5q-12 -6 -20 -27.5t-13.5 -53.5t-8 -72.5t-2.5 -83.5z" />
<glyph unicode="&#xf3;" horiz-adv-x="853" d="M65 342q0 82 23 148.5t68.5 112.5t113.5 71t157 25t156.5 -23.5t113 -69t68.5 -111.5t23 -151q0 -83 -23 -149t-68.5 -112.5t-113 -71t-156.5 -24.5q-176 0 -269 90.5t-93 264.5zM278 343q0 -134 34 -197.5t113 -63.5q31 0 58 5t45 15q11 6 20 27.5t15 53.5t9.5 73 t3.5 86q0 131 -35 196t-112 65q-29 0 -57 -5.5t-50 -17.5q-12 -6 -20 -27.5t-13.5 -53.5t-8 -72.5t-2.5 -83.5zM288 861l223 256l105 -102l-262 -217z" />
<glyph unicode="&#xf4;" horiz-adv-x="853" d="M65 342q0 82 23 148.5t68.5 112.5t113.5 71t157 25t156.5 -23.5t113 -69t68.5 -111.5t23 -151q0 -83 -23 -149t-68.5 -112.5t-113 -71t-156.5 -24.5q-176 0 -269 90.5t-93 264.5zM170 852l195 232h117l195 -232l-53 -53l-199 154l-199 -154zM278 343q0 -134 34 -197.5 t113 -63.5q31 0 58 5t45 15q11 6 20 27.5t15 53.5t9.5 73t3.5 86q0 131 -35 196t-112 65q-29 0 -57 -5.5t-50 -17.5q-12 -6 -20 -27.5t-13.5 -53.5t-8 -72.5t-2.5 -83.5z" />
<glyph unicode="&#xf5;" horiz-adv-x="853" d="M65 342q0 82 23 148.5t68.5 112.5t113.5 71t157 25t156.5 -23.5t113 -69t68.5 -111.5t23 -151q0 -83 -23 -149t-68.5 -112.5t-113 -71t-156.5 -24.5q-176 0 -269 90.5t-93 264.5zM171 819q7 39 19.5 71.5t31.5 56t43.5 37t54.5 13.5t60.5 -12t60 -26.5t55.5 -26.5t47 -12 q22 0 36 7t23 18t14.5 24t8.5 24l61 -12q-7 -39 -20 -72t-32 -56.5t-44 -37t-56 -13.5q-33 0 -63 12t-57.5 26.5t-53 26.5t-48.5 12q-22 0 -36 -6.5t-23 -16.5t-14 -23.5t-8 -26.5zM278 343q0 -134 34 -197.5t113 -63.5q31 0 58 5t45 15q11 6 20 27.5t15 53.5t9.5 73t3.5 86 q0 131 -35 196t-112 65q-29 0 -57 -5.5t-50 -17.5q-12 -6 -20 -27.5t-13.5 -53.5t-8 -72.5t-2.5 -83.5z" />
<glyph unicode="&#xf6;" horiz-adv-x="853" d="M65 342q0 82 23 148.5t68.5 112.5t113.5 71t157 25t156.5 -23.5t113 -69t68.5 -111.5t23 -151q0 -83 -23 -149t-68.5 -112.5t-113 -71t-156.5 -24.5q-176 0 -269 90.5t-93 264.5zM160 925l103 105l106 -105l-106 -105zM278 343q0 -134 34 -197.5t113 -63.5q31 0 58 5 t45 15q11 6 20 27.5t15 53.5t9.5 73t3.5 86q0 131 -35 196t-112 65q-29 0 -57 -5.5t-50 -17.5q-12 -6 -20 -27.5t-13.5 -53.5t-8 -72.5t-2.5 -83.5zM482 925l104 105l105 -105l-105 -105z" />
<glyph unicode="&#xf7;" horiz-adv-x="822" d="M50 424v107h722v-107h-722zM308 203l104 105l106 -105l-106 -105zM308 753l104 105l106 -105l-106 -105z" />
<glyph unicode="&#xf8;" horiz-adv-x="853" d="M65 342q0 82 23 148.5t68.5 112.5t113.5 71t157 25q118 0 201 -43l80 95l68 -56l-77 -92q89 -91 89 -259q0 -83 -23 -149t-68.5 -112.5t-113 -71t-156.5 -24.5q-125 0 -207 45l-82 -98l-68 57l80 95q-85 91 -85 256zM278 343q0 -28 1.5 -52t3.5 -46l252 301 q-36 57 -106 57q-29 0 -57 -5.5t-50 -17.5q-12 -6 -20 -27.5t-13.5 -53.5t-8 -72.5t-2.5 -83.5zM313 143q36 -61 112 -61q31 0 58 5t45 15q11 6 20 27.5t15 53.5t9.5 73t3.5 86q0 30 -2 56.5t-6 49.5z" />
<glyph unicode="&#xf9;" horiz-adv-x="889" d="M110 187v497h205v-459q0 -61 20.5 -90t69.5 -29q18 0 39 4.5t43 13t43.5 19t38.5 22.5v519h205v-684h-183l-19 80h-2q-21 -13 -51 -29.5t-65 -31t-72.5 -24.5t-73.5 -10q-41 0 -77 12.5t-63 38t-42.5 63t-15.5 88.5zM241 1015l105 102l223 -256l-66 -63z" />
<glyph unicode="&#xfa;" horiz-adv-x="889" d="M110 187v497h205v-459q0 -61 20.5 -90t69.5 -29q18 0 39 4.5t43 13t43.5 19t38.5 22.5v519h205v-684h-183l-19 80h-2q-21 -13 -51 -29.5t-65 -31t-72.5 -24.5t-73.5 -10q-41 0 -77 12.5t-63 38t-42.5 63t-15.5 88.5zM270 861l223 256l105 -102l-262 -217z" />
<glyph unicode="&#xfb;" horiz-adv-x="889" d="M110 187v497h205v-459q0 -61 20.5 -90t69.5 -29q18 0 39 4.5t43 13t43.5 19t38.5 22.5v519h205v-684h-183l-19 80h-2q-21 -13 -51 -29.5t-65 -31t-72.5 -24.5t-73.5 -10q-41 0 -77 12.5t-63 38t-42.5 63t-15.5 88.5zM187 852l195 232h117l195 -232l-53 -53l-199 154 l-199 -154z" />
<glyph unicode="&#xfc;" horiz-adv-x="889" d="M110 187v497h205v-459q0 -61 20.5 -90t69.5 -29q18 0 39 4.5t43 13t43.5 19t38.5 22.5v519h205v-684h-183l-19 80h-2q-21 -13 -51 -29.5t-65 -31t-72.5 -24.5t-73.5 -10q-41 0 -77 12.5t-63 38t-42.5 63t-15.5 88.5zM180 925l103 105l106 -105l-106 -105zM502 925 l104 105l105 -105l-105 -105z" />
<glyph unicode="&#xfd;" horiz-adv-x="759" d="M-126 -377h16q37 0 86 20t94 58q24 21 57 53.5t68 71t68.5 79.5t60.5 79q-42 121 -82.5 225t-76 183.5t-63 130.5t-43.5 66q-15 14 -31.5 18t-26.5 4h-5v65q13 3 33 5.5t42 5t43 4t36 1.5q29 0 54 -7.5t42 -24.5q21 -20 45.5 -65.5t51 -109.5t53.5 -142.5t53 -164.5h3 q34 53 56.5 101t35 94.5t17.5 93.5t5 99q0 14 -1.5 30.5t-4 31.5t-5.5 26.5t-5 17.5l159 27q5 -16 10 -46.5t5 -58.5q0 -73 -24.5 -148t-63.5 -149.5t-87 -148t-94 -143.5q-48 -72 -80.5 -120t-58 -84t-50 -66t-55.5 -67q-54 -65 -108 -95.5t-111 -30.5q-29 0 -63 4.5 t-55 11.5v65zM253 861l223 256l105 -102l-262 -217z" />
<glyph unicode="&#xfe;" horiz-adv-x="870" d="M115 -469v1591l205 40v-427q0 -18 -0.5 -37t-0.5 -35q-1 -18 -1 -37q21 15 43 28t46 23t51 16t59 6q56 0 108 -18t92 -58t64 -104.5t24 -156.5q0 -89 -26 -158.5t-74.5 -117.5t-118.5 -73.5t-157 -25.5q-29 0 -59 4t-52 9q0 -10 1 -34.5t1 -49.5v-353zM320 102 q46 -10 95 -10q39 0 72.5 7t50.5 22q9 9 18.5 28.5t17.5 49.5t13 69t5 86q0 114 -40 169t-105 55q-35 0 -66 -7t-61 -19v-450z" />
<glyph unicode="&#xff;" horiz-adv-x="759" d="M-126 -377h16q37 0 86 20t94 58q24 21 57 53.5t68 71t68.5 79.5t60.5 79q-42 121 -82.5 225t-76 183.5t-63 130.5t-43.5 66q-15 14 -31.5 18t-26.5 4h-5v65q13 3 33 5.5t42 5t43 4t36 1.5q29 0 54 -7.5t42 -24.5q21 -20 45.5 -65.5t51 -109.5t53.5 -142.5t53 -164.5h3 q34 53 56.5 101t35 94.5t17.5 93.5t5 99q0 14 -1.5 30.5t-4 31.5t-5.5 26.5t-5 17.5l159 27q5 -16 10 -46.5t5 -58.5q0 -73 -24.5 -148t-63.5 -149.5t-87 -148t-94 -143.5q-48 -72 -80.5 -120t-58 -84t-50 -66t-55.5 -67q-54 -65 -108 -95.5t-111 -30.5q-29 0 -63 4.5 t-55 11.5v65zM101 925l103 105l106 -105l-106 -105zM423 925l104 105l105 -105l-105 -105z" />
<glyph unicode="&#x152;" horiz-adv-x="1404" d="M90 516q0 120 29.5 216t90.5 163.5t155.5 103.5t225.5 36q42 0 77 -3t64 -8h592l-10 -104l-376 -5v-333l354 -4l-10 -95l-344 -8v-366l418 -8l-10 -101h-615q-29 -7 -64.5 -10.5t-77.5 -3.5q-132 0 -226 38t-155 107.5t-89.5 167t-28.5 217.5zM307 515q0 -92 14 -167 t46.5 -129t86.5 -83.5t135 -29.5q83 0 140 15v765q-59 30 -138 30q-68 0 -126.5 -14t-92.5 -40t-49.5 -112.5t-15.5 -234.5z" />
<glyph unicode="&#x153;" horiz-adv-x="1301" d="M65 342q0 82 23 148.5t68.5 112.5t113.5 71t157 25q83 0 146.5 -22.5t108.5 -65.5q49 45 110 66.5t139 21.5q52 0 100.5 -14t89 -47t70.5 -88t45 -137v-9q-10 -12 -26 -22t-41.5 -17.5t-62.5 -13t-89 -9.5l-227 -16v-29q0 -40 11 -74t33 -58.5t55.5 -38.5t77.5 -14 q36 0 75.5 7t75.5 17t65.5 20.5t45.5 18.5l17 -49q-33 -24 -73.5 -48.5t-87 -45t-98.5 -33t-107 -12.5q-128 0 -211 80q-45 -37 -105 -58.5t-137 -21.5q-176 0 -269 90.5t-93 264.5zM278 343q0 -134 34 -197.5t113 -63.5q31 0 58 5t45 15q11 6 20 27.5t15 53.5t9.5 73 t3.5 86q0 131 -35 196t-112 65q-29 0 -57 -5.5t-50 -17.5q-12 -6 -20 -27.5t-13.5 -53.5t-8 -72.5t-2.5 -83.5zM792 410l226 10q-4 30 -11.5 62t-20.5 59t-33 44.5t-48 17.5q-19 0 -37.5 -4.5t-33.5 -15.5q-9 -6 -16.5 -24.5t-13 -43t-9 -52.5t-3.5 -53z" />
<glyph unicode="&#x178;" horiz-adv-x="856" d="M-10 1024h238l252 -502l261 502h127l-335 -631v-393h-209v393zM185 1272l103 105l106 -105l-106 -105zM507 1272l104 105l105 -105l-105 -105z" />
<glyph unicode="&#x2c6;" horiz-adv-x="562" d="M26 852l195 232h117l195 -232l-53 -53l-199 154l-199 -154z" />
<glyph unicode="&#x2dc;" horiz-adv-x="581" d="M33 819q7 39 19.5 71.5t31.5 56t43.5 37t54.5 13.5t60.5 -12t60 -26.5t55.5 -26.5t47 -12q22 0 36 7t23 18t14.5 24t8.5 24l61 -12q-7 -39 -20 -72t-32 -56.5t-44 -37t-56 -13.5q-33 0 -63 12t-57.5 26.5t-53 26.5t-48.5 12q-22 0 -36 -6.5t-23 -16.5t-14 -23.5t-8 -26.5 z" />
<glyph unicode="&#x2000;" horiz-adv-x="720" />
<glyph unicode="&#x2001;" horiz-adv-x="1441" />
<glyph unicode="&#x2002;" horiz-adv-x="720" />
<glyph unicode="&#x2003;" horiz-adv-x="1441" />
<glyph unicode="&#x2004;" horiz-adv-x="480" />
<glyph unicode="&#x2005;" horiz-adv-x="360" />
<glyph unicode="&#x2006;" horiz-adv-x="240" />
<glyph unicode="&#x2007;" horiz-adv-x="240" />
<glyph unicode="&#x2008;" horiz-adv-x="180" />
<glyph unicode="&#x2009;" horiz-adv-x="288" />
<glyph unicode="&#x200a;" horiz-adv-x="80" />
<glyph unicode="&#x2010;" horiz-adv-x="488" d="M50 293l10 136h378l-10 -136h-378z" />
<glyph unicode="&#x2011;" horiz-adv-x="488" d="M50 293l10 136h378l-10 -136h-378z" />
<glyph unicode="&#x2012;" horiz-adv-x="488" d="M50 293l10 136h378l-10 -136h-378z" />
<glyph unicode="&#x2013;" horiz-adv-x="1038" d="M50 302l10 116h929l-10 -116h-929z" />
<glyph unicode="&#x2014;" horiz-adv-x="2048" d="M50 302l10 116h1939l-10 -116h-1939z" />
<glyph unicode="&#x2018;" horiz-adv-x="352" d="M45 802l209 338l83 -29l-114 -382z" />
<glyph unicode="&#x2019;" horiz-adv-x="352" d="M30 757l114 382l178 -73l-209 -338z" />
<glyph unicode="&#x201a;" horiz-adv-x="360" d="M14 -172l114 382l178 -73l-209 -338z" />
<glyph unicode="&#x201c;" horiz-adv-x="650" d="M45 802l209 338l83 -29l-114 -382zM343 802l209 338l83 -29l-114 -382z" />
<glyph unicode="&#x201d;" horiz-adv-x="650" d="M30 757l114 382l178 -73l-209 -338zM328 757l114 382l178 -73l-209 -338z" />
<glyph unicode="&#x201e;" horiz-adv-x="650" d="M30 -173l114 382l178 -73l-209 -338zM328 -173l114 382l178 -73l-209 -338z" />
<glyph unicode="&#x2022;" horiz-adv-x="598" d="M67 483q0 48 18 90.5t49.5 74t74 49.5t90.5 18t90.5 -18t74 -49.5t49.5 -74t18 -90.5t-18 -90.5t-49.5 -74t-74 -49.5t-90.5 -18t-90.5 18t-74 49.5t-49.5 74t-18 90.5z" />
<glyph unicode="&#x2026;" horiz-adv-x="1198" d="M62 114l137 137l138 -137l-138 -137zM462 114l137 137l138 -137l-138 -137zM861 114l137 137l138 -137l-138 -137z" />
<glyph unicode="&#x202f;" horiz-adv-x="288" />
<glyph unicode="&#x2039;" horiz-adv-x="446" d="M60 341l243 324l81 -64l-177 -225l189 -213l-110 -102z" />
<glyph unicode="&#x203a;" horiz-adv-x="446" d="M50 563l110 102l226 -280l-243 -324l-81 64l177 225z" />
<glyph unicode="&#x205f;" horiz-adv-x="360" />
<glyph unicode="&#x20ac;" horiz-adv-x="875" d="M45 342l10 95h64q-2 12 -2.5 28.5t-0.5 34.5v23t1 22h-72l10 97h72q17 109 61.5 185t105 122.5t131 67.5t141.5 21q34 0 71 -2t71 -5.5t62.5 -7.5t46.5 -8l-31 -153q-19 7 -49 15t-63 14.5t-65.5 10.5t-55.5 4q-50 0 -87.5 -8t-63.5 -28q-29 -23 -44 -83.5t-20 -144.5 h253l-9 -97h-248v-46v-29t2 -31h255l-9 -97h-234q18 -121 71 -182t147 -61q68 0 142.5 13t134.5 35v-90q-36 -17 -77 -30t-84.5 -22t-87 -14t-84.5 -5q-86 0 -151 24.5t-111 71t-75 112t-42 148.5h-86z" />
<glyph unicode="&#x2122;" horiz-adv-x="1213" d="M19 967l5 57h435l-5 -55l-163 -4v-453h-104v453zM471 510l53 514h81l207 -401l191 401h90l57 -514h-104l-41 380l-181 -380h-67l-191 372l-29 -372h-66z" />
<glyph unicode="&#x25fc;" horiz-adv-x="690" d="M0 0v690h690v-690h-690z" />
<glyph unicode="&#xfb01;" horiz-adv-x="931" d="M10 591l10 56q21 7 41 13q17 5 34.5 10t28.5 7v124q0 64 28.5 125.5t84.5 109.5t138.5 77.5t190.5 29.5q25 0 57 -1t65 -3t64 -5t52 -7l-28 -139q-26 7 -62.5 15t-76 15t-77.5 11t-67 4q-28 0 -59.5 -3t-57.5 -15q-13 -7 -22 -29t-15 -53.5t-8.5 -69.5t-2.5 -76v-103h488 v-684h-205v601q-33 -1 -74.5 -2.5t-81.5 -3t-74 -3t-52 -2.5v-590h-205v590h-67q-22 0 -47 1z" />
<glyph unicode="&#xfb02;" horiz-adv-x="926" d="M10 591l10 56q21 7 41 13q17 5 34.5 10t28.5 7v124q0 64 28.5 125.5t84.5 109.5t138.5 77.5t190.5 29.5q25 0 58.5 -1t68.5 -2.5t67.5 -3t55.5 -3.5v-1133h-205v1024q-10 1 -28 2.5t-38 3t-39 2.5t-29 1q-18 0 -47.5 -3.5t-53.5 -14.5q-13 -7 -22 -29t-15 -53.5 t-8.5 -69.5t-2.5 -76v-103h181l-11 -80l-58 -6q-25 -2 -54 -4t-55 -4h-2v-590h-205v590h-67q-22 0 -47 1z" />
<glyph unicode="&#xfb03;" horiz-adv-x="1392" d="M10 591l10 56q21 7 41 13q17 5 34.5 10t28.5 7v104q0 64 30 125.5t78 109.5t108.5 77.5t122.5 29.5q26 0 58.5 -2.5t56.5 -6.5l-35 -119q-26 6 -59 12t-61 6q-18 0 -38.5 -3t-32.5 -15q-6 -7 -10.5 -29t-7.5 -53.5t-4 -69.5t-1 -76v-83h256v117q0 64 28.5 125.5 t84.5 109.5t138.5 77.5t190.5 29.5q25 0 57 -1t65 -3t64 -5t52 -7l-28 -139q-26 7 -62.5 15t-76 15t-77.5 11t-67 4q-28 0 -59.5 -3t-57.5 -15q-13 -7 -22 -29t-15 -53.5t-8.5 -69.5t-2.5 -76v-103h488v-684h-205v601q-33 -1 -74.5 -2.5t-81.5 -3t-74 -3t-52 -2.5v-590h-205 v590h-256v-590h-205v590h-67q-22 0 -47 1z" />
<glyph unicode="&#xfb04;" horiz-adv-x="1436" d="M10 591l10 56q21 7 41 13q17 5 34.5 10t28.5 7v104q0 64 30 125.5t78 109.5t108.5 77.5t122.5 29.5q26 0 58.5 -2.5t56.5 -6.5l-35 -119q-26 6 -59 12t-61 6q-18 0 -38.5 -3t-32.5 -15q-6 -7 -10.5 -29t-7.5 -53.5t-4 -69.5t-1 -76v-83h305v117q0 64 28.5 125.5 t84.5 109.5t138.5 77.5t190.5 29.5q25 0 58.5 -1t68.5 -2.5t67.5 -3t55.5 -3.5v-1133h-205v1024q-10 1 -28 2.5t-38 3t-39 2.5t-29 1q-18 0 -47.5 -3.5t-53.5 -14.5q-13 -7 -22 -29t-15 -53.5t-8.5 -69.5t-2.5 -76v-103h181l-11 -80l-58 -6q-25 -2 -54 -4t-55 -4h-2v-590 h-205v590h-305v-590h-205v590h-67q-22 0 -47 1z" />
</font>
</defs>
</svg>
