<?xml version="1.0" standalone="no"?>
<!DOCTYPE svg PUBLIC "-//W3C//DTD SVG 1.1//EN" "http://www.w3.org/Graphics/SVG/1.1/DTD/svg11.dtd" >
<svg xmlns="http://www.w3.org/2000/svg">
<metadata></metadata>
<defs>
<font id="sakkal_majallaregular" horiz-adv-x="821" >
<font-face units-per-em="2048" ascent="1395" descent="-653" />
<missing-glyph horiz-adv-x="310" />
<glyph horiz-adv-x="0" />
<glyph unicode="&#xd;" horiz-adv-x="413" />
<glyph unicode=" "  horiz-adv-x="310" />
<glyph unicode="&#x09;" horiz-adv-x="310" />
<glyph unicode="&#xa0;" horiz-adv-x="310" />
<glyph unicode="!" horiz-adv-x="375" d="M82 74l105 105l106 -105l-106 -105zM112 1023h146l-34 -747h-78z" />
<glyph unicode="&#x22;" horiz-adv-x="530" d="M82 1137h126l-26 -332h-74zM322 1137h126l-26 -332h-74z" />
<glyph unicode="#" horiz-adv-x="918" d="M60 295l15 85h196l54 259h-206l17 86h205l63 298h70l-63 -298h183l65 298h67l-63 -298h195l-18 -86h-192l-56 -259h205l-17 -85h-203l-66 -295h-70l64 295h-182l-62 -295h-69l62 295h-194zM339 380h184l56 259h-184z" />
<glyph unicode="$" horiz-adv-x="746" d="M58 52l56 121q19 -16 46.5 -33t59.5 -31t66.5 -23.5t68.5 -10.5v395q-48 20 -95 43.5t-84.5 58t-60.5 84.5t-23 122q0 42 17.5 85t51.5 79.5t82.5 63t111.5 35.5v98h59v-93h3q62 0 116 -7t108 -18l-31 -121q-47 17 -97.5 29.5t-98.5 17.5v-338q49 -22 98 -47t88 -62 t63.5 -88.5t24.5 -126.5q0 -51 -18 -99.5t-53 -88t-86 -67.5t-117 -38v-114h-59v109q-4 0 -7.5 -0.5t-6.5 -0.5q-87 0 -155 16t-128 50zM208 804q0 -32 11.5 -56.5t31.5 -44.5t46.5 -36t57.5 -31v313q-37 -2 -64.5 -7.5t-41.5 -16.5q-9 -7 -16.5 -16t-13 -23t-8.5 -34 t-3 -48zM414 77q33 3 57.5 10.5t44.5 18.5q12 7 22 18t17.5 29.5t11.5 45.5t4 65q0 36 -12.5 63.5t-34 48.5t-50 37.5t-60.5 31.5v-368z" />
<glyph unicode="%" horiz-adv-x="1225" d="M41 757q0 124 63 196t186 72t185.5 -69t62.5 -197q0 -125 -62.5 -196.5t-185.5 -71.5q-121 0 -185 67.5t-64 198.5zM158 758q0 -56 6.5 -95.5t21 -64.5t39 -36.5t60.5 -11.5h2q25 0 47 5t42 19q12 9 21 27t14 43t7.5 54t2.5 59q0 109 -28.5 158.5t-100.5 49.5 q-25 0 -47 -5t-42 -19q-12 -9 -21 -27t-14 -43t-7.5 -54t-2.5 -59zM283 0l582 1060l70 -36l-583 -1060zM687 266q0 124 63 196t186 72t185.5 -69t62.5 -197q0 -125 -62.5 -196.5t-185.5 -71.5q-121 0 -185 67.5t-64 198.5zM804 267q0 -56 6.5 -95.5t21 -64.5t39 -36.5 t60.5 -11.5h2q25 0 47 5t42 19q12 9 21 27t14 43t7.5 54t2.5 59q0 109 -28.5 158.5t-100.5 49.5q-25 0 -47 -5t-42 -19q-12 -9 -21 -27t-14 -43t-7.5 -54t-2.5 -59z" />
<glyph unicode="&#x26;" horiz-adv-x="1045" d="M61 265q0 102 52.5 174t159.5 129q-40 54 -61 107t-21 118q0 51 18.5 94t52 74.5t80 49.5t102.5 18q64 0 109 -15t73.5 -40.5t41.5 -59t13 -70.5q0 -46 -18.5 -83.5t-51.5 -70.5t-78.5 -62.5t-99.5 -57.5q28 -36 62 -76t71 -81.5t76 -83t79 -79.5q45 55 63.5 125 t18.5 136q0 17 -3 37.5t-7 32.5l116 25q5 -14 8 -36t3 -42q0 -85 -39 -167.5t-110 -157.5q75 -66 143 -108.5t121 -42.5h10v-45q-22 -8 -56 -13t-69 -5q-57 0 -119.5 34t-127.5 90q-78 -59 -160.5 -90.5t-167.5 -31.5q-71 0 -124 22t-88.5 59.5t-53.5 87t-18 105.5zM205 292 q0 -48 14.5 -86t40 -64t60.5 -39.5t77 -13.5q65 0 119.5 18t104.5 53q-41 39 -81.5 83t-78.5 88.5t-73 88.5t-66 84q-34 -24 -56.5 -47.5t-36 -49t-19 -54t-5.5 -61.5zM306 815q0 -46 18 -86t52 -85q3 -5 6.5 -9t6.5 -9q54 28 90 52t57.5 48t31 51.5t9.5 63.5q0 60 -35 93 t-93 33q-25 0 -50.5 -8t-46 -26t-33.5 -47t-13 -71z" />
<glyph unicode="'" horiz-adv-x="290" d="M82 1137h126l-26 -332h-74z" />
<glyph unicode="(" horiz-adv-x="494" d="M111 438q0 104 16.5 205.5t53.5 198.5t94.5 187.5t140.5 171.5l60 -53q-126 -153 -187 -329.5t-61 -379.5q0 -402 249 -700l-68 -54q-80 84 -136.5 173t-92.5 183.5t-52.5 193.5t-16.5 203z" />
<glyph unicode=")" horiz-adv-x="494" d="M19 -261q249 298 249 700q0 203 -61 379.5t-187 329.5l60 53q82 -81 140 -171.5t95 -187.5t53.5 -198.5t16.5 -205.5t-16.5 -203t-52.5 -193.5t-92.5 -183.5t-136.5 -173z" />
<glyph unicode="*" horiz-adv-x="683" d="M58 693l229 139l-228 109l50 87l207 -144l-28 253h110l-28 -253l207 144l50 -87l-228 -109l229 -139l-57 -83l-201 163l28 -254h-110l28 254l-201 -163z" />
<glyph unicode="+" horiz-adv-x="822" d="M50 439v77h323v338h76v-338h323v-77h-323v-337h-76v337h-323z" />
<glyph unicode="," horiz-adv-x="310" d="M30 -162l121 346l119 -47l-181 -321z" />
<glyph unicode="-" horiz-adv-x="488" d="M50 307l10 106h378l-10 -106h-378z" />
<glyph unicode="." horiz-adv-x="335" d="M72 74l95 95l96 -95l-96 -95z" />
<glyph unicode="/" horiz-adv-x="608" d="M-14 -190l564 1377l72 -31l-567 -1375z" />
<glyph unicode="0" horiz-adv-x="830" d="M60 511q0 121 19 218.5t61 165.5t109.5 104.5t165.5 36.5q97 0 164.5 -34.5t110 -101.5t61.5 -164t19 -222q0 -122 -19 -219.5t-61.5 -165.5t-110 -104.5t-164.5 -36.5q-96 0 -163 34t-110 100t-62.5 163.5t-19.5 225.5zM200 512q0 -110 11 -194t35.5 -142t65.5 -87.5 t101 -29.5q42 0 78 9t71 34q21 15 34.5 49.5t20.5 87t9.5 121t2.5 151.5q0 107 -11.5 191.5t-36.5 143t-65.5 89t-97.5 30.5q-42 0 -80 -10.5t-70 -33.5q-22 -15 -35 -48.5t-20.5 -85t-10 -120.5t-2.5 -155z" />
<glyph unicode="1" horiz-adv-x="830" d="M100 756l381 268h88v-1024h-139v908l-286 -213z" />
<glyph unicode="2" horiz-adv-x="830" d="M93 0v50l311 370q62 72 101.5 155.5t39.5 169.5q0 48 -15 82.5t-41 57t-62.5 33t-79.5 10.5q-56 0 -119 -11t-119 -31l22 116q21 7 50 13.5t60.5 11t62.5 7t57 2.5q73 0 132.5 -15.5t101.5 -47t65 -79t23 -111.5q0 -54 -16 -102t-44 -95t-66 -94t-81 -99l-233 -280 q26 0 62.5 0.5t78.5 1t86.5 1t87.5 1.5q100 2 210 5l-35 -122h-640z" />
<glyph unicode="3" horiz-adv-x="830" d="M58 52l47 126q20 -17 50.5 -35t66.5 -33t74 -25t73 -10q92 0 142 32q14 9 27 21t23 33t16 52.5t6 79.5q0 76 -26 121.5t-65.5 69.5t-88 31t-93.5 7v54q120 8 177 60.5t57 139.5q0 77 -52 114.5t-138 37.5q-56 0 -111 -9t-111 -29l24 119q43 14 97 20.5t105 6.5 q73 0 133 -14t102.5 -44t65.5 -76.5t23 -110.5q0 -52 -20.5 -91.5t-50.5 -68t-62.5 -45.5t-56.5 -24v-3q40 -6 81.5 -22.5t75.5 -45t55 -70t21 -98.5q0 -66 -30.5 -127t-80.5 -107.5t-115.5 -74.5t-134.5 -28q-91 0 -168.5 16t-137.5 50z" />
<glyph unicode="4" horiz-adv-x="830" d="M54 292v103l449 634h135v-628h161l-26 -103l-135 -5v-293h-139v288h-47t-63.5 0.5t-73 1t-75.5 0.5q-87 1 -186 2zM142 401h357v504z" />
<glyph unicode="5" horiz-adv-x="830" d="M80 46l56 121q20 -17 47.5 -33t59 -29.5t66.5 -21.5t70 -8q27 0 47.5 2t37 5.5t30 9t26.5 12.5q12 7 27 18t28.5 32t23 55t9.5 87q0 59 -29 105.5t-82 78.5t-127 48.5t-163 16.5h-64l23 478q26 0 62 0.5t77 1t84.5 1t84.5 1.5q97 2 203 5l-25 -121h-424l-13 -261 q5 1 18.5 1h23.5q127 0 216.5 -28t146.5 -73t83 -100.5t26 -110.5q0 -60 -26.5 -123t-75 -114t-115.5 -83.5t-148 -32.5q-80 0 -152 13t-132 47z" />
<glyph unicode="6" horiz-adv-x="830" d="M80 498q0 147 26.5 249.5t76.5 166t122 92.5t164 29q62 0 116 -7t108 -18l-31 -121q-57 20 -121 34.5t-129 14.5q-83 0 -115 -26q-35 -28 -56.5 -116.5t-21.5 -233.5q41 35 104 60t138 25q70 0 126 -19t95.5 -57.5t61 -97.5t21.5 -138q0 -77 -22.5 -140.5t-64.5 -109.5 t-102.5 -71t-136.5 -25q-89 0 -156.5 34.5t-112.5 100t-67.5 160t-22.5 214.5zM219 507q0 -84 8.5 -164.5t32 -143.5t65.5 -101.5t110 -38.5q45 0 76 10t53 27q23 19 42 75t19 160q0 120 -49.5 171.5t-145.5 51.5q-61 0 -115.5 -12.5t-95.5 -34.5z" />
<glyph unicode="7" horiz-adv-x="830" d="M77 903l25 121h649v-67l-471 -957h-94l462 912q-27 0 -65.5 -0.5t-83.5 -1.5t-93.5 -1.5t-95.5 -1.5q-110 -2 -233 -4z" />
<glyph unicode="8" horiz-adv-x="830" d="M83 272q0 45 14.5 85.5t39 73.5t58 57.5t71.5 37.5q-32 12 -61.5 34.5t-51.5 53t-35 68t-13 80.5q0 126 76.5 199t225.5 73t225 -70.5t76 -199.5q0 -41 -12.5 -77.5t-34 -67t-49.5 -53t-59 -35.5q40 -12 75 -36t61.5 -57.5t41.5 -75t15 -88.5q0 -134 -84 -210.5 t-247 -76.5q-161 0 -246.5 72.5t-85.5 212.5zM226 273q0 -112 43 -165t144 -53q41 0 71 6t60 23q35 19 47 71t12 117q0 110 -44.5 165.5t-141.5 55.5q-40 0 -71.5 -6.5t-59.5 -20.5q-17 -9 -28 -29t-18.5 -46.5t-10.5 -57t-3 -60.5zM248 763q0 -104 36.5 -155t120.5 -51 q35 0 60 6t50 21q15 9 24.5 26.5t15.5 41t8 52t2 58.5q0 103 -37.5 153t-118.5 50q-34 0 -60.5 -5.5t-50.5 -19.5q-14 -8 -23.5 -26t-15.5 -42.5t-8.5 -52.5t-2.5 -56z" />
<glyph unicode="9" horiz-adv-x="830" d="M65 689q0 77 23.5 140.5t68 109.5t107.5 71t141 25q89 0 154 -34.5t107.5 -100t63 -160t20.5 -214.5q0 -138 -31.5 -239.5t-87.5 -167.5t-133.5 -98t-169.5 -32q-62 0 -116 7t-108 18l31 121q57 -20 114 -34.5t122 -14.5q42 0 74.5 7.5t49.5 18.5q20 13 41 40t37.5 70 t27 102.5t10.5 137.5q-41 -35 -104 -60t-138 -25q-70 0 -126 19t-95.5 57.5t-61 97t-21.5 138.5zM205 699q0 -120 49.5 -174.5t145.5 -54.5q61 0 115.5 12.5t95.5 34.5q0 84 -6 164.5t-27 143.5t-61 101.5t-108 38.5q-45 0 -78 -10t-55 -27q-12 -10 -24.5 -27.5t-23 -45 t-17 -66t-6.5 -90.5z" />
<glyph unicode=":" horiz-adv-x="335" d="M62 74l105 105l106 -105l-106 -105zM62 600l105 105l106 -105l-106 -105z" />
<glyph unicode=";" horiz-adv-x="335" d="M30 -162l121 346l119 -47l-181 -321zM72 600l95 95l96 -95l-96 -95z" />
<glyph unicode="&#x3c;" horiz-adv-x="703" d="M50 455v42l590 359l35 -65l-518 -311v-3l518 -280l-35 -67z" />
<glyph unicode="=" horiz-adv-x="822" d="M50 239v77h722v-77h-722zM50 629v77h722v-77h-722z" />
<glyph unicode="&#x3e;" horiz-adv-x="703" d="M29 197l518 280v3l-518 311l35 65l590 -359v-42l-590 -325z" />
<glyph unicode="?" horiz-adv-x="613" d="M50 894l25 120q39 10 82.5 16t91.5 6q73 0 131.5 -15t99 -45.5t62 -77.5t21.5 -111q0 -53 -12.5 -92t-36.5 -69.5t-58 -55t-77 -46.5q-33 -17 -57.5 -31.5t-40.5 -29.5t-23.5 -32.5t-7.5 -39.5q0 -24 6 -45t17 -45l-50 -20q-16 24 -32 58.5t-16 69.5q0 30 9 52.5 t23.5 39.5t33.5 30.5t40 25.5q39 24 68 45t47.5 46t27.5 55.5t9 72.5q0 78 -53.5 115t-144.5 37q-45 0 -91 -8t-94 -26zM148 74l105 105l106 -105l-106 -105z" />
<glyph unicode="@" horiz-adv-x="1399" d="M100 317q0 166 51.5 294.5t142.5 224.5q45 48 102 85t121.5 62.5t134.5 38.5t141 13q125 0 220 -30t158.5 -85.5t95.5 -135.5t32 -179q0 -64 -12 -118t-32.5 -99.5t-48 -83.5t-58.5 -70q-41 -43 -88.5 -73.5t-94.5 -50t-91 -28.5t-79 -9q-17 0 -33 8t-16 30q0 20 2 45 t4 45q-19 -19 -45 -41.5t-56 -41.5t-62.5 -31.5t-65.5 -12.5q-53 0 -82 39.5t-29 105.5q0 59 11 117.5t32.5 111t53 97.5t72.5 78q34 28 66 45.5t65.5 27.5t70.5 14t82 4q29 0 47 -1t41 -4l-83 -381q-9 -42 -12.5 -73t-3.5 -50t8.5 -32.5t44.5 -13.5q42 0 92.5 30t93.5 81 q20 23 39 54t33.5 71t23.5 89.5t9 109.5q0 91 -29 161t-82.5 118t-129 72.5t-169.5 24.5q-62 0 -122 -13t-115.5 -39t-104.5 -65.5t-89 -91.5q-64 -84 -101 -199.5t-37 -252.5q0 -97 26 -182t80.5 -148.5t138.5 -100.5t200 -37q67 0 121.5 10t100 27.5t83.5 40t73 46.5 l28 -41q-39 -30 -83.5 -56.5t-96 -46.5t-113 -32t-135.5 -12q-130 0 -231 42t-170 115.5t-105 171.5t-36 211zM510 278q0 -100 58 -100q29 0 56.5 7t51.5 17.5t45 24t37 27.5l81 382q-7 0 -13 1q-5 0 -11 0.5t-10 0.5q-21 0 -46 -2t-50.5 -8t-50 -17t-44.5 -29 q-21 -19 -39.5 -50.5t-33 -71.5t-23 -86.5t-8.5 -95.5z" />
<glyph unicode="A" horiz-adv-x="916" d="M5 0l406 1015l120 35l380 -1050h-144l-128 375l-394 -5l-138 -370h-102zM270 442h348l-170 478z" />
<glyph unicode="B" horiz-adv-x="862" d="M128 4v1013q60 7 127.5 10t134.5 3q82 0 147 -14t111 -43t70.5 -75.5t24.5 -110.5q0 -52 -16.5 -92t-44 -69t-63 -47.5t-72.5 -27.5v-3q62 -13 108 -38.5t76 -60.5t45 -79t15 -93q0 -68 -20.5 -121t-64 -90.5t-112.5 -57t-165 -19.5q-32 0 -71 1t-79.5 3t-79.5 5t-71 6z M267 73q22 -2 58.5 -5.5t80.5 -3.5q22 0 46 1.5t46.5 5t41.5 8.5t31 12q13 7 26 19t24 34t18 55t7 82q0 61 -20.5 104t-55 70t-80.5 39t-97 12h-126v-433zM267 579h133q41 0 74.5 7.5t56.5 19.5q11 6 23 17.5t22 31t16.5 48t6.5 68.5q0 50 -15.5 85t-44 57.5t-69.5 33 t-92 10.5q-23 0 -39 -0.5t-28.5 -1.5t-22.5 -2t-21 -2v-372z" />
<glyph unicode="C" horiz-adv-x="903" d="M95 515q0 146 42 245.5t109.5 161t151.5 88t168 26.5q31 0 69 -2t74 -5t67.5 -6.5t49.5 -7.5l-37 -122q-20 6 -56 14t-77.5 14.5t-81.5 11t-67 4.5q-60 0 -103 -9.5t-80 -38.5q-45 -35 -63 -132t-18 -242q0 -221 64.5 -335.5t207.5 -114.5q40 0 83 3t85.5 9t83.5 15 t77 21v-53q-37 -18 -79.5 -31.5t-87 -23t-89.5 -14.5t-87 -5q-111 0 -188 38t-125.5 107t-70.5 166.5t-22 217.5z" />
<glyph unicode="D" horiz-adv-x="1094" d="M128 8v1008q33 4 76 7.5t89.5 6t94.5 4t93 1.5q117 0 212.5 -29.5t163.5 -89.5t105 -151t37 -213q0 -123 -34 -226.5t-102 -177.5t-169 -115.5t-235 -41.5q-89 0 -177 5t-154 12zM267 75q31 -5 69.5 -8.5t87.5 -3.5h11q90 -1 163 15q77 16 126 52q24 17 47.5 46.5 t41.5 77.5t29.5 117t11.5 165q0 119 -35 200.5t-93 131.5t-134 71.5t-157 21.5q-35 0 -58.5 -1t-41.5 -2.5t-33.5 -3.5t-34.5 -4v-875z" />
<glyph unicode="E" horiz-adv-x="743" d="M128 0v1024h525l-10 -74l-376 -5v-363l354 -4l-10 -65l-344 -8v-426l418 -8l-10 -71h-547z" />
<glyph unicode="F" horiz-adv-x="728" d="M128 0v1024h535l-9 -73l-387 -5v-414l374 -4l-10 -65l-364 -8v-455h-139z" />
<glyph unicode="G" horiz-adv-x="1020" d="M95 520q0 120 30.5 215.5t92 162.5t154.5 102.5t218 35.5q31 0 69.5 -2.5t76 -6.5t71 -9t55.5 -9l-36 -119q-26 8 -65.5 16.5t-83 15t-87 11t-77.5 4.5q-56 0 -105.5 -9t-91.5 -43q-23 -18 -37 -57t-22 -89t-11 -107t-3 -112q0 -101 14 -184.5t45 -143.5t80.5 -93 t121.5 -33q34 0 72 2.5t74.5 6.5t69 9t55.5 10v331l-228 12l11 53h352v-418q-32 -15 -79 -30t-102 -27.5t-114 -20.5t-114 -8q-111 0 -188 38.5t-125.5 109t-70.5 168.5t-22 218z" />
<glyph unicode="H" horiz-adv-x="1097" d="M128 0v1024h139v-473h563v473h139v-1024h-139v476h-563v-476h-139z" />
<glyph unicode="I" horiz-adv-x="391" d="M128 0v1024h139v-1024h-139z" />
<glyph unicode="J" horiz-adv-x="391" d="M18 -260q34 23 55.5 53.5t33.5 66.5t16.5 75.5t4.5 81.5v1007h139v-1024q0 -114 -56.5 -187t-163.5 -120z" />
<glyph unicode="K" horiz-adv-x="963" d="M128 0v1024h139v-490q19 23 45 54t55.5 65.5t60.5 71t60 69.5t55 61.5t45 47.5q37 37 67 61t59.5 37.5t61 19t72.5 5.5q19 0 33 -2t22 -5v-44h-14q-56 0 -112 -30.5t-127 -101.5q-20 -20 -43.5 -45t-49 -52.5t-51.5 -56.5t-50 -56q39 -69 79.5 -138.5t81.5 -134 t83.5 -121t85 -98t85.5 -65.5t86 -24h12v-45q-34 -9 -64 -13.5t-76 -4.5q-47 0 -89.5 22.5t-82.5 62t-78 92t-75 113t-73.5 125.5t-74.5 128q-7 -8 -20 -22t-26.5 -29t-25.5 -28t-17 -19v-434h-139z" />
<glyph unicode="L" horiz-adv-x="720" d="M128 0v1024h139v-946h389l-10 -78h-518z" />
<glyph unicode="M" horiz-adv-x="1366" d="M85 0l105 1031h84l417 -841l391 841h85l114 -1031h-137l-84 781l-360 -781h-64l-391 781l-69 -781h-91z" />
<glyph unicode="N" horiz-adv-x="1129" d="M128 0v1031h61l724 -796h1q-2 105 -3 195q0 38 -0.5 77t-1 73.5t-0.5 61.5v42v339h92v-1028h-63l-723 798h-3q2 -113 4 -206q1 -40 1.5 -79.5t1 -72.5t1 -57t0.5 -33v-345h-92z" />
<glyph unicode="O" horiz-adv-x="1167" d="M95 516q0 120 28 216t87 163.5t150 103.5t216 36q124 0 217 -36t155 -103.5t93 -163.5t31 -216q0 -122 -31.5 -220t-93.5 -167t-155.5 -106t-217.5 -37q-126 0 -217 38t-149 107.5t-85.5 167t-27.5 217.5zM243 516q0 -97 16.5 -179.5t54.5 -142.5t101.5 -94t158.5 -34 q91 0 154.5 16.5t113.5 59.5q22 18 37 56.5t25 89t14.5 109.5t4.5 119q0 98 -20 179t-62.5 139t-108 90t-156.5 32q-79 0 -147 -17t-108 -51q-22 -19 -37 -56t-24 -86.5t-13 -108t-4 -121.5z" />
<glyph unicode="P" horiz-adv-x="819" d="M128 0v1019q63 5 139 8t149 3q89 0 155 -20t109 -56.5t64 -89t21 -118.5q0 -69 -25 -129t-77.5 -104t-133 -69.5t-191.5 -25.5h-9l-8 44l29 5q54 9 102.5 23.5t84.5 43.5t57.5 77.5t21.5 126.5q0 58 -18 100t-50 69t-78 40t-101 13q-29 0 -50 -1.5t-52 -4.5v-954h-139z " />
<glyph unicode="Q" horiz-adv-x="1167" d="M95 516q0 120 28 216t87 163.5t150 103.5t216 36q124 0 217 -36t155 -103.5t93 -163.5t31 -216q0 -94 -18 -174t-54 -143.5t-91 -109.5t-128 -72q17 -26 48.5 -62t71.5 -74t87 -75.5t95 -67t94.5 -48t87.5 -18.5q23 0 42.5 2t33.5 4l9 -47q-47 -14 -96.5 -24.5 t-113.5 -10.5q-56 0 -120.5 33.5t-128.5 88t-124 125.5t-107 146q-17 -2 -35 -2.5t-51 -0.5q-126 0 -217 38t-149 107.5t-85.5 167t-27.5 217.5zM243 516q0 -97 16.5 -179.5t54.5 -142.5t101.5 -94t158.5 -34q91 0 154.5 16.5t113.5 59.5q22 18 37 56.5t25 89t14.5 109.5 t4.5 119q0 98 -20 179t-62.5 139t-108 90t-156.5 32q-79 0 -147 -17t-108 -51q-22 -19 -37 -56t-24 -86.5t-13 -108t-4 -121.5z" />
<glyph unicode="R" horiz-adv-x="915" d="M128 0v1022q63 5 139 8t149 3q89 0 155 -19t109 -55t64 -88t21 -118q0 -64 -17.5 -113.5t-46.5 -86.5t-68.5 -63t-82.5 -43q46 -79 88.5 -150.5t85.5 -126t87 -86.5t94 -32h10v-45q-22 -8 -56 -13t-69 -5q-50 0 -85 13.5t-68.5 51t-72.5 103.5t-96 171l-57 104h-144v-432 h-139zM267 503h43q94 0 152.5 11t89.5 31q14 9 26 24t20.5 38.5t13 57t4.5 80.5q0 59 -17 100.5t-49 67.5t-77.5 38t-103.5 12q-29 0 -50 -1.5t-52 -4.5v-454z" />
<glyph unicode="S" horiz-adv-x="757" d="M57 60l50 120q22 -15 53 -31.5t66 -30.5t72.5 -23.5t72.5 -9.5q48 0 82.5 9t56.5 22q12 7 23 17t19.5 27t13.5 42.5t5 61.5q0 47 -20.5 79.5t-54.5 55.5t-77 40.5t-87.5 36t-87.5 41t-77 56t-54.5 80.5t-20.5 115q0 47 22 94.5t63.5 86t102 63t137.5 24.5q62 0 116 -7 t108 -18l-31 -121q-57 20 -119 34.5t-116 14.5q-42 0 -74 -6t-49 -18q-18 -14 -31 -40.5t-13 -80.5q0 -43 20.5 -72.5t54.5 -51.5t77 -39.5t88 -36t88 -42t77 -57.5t54.5 -82t20.5 -116q0 -58 -23 -113.5t-67.5 -99.5t-109 -71t-147.5 -27q-87 0 -155.5 20t-128.5 54z" />
<glyph unicode="T" horiz-adv-x="799" d="M15 950l10 74h759l-10 -71l-305 -8v-945h-139v945z" />
<glyph unicode="U" horiz-adv-x="1045" d="M123 347v677h135v-697q0 -77 16.5 -127t48 -79.5t78.5 -41.5t109 -12q76 0 135 15.5t90 47.5q27 29 40 81t13 120v693h134v-663q0 -77 -27 -145t-80.5 -119t-132.5 -81t-183 -30q-86 0 -155 19t-118.5 61.5t-76 111.5t-26.5 169z" />
<glyph unicode="V" horiz-adv-x="908" d="M5 1024h155l204 -552q23 -62 45.5 -128t40.5 -121q21 -64 40 -126q21 67 42 135q18 58 39.5 123.5t40.5 119.5l194 549h97l-369 -1024h-135z" />
<glyph unicode="W" horiz-adv-x="1384" d="M15 1024h151l173 -603q8 -32 21.5 -81.5t26.5 -97.5q15 -56 30 -117q19 61 37 117q7 24 15.5 49t16.5 49l15 45t12 37l161 474h90l167 -474q5 -16 12.5 -37t15.5 -45t16.5 -49t16.5 -49q18 -56 39 -117q16 61 30 117q6 24 12.5 49t12.5 49t11.5 45t10.5 37l166 602h95 l-293 -1024h-135l-184 528q-8 22 -18 55.5t-21 65.5q-12 37 -25 77q-13 -40 -24 -78q-10 -32 -21 -67t-19 -58l-177 -523h-135z" />
<glyph unicode="X" horiz-adv-x="877" d="M20 0l347 525l-320 499h165l234 -389l252 389h97l-301 -454l366 -570h-165l-280 460l-298 -460h-97z" />
<glyph unicode="Y" horiz-adv-x="828" d="M10 1024h155l287 -545l269 545h97l-322 -631v-393h-135v393z" />
<glyph unicode="Z" horiz-adv-x="954" d="M54 0v70l603 875h-8q-33 0 -81 0.5t-103 1.5t-112.5 2t-109 2.5t-92.5 2.5t-63 3l9 67h724v-64l-604 -881q7 0 37.5 -0.5t73.5 -1t92 -1t93 -0.5h76h41q79 0 129.5 11.5t81.5 28.5t48 36t31 35l30 -22q-12 -21 -32.5 -51t-52 -57.5t-76 -47t-104.5 -19.5q-30 0 -85 0.5 t-121.5 2t-137 2.5t-131 2.5t-103 2t-53.5 0.5z" />
<glyph unicode="[" horiz-adv-x="502" d="M165 -261v1408h293v-75h-177v-1258h177v-75h-293z" />
<glyph unicode="\" horiz-adv-x="608" d="M-14 1156l72 31l564 -1377l-69 -29z" />
<glyph unicode="]" horiz-adv-x="502" d="M46 -186h177v1258h-177v75h294v-1408h-294v75z" />
<glyph unicode="^" horiz-adv-x="796" d="M36 392l322 632h53l348 -632l-73 -34l-295 544h-5l-277 -544z" />
<glyph unicode="_" horiz-adv-x="678" d="M-5 -168h688v-74h-688v74z" />
<glyph unicode="`" horiz-adv-x="447" d="M86 1021l85 82l222 -260l-51 -45z" />
<glyph unicode="a" horiz-adv-x="734" d="M70 174q0 50 14.5 87.5t46.5 63t83 38.5t125 15l123 4v121q0 57 -23 83.5t-77 26.5q-39 0 -95 -14.5t-110 -37.5l-24 64q32 13 67.5 26.5t72.5 24t75 17t75 6.5q41 0 73.5 -9t55 -30.5t34 -57t11.5 -87.5v-327q0 -117 56 -117q27 0 71 12v-43q-32 -17 -70 -33t-80 -16 q-24 0 -41 7.5t-28 20t-18 27.5t-12 30q-26 -17 -50 -33t-50.5 -28.5t-56.5 -20t-67 -7.5q-84 0 -132.5 46.5t-48.5 140.5zM205 193q0 -57 19.5 -87.5t65.5 -30.5q49 0 90 11t86 36q0 5 -2 57.5t-2 148.5q-109 0 -165 -14t-69 -28q-12 -13 -17.5 -37t-5.5 -56z" />
<glyph unicode="b" d="M122 25v1097l135 34v-421q0 -18 -0.5 -37t-0.5 -35q-1 -18 -1 -37q21 15 43 28t46 23t51 16t59 6q56 0 108 -18t92 -58t64 -104.5t24 -156.5q0 -89 -23.5 -158.5t-68 -117.5t-108 -73.5t-143.5 -25.5q-63 0 -133.5 8.5t-143.5 29.5zM257 72q32 -5 61.5 -7.5t63.5 -2.5 q48 0 88.5 8t62.5 26q11 10 22.5 31t21.5 53.5t16 76t6 97.5q0 68 -13.5 116t-38.5 79t-60 45t-77 14t-79.5 -8.5t-73.5 -22.5v-505z" />
<glyph unicode="c" horiz-adv-x="653" d="M79 324q0 88 22 157.5t64.5 118t105.5 74t145 25.5q49 0 99 -5.5t92 -13.5l-35 -113q-19 9 -45 19t-53.5 17.5t-54 12.5t-45.5 5q-24 0 -47.5 -8t-46.5 -28q-11 -10 -21.5 -27t-18.5 -46.5t-12.5 -73.5t-4.5 -107q0 -72 11 -120t33.5 -76.5t56 -40.5t77.5 -12 q50 0 104 12t98 32l18 -41q-26 -19 -56.5 -37t-64.5 -31.5t-71 -21.5t-77 -8q-57 0 -107 18t-87 58t-58 104.5t-21 156.5z" />
<glyph unicode="d" d="M79 324q0 88 23.5 158t68 118t108 73.5t143.5 25.5q32 0 70 -4t75 -9q-1 15 -1 30q-1 12 -1 25.5v21.5v359l134 34v-1156h-89l-37 64h-3q-21 -15 -44 -28.5t-47.5 -24.5t-52.5 -17.5t-59 -6.5q-56 0 -108 18t-92 58t-64 104.5t-24 156.5zM222 332q0 -68 13.5 -116 t38.5 -79t60 -45t77 -14t82 8.5t71 21.5v506q-32 5 -61.5 7.5t-63.5 2.5q-48 0 -88.5 -8t-62.5 -26q-11 -10 -22.5 -30t-21.5 -51.5t-16 -75.5t-6 -101z" />
<glyph unicode="e" horiz-adv-x="729" d="M79 324q0 103 24 175t66 116t99 64t123 20q45 0 88 -13t78.5 -43.5t62 -81t39.5 -125.5v-8q-9 -11 -24.5 -20t-40.5 -16t-61.5 -12.5t-87.5 -8.5l-222 -15v-43q0 -121 43 -176t130 -55q36 0 74.5 7t73.5 17t63.5 20.5t44.5 18.5l17 -39q-29 -19 -65 -40t-77.5 -38.5 t-87 -29t-93.5 -11.5q-57 0 -105.5 18t-84.5 58t-56.5 104.5t-20.5 156.5zM225 420l286 12q-5 34 -14.5 68.5t-26 61.5t-41.5 44t-61 17q-24 0 -47.5 -5t-42.5 -18q-11 -8 -20.5 -25.5t-16.5 -42t-11.5 -53.5t-4.5 -59z" />
<glyph unicode="f" horiz-adv-x="465" d="M25 611l10 45q21 5 41 9q17 4 34.5 7t28.5 5v124q0 64 25 125.5t65.5 109.5t92 77.5t103.5 29.5q21 0 46 -1t43 -3l-26 -104q-24 5 -50.5 6.5t-49.5 1.5q-22 0 -47 -3t-39 -17q-8 -8 -13.5 -27.5t-8.5 -48.5t-4.5 -66.5t-1.5 -80.5v-116h171l-10 -64q-29 -2 -57 -4 q-24 -2 -52 -3.5t-52 -2.5v-610h-135v610h-67q-22 0 -47 1z" />
<glyph unicode="g" horiz-adv-x="737" d="M70 -328q0 26 7 49t18 44t25 39.5t29 35.5l34 -12q-11 -28 -16 -52t-5 -52q0 -54 42 -86t112 -32q69 0 125.5 13t97.5 42q26 20 39 55.5t13 78.5q0 51 -33 75.5t-112 24.5l-109 1q-118 1 -171.5 31.5t-53.5 99.5q0 20 8.5 41t22 40.5t30 38t32.5 33.5q-54 32 -89 90 t-35 147q0 65 20.5 117.5t57.5 89t87 56t109 19.5q49 0 87 -6t74 -17q48 2 102.5 8t95.5 15l-15 -69q-23 -8 -57 -13t-63 -5q17 -30 29 -72t12 -109t-22.5 -118t-60.5 -85t-90 -51.5t-110 -17.5q-20 0 -47.5 1.5t-42.5 6.5q-7 -14 -15 -40t-8 -52q0 -31 29.5 -42t71.5 -11 h147q67 0 112.5 -10.5t73.5 -33t40 -56.5t12 -81q0 -57 -31 -114t-86.5 -102t-131.5 -73.5t-166 -28.5q-62 0 -105 12t-69.5 32.5t-38.5 47.5t-12 57zM206 426q0 -38 10 -73.5t28 -62.5t42.5 -43.5t54.5 -16.5q68 0 110 28q20 14 31.5 55t11.5 117q0 42 -10 78t-29.5 62.5 t-47 41.5t-61.5 15q-64 0 -99 -25q-41 -30 -41 -176z" />
<glyph unicode="h" horiz-adv-x="841" d="M122 0v1122l135 34v-474q0 -14 -1 -39t-1 -39q23 13 53.5 29.5t66 31t74 24.5t77.5 10q44 0 80.5 -12.5t63 -38t41.5 -63.5t15 -89v-496h-135v475q0 24 -4 47.5t-16.5 42.5t-35.5 31t-62 12q-24 0 -52.5 -6t-57.5 -15t-56.5 -21t-49.5 -24v-542h-135z" />
<glyph unicode="i" horiz-adv-x="379" d="M97 944l91 91l92 -91l-92 -91zM122 0v684h135v-684h-135z" />
<glyph unicode="j" horiz-adv-x="379" d="M25 -434q51 54 74 133t23 200v785h135v-762q0 -80 -14.5 -139t-40 -105.5t-60.5 -83.5t-76 -72zM97 944l91 91l92 -91l-92 -91z" />
<glyph unicode="k" horiz-adv-x="745" d="M122 0v1122l135 34v-682v-19.5t-0.5 -26t-1 -25.5t-0.5 -18q27 31 58.5 65.5t62 67.5t58 61.5t47.5 47.5q33 31 62.5 48t75.5 17q15 0 34.5 -2t28.5 -7v-42h-4q-22 0 -40.5 -4.5t-36 -13.5t-35.5 -23t-39 -33q-10 -9 -30 -29t-40 -41q-24 -25 -51 -52q17 -27 38 -66.5 t45.5 -83.5t52 -87t58 -78t63 -56.5t67.5 -21.5h10v-45q-22 -8 -52 -13t-58 -5q-54 0 -95 32.5t-77 84.5t-70 117.5t-74 130.5l-57 -57v-297h-135z" />
<glyph unicode="l" horiz-adv-x="379" d="M122 0v1122l135 34v-1156h-135z" />
<glyph unicode="m" horiz-adv-x="1250" d="M122 0v684h113l20 -80q21 13 49.5 29.5t61.5 31t69.5 24.5t72.5 10q59 0 103.5 -26t66.5 -79l16 10q21 13 49.5 29.5t61.5 31t69.5 24.5t72.5 10q41 0 75.5 -12.5t59.5 -38t39 -63t14 -88.5v-497h-135v476q0 24 -3.5 47.5t-15 42t-32.5 30.5t-56 12q-23 0 -49.5 -6.5 t-53 -16t-52 -21.5t-45.5 -24q3 -21 3 -43v-497h-135v476q0 24 -3.5 47.5t-15 42t-32.5 30.5t-56 12q-23 0 -49 -6t-52 -15t-51 -21t-45 -24v-542h-135z" />
<glyph unicode="n" horiz-adv-x="841" d="M122 0v684h113l19 -80h2q23 13 53.5 29.5t65.5 31t73 24.5t77 10q44 0 81 -12.5t63.5 -38t41.5 -63t15 -88.5v-497h-135v476q0 24 -4 47.5t-16.5 42t-35.5 30.5t-62 12q-25 0 -53.5 -6t-57.5 -15t-56 -21t-49 -24v-542h-135z" />
<glyph unicode="o" d="M79 342q0 82 21 148.5t63 112.5t104 71t144 25q81 0 143 -23.5t104 -69t63 -111.5t21 -151q0 -83 -21 -149t-63 -112.5t-104 -71t-143 -24.5q-161 0 -246.5 90.5t-85.5 264.5zM222 343q0 -75 10.5 -128t33 -87t58 -50t85.5 -16q41 0 71 8t60 30q35 26 47 90.5t12 151.5 q0 146 -44.5 213.5t-141.5 67.5q-40 0 -71.5 -8t-59.5 -28q-17 -12 -28 -36.5t-18.5 -57t-10.5 -71.5t-3 -79z" />
<glyph unicode="p" d="M122 -469v1133l119 30l14 -68q21 15 43 28t46 23t51 16t59 6q56 0 108 -18t92 -58t64 -104.5t24 -156.5q0 -89 -23.5 -158.5t-68 -117.5t-108 -73.5t-143.5 -25.5q-38 0 -75 7.5t-69 16.5q0 -5 0.5 -16t0.5 -24.5t0.5 -28t0.5 -26.5v-353zM257 72q32 -5 61.5 -7.5 t63.5 -2.5q48 0 88.5 8t62.5 26q11 10 22.5 31t21.5 53.5t16 76t6 97.5q0 68 -13.5 116t-38.5 79t-60 45t-77 14t-79.5 -8.5t-73.5 -23.5v-504z" />
<glyph unicode="q" d="M79 324q0 88 23.5 158t68 118t108 73.5t143.5 25.5q63 0 134 -6.5t143 -16.5v-1113l-135 -32v427q0 27 1 57t3 45h-3q-21 -15 -43 -28t-46 -23t-51 -16t-58 -6q-56 0 -108 18t-92 58t-64 104.5t-24 156.5zM222 332q0 -68 13.5 -116t38.5 -79t60 -45t77 -14t80.5 8 t72.5 22v506q-32 5 -61.5 7.5t-63.5 2.5q-48 0 -88.5 -8t-62.5 -26q-11 -10 -22.5 -31t-21.5 -53.5t-16 -76t-6 -97.5z" />
<glyph unicode="r" horiz-adv-x="517" d="M122 0v684h113l19 -107h1q11 13 23 28.5t24.5 29.5t26.5 26t30 19q27 12 61 15.5t75 3.5l-20 -123q-23 2 -52 4.5t-55 2.5q-19 0 -32.5 -4t-26 -12.5t-24.5 -20t-28 -26.5v-520h-135z" />
<glyph unicode="s" horiz-adv-x="605" d="M53 50l40 93q22 -14 47 -27.5t52.5 -25t56.5 -18.5t60 -7q34 0 58 5t41 17q16 11 26 31.5t10 59.5q0 35 -27 57t-67.5 38t-88 32t-88 40t-67.5 60.5t-27 94.5q0 43 18 73.5t45 56.5q34 32 79 50.5t99 18.5q43 0 90.5 -5.5t90.5 -12.5l-20 -99q-20 5 -44 10t-49.5 9 t-49 6.5t-41.5 2.5q-40 0 -62 -4.5t-34 -13.5q-11 -8 -16.5 -22.5t-5.5 -38.5q0 -32 27 -52t68 -36t88 -32.5t88 -41t68 -61t27 -93.5q0 -51 -17.5 -87.5t-46.5 -64.5q-16 -15 -35 -29t-43 -24.5t-54 -16.5t-67 -6q-68 0 -124 15t-105 48z" />
<glyph unicode="t" horiz-adv-x="464" d="M45 617v39l181 148h27l3 -120h187l-9 -61q-25 -3 -55.5 -5.5t-57.5 -4.5q-32 -3 -64 -4v-445q0 -37 13.5 -61.5t58.5 -24.5q24 0 58 1t62 3v-47q-15 -7 -38.5 -15t-51.5 -15.5t-56 -12.5t-52 -5q-22 0 -45 5.5t-41.5 20.5t-30.5 42.5t-12 71.5v483z" />
<glyph unicode="u" horiz-adv-x="841" d="M115 187v497h135v-476q0 -24 4 -47.5t16.5 -42t35.5 -30.5t62 -12q25 0 53.5 6t57.5 15t56 21t49 24v542h135v-684h-113l-20 80q-23 -13 -53.5 -29.5t-66 -31t-73.5 -24.5t-77 -10q-44 0 -81 12.5t-63.5 38t-41.5 63t-15 88.5z" />
<glyph unicode="v" horiz-adv-x="740" d="M-6 635v41q8 2 20.5 5t26 5.5t27.5 4t26 1.5q29 0 52 -6.5t39 -25.5q21 -25 48 -84.5t56 -137t58 -164.5t53 -167h3q48 76 80 142t51 126.5t26.5 116t7.5 110.5q0 17 -3 37.5t-7 32.5l116 25q5 -14 8 -36t3 -42q0 -77 -24.5 -158t-63 -161t-85 -156t-91.5 -144h-120 q-30 102 -64 201t-66 181t-60 141.5t-46 82.5q-11 14 -24 21.5t-38 7.5h-9z" />
<glyph unicode="w" horiz-adv-x="1151" d="M-5 635v41q7 2 20.5 5t28.5 5.5t30 4t25 1.5q26 0 45.5 -7t34.5 -25q12 -15 26 -47t29.5 -75.5t31 -96.5t31 -109.5t30.5 -114t29 -110.5h3q33 64 60.5 131.5t49.5 135t38.5 133t27.5 125.5l113 15q18 -46 40 -109.5t45 -135t46.5 -147.5t44.5 -148h3q39 71 68 134.5 t48.5 122t29 114.5t9.5 112q0 22 -3.5 46t-7.5 36l114 25q5 -14 8 -36t3 -42q0 -71 -23.5 -150t-60 -159t-80 -159t-83.5 -151h-130q-32 121 -68.5 242t-76.5 228h-3q-16 -58 -37 -118.5t-45 -121t-51.5 -119t-56.5 -111.5h-128q-25 94 -52 193t-52.5 184.5t-47 147 t-35.5 81.5q-12 16 -25.5 22.5t-30.5 6.5h-15z" />
<glyph unicode="x" horiz-adv-x="743" d="M5 7v41h11q39 0 71.5 19.5t65 57.5t69.5 94.5t85 130.5q-39 70 -69 124t-54.5 91t-47.5 55.5t-48 18.5h-19v40q11 3 25 5l28 4t26.5 3t21.5 1q39 0 65.5 -13.5t49.5 -42t47 -72t58 -102.5q33 52 60 94.5t52 72.5t49 46.5t52 16.5q19 0 35 -3.5t33 -10.5v-43h-26 q-26 0 -50 -17t-49 -48.5t-53 -76.5t-63 -100q38 -69 73.5 -131.5t68 -110t61.5 -76t55 -28.5q11 0 16.5 0.5t13.5 2.5v-40q-20 -7 -48.5 -11.5t-60.5 -4.5q-43 0 -74.5 19t-60 55.5t-58.5 90.5t-70 124q-33 -53 -63.5 -104.5t-62 -93t-67.5 -67t-80 -25.5q-35 0 -68 14z " />
<glyph unicode="y" horiz-adv-x="732" d="M-126 -402q9 -2 20.5 -3.5t20.5 -1.5q30 0 67 18.5t77.5 49t81.5 70t78.5 82.5t69.5 85.5t54 79.5q-39 112 -77 210t-71 177t-61 136.5t-47 88.5q-15 24 -36 34.5t-41 10.5h-11v41q17 5 47 10.5t59 5.5q26 0 50.5 -6.5t39.5 -25.5q22 -27 49 -83.5t56.5 -131t60.5 -161 t60 -173.5h3q37 65 61 126.5t37.5 119.5t18.5 112.5t5 106.5q0 14 -1.5 29.5t-4 29t-5.5 24t-5 16.5l116 27q8 -17 11.5 -43.5t3.5 -54.5q0 -60 -18.5 -135.5t-49.5 -155.5t-72 -161t-85 -152q-31 -49 -65 -102.5t-71 -105.5t-77 -99t-82.5 -83t-87.5 -57t-92 -21 q-29 0 -50 6t-37 17v43z" />
<glyph unicode="z" horiz-adv-x="645" d="M45 0v42l344 566q-27 0 -71 -0.5t-90.5 -1t-88 -2t-62.5 -2.5l12 71q31 2 86.5 4t121 3.5t132.5 2.5t121 1v-36l-350 -581q10 -1 28.5 -1.5t39 -1t40.5 -0.5h34q65 0 109.5 8t74.5 21t48.5 29t33.5 33l28 -25q-13 -22 -32 -46.5t-47.5 -45.5t-68 -34.5t-93.5 -13.5 q-44 0 -98.5 1.5t-105 3.5t-90.5 3.5t-56 1.5z" />
<glyph unicode="{" horiz-adv-x="490" d="M50 417v53q31 2 57.5 17t45.5 40t30 59.5t11 75.5v234q0 248 246 251v-61q-128 -5 -128 -160v-274q0 -42 -10.5 -76t-29.5 -59.5t-44 -43.5t-55 -27v-4q30 -9 55 -26.5t44 -43t29.5 -59t10.5 -75.5v-272q0 -89 30 -127t98 -40v-60q-246 3 -246 248v241q0 40 -11 74 t-30 59t-45.5 39.5t-57.5 16.5z" />
<glyph unicode="|" horiz-adv-x="363" d="M143 -377v1590h77v-1590h-77z" />
<glyph unicode="}" horiz-adv-x="490" d="M50 -201q68 2 98 40t30 127v272q0 42 10.5 75.5t29.5 59t44 43t55 26.5v4q-30 9 -55 27t-44 43.5t-29.5 59.5t-10.5 76v274q0 155 -128 160v61q246 -3 246 -251v-234q0 -41 11 -75.5t30 -59.5t45.5 -40t57.5 -17v-53q-31 -2 -57.5 -16.5t-45.5 -39.5t-30 -59t-11 -74 v-241q0 -245 -246 -248v60z" />
<glyph unicode="~" horiz-adv-x="895" d="M50 352q3 106 59 162t165 56q58 0 104.5 -22t87 -48.5t78 -48.5t77.5 -22q63 0 103.5 34t42.5 107h78q-3 -106 -59 -162t-165 -56q-52 0 -97 22t-86.5 48.5t-81.5 48.5t-82 22q-63 0 -103.5 -34t-42.5 -107h-78z" />
<glyph unicode="&#xa1;" horiz-adv-x="345" d="M52 595l106 105l105 -105l-105 -105zM87 -354l34 747h78l34 -747h-146z" />
<glyph unicode="&#xa2;" horiz-adv-x="653" d="M79 478q0 161 71.5 257.5t209.5 113.5v92h59v-88q48 -1 97.5 -6t90.5 -13l-35 -113q-29 14 -72 27.5t-81 21.5v-534q47 2 95.5 13.5t88.5 30.5l18 -41q-42 -30 -92.5 -55.5t-109.5 -36.5v-115h-59v109h-8q-57 0 -107 18t-87 58t-58 104.5t-21 156.5zM223 485 q0 -63 8.5 -107.5t26 -74t43 -44.5t59.5 -20v535q-44 -3 -80 -35q-11 -10 -21.5 -27t-18.5 -46.5t-12.5 -73.5t-4.5 -107z" />
<glyph unicode="&#xa3;" horiz-adv-x="856" d="M12 60q34 13 63.5 38.5t51.5 63t34.5 86t12.5 107.5v101h-117l10 71h107v160q0 54 25 115t70.5 113t110 86.5t143.5 34.5q62 0 111.5 -7t103.5 -18l-31 -121q-57 20 -119 34.5t-116 14.5q-80 0 -122 -31q-9 -7 -16 -24.5t-11.5 -43.5t-7 -58.5t-2.5 -68.5v-186h260 l-10 -71h-250v-83q0 -47 -14.5 -84.5t-37.5 -69t-52.5 -58t-60.5 -50.5q61 25 102 30t64 5q28 0 67 -7.5t81 -16.5t84.5 -16.5t78.5 -7.5t61.5 11t45 27.5t34 36.5t27.5 39l44 -26q-25 -36 -52.5 -71.5t-60 -63.5t-72 -45t-87.5 -17q-36 0 -76.5 8.5t-82.5 19t-85 19 t-83 8.5q-35 0 -84.5 -8.5t-115.5 -35.5z" />
<glyph unicode="&#xa4;" horiz-adv-x="822" d="M74 196l80 78q-33 42 -51.5 93.5t-18.5 109.5q0 57 18.5 108.5t51.5 93.5l-80 81l54 54l80 -81q42 33 93.5 51.5t108.5 18.5t108.5 -18.5t93.5 -51.5l81 81l54 -54l-81 -81q33 -42 51.5 -93.5t18.5 -108.5t-18.5 -108.5t-51.5 -93.5l80 -78l-54 -54l-80 78 q-42 -33 -93.5 -51.5t-108.5 -18.5t-108.5 18.5t-93.5 51.5l-80 -79zM159 477q0 -52 19.5 -98t53.5 -80t80 -53.5t98 -19.5t98 19.5t80 53.5t53.5 80t19.5 98t-19.5 98t-53.5 80t-80 53.5t-98 19.5t-98 -19.5t-80 -53.5t-53.5 -80t-19.5 -98z" />
<glyph unicode="&#xa5;" horiz-adv-x="857" d="M10 1024h155l287 -545l269 545h97l-279 -546h243l-10 -77h-272l-4 -8v-138h286l-10 -77h-276v-178h-135v178h-286l10 77h276v138l-5 8h-281l10 77h228z" />
<glyph unicode="&#xa6;" horiz-adv-x="363" d="M143 219h77v-598h-77v598zM143 615v598h77v-598h-77z" />
<glyph unicode="&#xa7;" horiz-adv-x="670" d="M56 -75l37 91q23 -14 48 -27.5t52 -25t56 -18.5t60 -7q51 0 89.5 10t55.5 25q17 16 28.5 42t11.5 75q0 44 -18 74t-47 52t-66.5 38t-76 30.5t-76 30.5t-66.5 38t-47 52.5t-18 74.5q0 53 18 92.5t45 66.5q16 15 37.5 30t39.5 24q-27 17 -50.5 37t-41 45t-28 56.5 t-10.5 73.5q0 52 15 86t43 64q35 38 85 60t104 22q21 0 49.5 -2t58.5 -4.5t58 -5.5t49 -6l-20 -99q-20 5 -51 10t-65 9t-64.5 6.5t-48.5 2.5q-40 0 -62 -6t-34 -17q-11 -9 -16.5 -27t-5.5 -48q0 -51 30.5 -84.5t76 -59.5t99 -49.5t99 -53.5t76 -72t30.5 -105q0 -30 -7 -56 t-17.5 -47t-23 -36.5t-24.5 -24.5q-8 -6 -19 -13.5t-16 -10.5q23 -16 42.5 -33.5t34 -39t22.5 -47t8 -58.5q0 -63 -21.5 -113t-50.5 -85q-16 -19 -42.5 -37.5t-59 -32.5t-68.5 -23t-71 -9q-72 0 -124.5 16t-101.5 49zM179 527q0 -28 27.5 -51t68 -43t86.5 -37t83 -33 q23 15 36.5 45.5t13.5 77.5q0 25 -17.5 49.5t-48 47t-71.5 43t-88 38.5q-49 -23 -69.5 -58t-20.5 -79z" />
<glyph unicode="&#xa8;" horiz-adv-x="651" d="M85 915l94 95l96 -95l-96 -95zM378 915l94 95l96 -95l-96 -95z" />
<glyph unicode="&#xa9;" horiz-adv-x="1171" d="M65 512q0 108 40.5 203t111 165.5t165.5 111.5t203 41t203 -41t165.5 -111.5t111.5 -165.5t41 -203t-41 -203t-111.5 -165.5t-165.5 -111t-203 -40.5t-203 40.5t-165.5 111t-111 165.5t-40.5 203zM135 512q0 -93 35.5 -175t96.5 -143t143 -96.5t175 -35.5t175.5 35.5 t143.5 96.5t96.5 143t35.5 175t-35.5 175.5t-96.5 143.5t-143.5 96.5t-175.5 35.5t-175 -35.5t-143 -96.5t-96.5 -143.5t-35.5 -175.5zM294 516q0 91 29.5 154t76 101t104 55t113.5 17q21 0 45.5 -1t48.5 -3t44.5 -4.5t32.5 -5.5l-25 -91q-13 4 -35 8.5t-47.5 9t-50 7.5 t-42.5 3q-39 0 -67.5 -6t-53.5 -24q-30 -22 -41.5 -75t-11.5 -145q0 -124 41.5 -193.5t136.5 -69.5q54 0 107 8.5t100 22.5v-53q-48 -23 -104 -35t-111 -12q-73 0 -127.5 23.5t-90.5 67t-54 105t-18 136.5z" />
<glyph unicode="&#xaa;" horiz-adv-x="541" d="M48 663q0 70 45 109t148 41l87 2v71q0 40 -16.5 58.5t-54.5 18.5q-14 0 -32.5 -2.5t-39 -7.5t-41.5 -11.5t-40 -14.5l-17 51q45 20 103 36t110 16q29 0 53 -6.5t41.5 -21.5t27.5 -39.5t10 -61.5v-229q0 -42 9.5 -58t29.5 -16q10 0 22.5 1.5t27.5 6.5v-37 q-23 -11 -54.5 -22.5t-60.5 -11.5q-17 0 -29 5.5t-19.5 13.5t-12.5 18.5t-8 21.5q-18 -12 -35 -23t-36 -19.5t-40 -14t-46 -5.5q-59 0 -95.5 32.5t-36.5 98.5zM153 676q0 -40 11 -58t43 -18q35 0 63 8t60 25q0 3 -1 37t-1 100q-77 0 -113.5 -9.5t-45.5 -19.5 q-9 -9 -12.5 -25.5t-3.5 -39.5z" />
<glyph unicode="&#xab;" horiz-adv-x="675" d="M60 338l222 308l65 -49l-187 -240l188 -218l-75 -66zM327 338l232 308l55 -49l-187 -240l188 -218l-75 -66z" />
<glyph unicode="&#xac;" horiz-adv-x="822" d="M50 439v77h722v-414h-76v337h-646z" />
<glyph unicode="&#xad;" horiz-adv-x="488" d="M50 307l10 106h378l-10 -106h-378z" />
<glyph unicode="&#xae;" horiz-adv-x="1171" d="M65 512q0 108 40.5 203t111 165.5t165.5 111.5t203 41t203 -41t165.5 -111.5t111.5 -165.5t41 -203t-41 -203t-111.5 -165.5t-165.5 -111t-203 -40.5t-203 40.5t-165.5 111t-111 165.5t-40.5 203zM135 512q0 -93 35.5 -175t96.5 -143t143 -96.5t175 -35.5t175.5 35.5 t143.5 96.5t96.5 143t35.5 175t-35.5 175.5t-96.5 143.5t-143.5 96.5t-175.5 35.5t-175 -35.5t-143 -96.5t-96.5 -143.5t-35.5 -175.5zM372 190v642q41 2 91.5 4t98.5 2q118 0 180 -46.5t62 -128.5q0 -40 -13 -71t-34 -54.5t-48.5 -39.5t-55.5 -27q30 -49 57.5 -91 t54.5 -72.5t54.5 -48t57.5 -17.5h7v-46q-15 -5 -33.5 -8.5t-41.5 -3.5q-33 0 -57.5 8.5t-48.5 31.5t-51 64.5t-64 107.5l-39 66h-74v-272h-103zM475 525h17q62 0 100.5 3.5t59.5 16.5q9 6 17 13.5t13.5 20t8.5 31t3 47.5q0 37 -11 60.5t-32 36.5t-51.5 17.5t-68.5 4.5 q-13 0 -24.5 -0.5t-31.5 -2.5v-248z" />
<glyph unicode="&#xaf;" horiz-adv-x="486" d="M35 801l10 75h406l-10 -75h-406z" />
<glyph unicode="&#xb0;" horiz-adv-x="532" d="M50 809q0 45 17 84.5t46 68.5t68.5 46t84.5 17t84.5 -17t68.5 -46t46 -68.5t17 -84.5t-17 -84.5t-46 -68.5t-68.5 -46t-84.5 -17t-84.5 17t-68.5 46t-46 68.5t-17 84.5zM123 809q0 -30 11 -56t30.5 -45.5t45.5 -30.5t56 -11t56 11t45.5 30.5t30.5 45.5t11 56t-11 56 t-30.5 45.5t-45.5 30.5t-56 11t-56 -11t-45.5 -30.5t-30.5 -45.5t-11 -56z" />
<glyph unicode="&#xb1;" horiz-adv-x="822" d="M50 0v77h722v-77h-722zM50 439v77h323v338h76v-338h323v-77h-323v-337h-76v337h-323z" />
<glyph unicode="&#xb2;" horiz-adv-x="500" d="M50 407v50l187 202q38 43 62.5 84.5t24.5 97.5q0 57 -30.5 78.5t-90.5 21.5q-34 0 -72 -7t-71 -18l17 96q26 9 64.5 14t69.5 5q55 0 95.5 -12t67 -33.5t39.5 -50.5t13 -63q0 -32 -9.5 -61t-26 -56.5t-39.5 -54.5t-51 -57l-141 -146q32 0 82 0.5t98 2.5q55 1 116 3 l-16 -96h-389z" />
<glyph unicode="&#xb3;" horiz-adv-x="500" d="M22 441l41 92q12 -10 30 -19.5t39 -17.5t43 -13t43 -5q33 0 56 5t38 13q18 10 29 31.5t11 69.5q0 39 -15.5 62.5t-40.5 36t-57 16.5t-65 4v47q75 5 109 31t34 71q0 42 -28 59t-81 17q-33 0 -69.5 -5.5t-69.5 -17.5l17 95q26 8 63 13t67 5q96 0 150 -36t54 -105 q0 -29 -13 -53t-32 -42t-39.5 -29.5t-35.5 -15.5v-2q27 -4 53 -14.5t46.5 -28t33.5 -42t13 -56.5q0 -39 -19.5 -76t-52.5 -66t-77 -46.5t-92 -17.5q-53 0 -100 10.5t-83 29.5z" />
<glyph unicode="&#xb4;" horiz-adv-x="462" d="M90 843l222 260l86 -83l-256 -223z" />
<glyph unicode="&#xb5;" horiz-adv-x="848" d="M80 -410q19 107 30.5 236.5t11.5 283.5v574h135v-476q0 -33 10 -57.5t27 -40t40 -23.5t50 -8q60 0 112.5 17t94.5 43v545h135v-489q0 -62 6.5 -111t18.5 -84h-134q-4 6 -8 16t-7.5 20.5t-6 21t-2.5 17.5q-22 -16 -45 -32t-49.5 -29t-58.5 -21t-71 -8q-37 0 -70 10.5 t-45 25.5q-3 -45 -8 -96.5t-12 -105.5t-16 -107t-20 -100z" />
<glyph unicode="&#xb6;" horiz-adv-x="705" d="M67 815q0 49 19.5 88t52.5 66t75.5 41.5t89.5 14.5h373l-10 -62h-81v-1065l-66 -20v1085h-157v-1065l-66 -20v703q-53 4 -95.5 22.5t-72.5 49.5t-46 72t-16 90z" />
<glyph unicode="&#xb7;" horiz-adv-x="335" d="M72 470l95 95l96 -95l-96 -95z" />
<glyph unicode="&#xb8;" horiz-adv-x="336" d="M29 -334l12 61q14 -4 36 -6t39 -2q50 0 72 19t22 49q0 22 -13.5 37.5t-33 25t-42.5 14.5t-42 7l71 129h65l-44 -78q62 -10 102 -39.5t40 -80.5q0 -70 -47.5 -109t-152.5 -39q-20 0 -44.5 3.5t-39.5 8.5z" />
<glyph unicode="&#xb9;" horiz-adv-x="500" d="M34 863l229 161h72v-617h-103v533l-172 -128z" />
<glyph unicode="&#xba;" horiz-adv-x="580" d="M48 780q0 58 16.5 104t47.5 78.5t76 50t102 17.5q115 0 178.5 -64.5t63.5 -183.5q0 -117 -63.5 -183.5t-178.5 -66.5q-113 0 -177.5 63.5t-64.5 184.5zM158 781q0 -52 7 -88.5t23 -59t41 -32.5t60 -10q28 0 49 6t42 21q25 18 33.5 60t8.5 102q0 102 -31.5 146t-99.5 44 q-28 0 -49.5 -5.5t-41.5 -19.5q-23 -17 -32.5 -62t-9.5 -102z" />
<glyph unicode="&#xbb;" horiz-adv-x="675" d="M60 581l75 66l213 -265l-222 -308l-65 49l187 240zM327 581l75 66l213 -265l-222 -308l-65 49l187 240z" />
<glyph unicode="&#xbc;" horiz-adv-x="1159" d="M34 863l229 161h72v-617h-103v533l-172 -128zM186 0l705 1067l60 -42l-704 -1066zM615 152v78l290 390h101v-386h96l-15 -78l-81 -3v-150h-104v147h-29.5h-41t-47 0.5t-48.5 0.5q-56 0 -121 1zM687 234h215v291z" />
<glyph unicode="&#xbd;" horiz-adv-x="1182" d="M34 863l229 161h72v-617h-103v533l-172 -128zM186 0l705 1067l60 -42l-704 -1066zM705 3v50l187 202q38 43 62.5 84.5t24.5 97.5q0 57 -30.5 78.5t-90.5 21.5q-34 0 -72 -7t-71 -18l17 96q26 9 64.5 14t69.5 5q55 0 95.5 -12t67 -33.5t39.5 -50.5t13 -63q0 -32 -9.5 -61 t-26 -56.5t-39.5 -54.5t-51 -57l-141 -146q32 0 82 0.5t98 2.5q55 1 116 3l-16 -96h-389z" />
<glyph unicode="&#xbe;" horiz-adv-x="1159" d="M22 441l41 92q12 -10 30 -19.5t39 -17.5t43 -13t43 -5q33 0 56 5t38 13q18 10 29 31.5t11 69.5q0 39 -15.5 62.5t-40.5 36t-57 16.5t-65 4v47q75 5 109 31t34 71q0 42 -28 59t-81 17q-33 0 -69.5 -5.5t-69.5 -17.5l17 95q26 8 63 13t67 5q96 0 150 -36t54 -105 q0 -29 -13 -53t-32 -42t-39.5 -29.5t-35.5 -15.5v-2q27 -4 53 -14.5t46.5 -28t33.5 -42t13 -56.5q0 -39 -19.5 -76t-52.5 -66t-77 -46.5t-92 -17.5q-53 0 -100 10.5t-83 29.5zM186 0l705 1067l60 -42l-704 -1066zM615 152v78l290 390h101v-386h96l-15 -78l-81 -3v-150h-104 v147h-29.5h-41t-47 0.5t-48.5 0.5q-56 0 -121 1zM687 234h215v291z" />
<glyph unicode="&#xbf;" horiz-adv-x="613" d="M50 -118q0 53 12.5 92t36.5 69.5t58 54.5t77 47q33 17 57.5 31.5t40.5 29.5t23.5 32t7.5 40q0 24 -6 45t-17 45l50 20q16 -24 32 -58.5t16 -69.5q0 -30 -9 -52.5t-23.5 -39.5t-33.5 -30.5t-40 -25.5q-39 -24 -68 -45t-47.5 -46t-27.5 -55.5t-9 -72.5q0 -78 53.5 -115 t144.5 -37q45 0 91 8t94 26l-25 -120q-39 -10 -82.5 -16t-91.5 -6q-73 0 -131.5 15t-99 45.5t-62 77.5t-21.5 111zM254 595l106 105l105 -105l-105 -105z" />
<glyph unicode="&#xc0;" horiz-adv-x="916" d="M5 0l406 1015l120 35l380 -1050h-144l-128 375l-394 -5l-138 -370h-102zM270 442h348l-170 478zM308 1344l86 83l222 -260l-52 -46z" />
<glyph unicode="&#xc1;" horiz-adv-x="916" d="M5 0l406 1015l120 35l380 -1050h-144l-128 375l-394 -5l-138 -370h-102zM270 442h348l-170 478zM355 1167l222 260l86 -83l-256 -223z" />
<glyph unicode="&#xc2;" horiz-adv-x="916" d="M5 0l406 1015l120 35l380 -1050h-144l-128 375l-394 -5l-138 -370h-102zM232 1177l195 212h84l195 -212l-48 -48l-189 154l-189 -154zM270 442h348l-170 478z" />
<glyph unicode="&#xc3;" horiz-adv-x="916" d="M5 0l406 1015l120 35l380 -1050h-144l-128 375l-394 -5l-138 -370h-102zM225 1139q14 78 51 113t98 35q30 0 60.5 -12t60 -26.5t55.5 -26.5t47 -12q22 0 36 7t23 18t14.5 24t8.5 24l61 -12q-14 -78 -52 -113.5t-100 -35.5q-33 0 -63 12t-57.5 26.5t-53 26.5t-48.5 12 q-22 0 -36 -6.5t-23 -16.5t-14 -23.5t-8 -26.5zM270 442h348l-170 478z" />
<glyph unicode="&#xc4;" horiz-adv-x="916" d="M5 0l406 1015l120 35l380 -1050h-144l-128 375l-394 -5l-138 -370h-102zM216 1211l94 95l96 -95l-96 -95zM270 442h348l-170 478zM549 1211l94 95l96 -95l-96 -95z" />
<glyph unicode="&#xc5;" horiz-adv-x="916" d="M5 0l390 975q-45 15 -74.5 50.5t-29.5 95.5q0 40 14 69.5t38 49t55 29t65 9.5t65.5 -9.5t55.5 -29t38 -49t14 -69.5q0 -52 -23 -85.5t-59 -51.5l357 -984h-144l-128 375l-394 -5l-138 -370h-102zM270 442h348l-170 478zM368 1121q0 -23 8 -39t21.5 -26t30.5 -14t35 -4 q19 0 36.5 4t31 14t21.5 26t8 39t-8 39t-21.5 26t-31 14.5t-36.5 4.5q-18 0 -35 -4.5t-30.5 -14.5t-21.5 -26t-8 -39z" />
<glyph unicode="&#xc6;" horiz-adv-x="1239" d="M0 0l557 1024h592l-10 -74l-376 -5v-363l354 -4l-10 -65l-344 -8v-426l418 -8l-10 -71h-547v370h-326l-195 -370h-103zM336 442h288v503h-21z" />
<glyph unicode="&#xc7;" horiz-adv-x="903" d="M95 515q0 146 42 245.5t109.5 161t151.5 88t168 26.5q31 0 69 -2t74 -5t67.5 -6.5t49.5 -7.5l-37 -122q-20 6 -56 14t-77.5 14.5t-81.5 11t-67 4.5q-60 0 -103 -9.5t-80 -38.5q-45 -35 -63 -132t-18 -242q0 -221 64.5 -335.5t207.5 -114.5q40 0 83 3t85.5 9t83.5 15 t77 21v-53q-37 -18 -79.5 -31.5t-87 -23t-89.5 -14.5t-87 -5q-111 0 -188 38t-125.5 107t-70.5 166.5t-22 217.5zM384 -334l12 61q14 -4 36 -6t39 -2q50 0 72 19t22 49q0 22 -13.5 37.5t-33 25t-42.5 14.5t-42 7l71 129h65l-44 -78q62 -10 102 -39.5t40 -80.5 q0 -70 -47.5 -109t-152.5 -39q-20 0 -44.5 3.5t-39.5 8.5z" />
<glyph unicode="&#xc8;" horiz-adv-x="743" d="M128 0v1024h525l-10 -74l-376 -5v-363l354 -4l-10 -65l-344 -8v-426l418 -8l-10 -71h-547zM220 1344l86 83l222 -260l-52 -46z" />
<glyph unicode="&#xc9;" horiz-adv-x="743" d="M128 0v1024h525l-10 -74l-376 -5v-363l354 -4l-10 -65l-344 -8v-426l418 -8l-10 -71h-547zM288 1167l222 260l86 -83l-256 -223z" />
<glyph unicode="&#xca;" horiz-adv-x="743" d="M128 0v1024h525l-10 -74l-376 -5v-363l354 -4l-10 -65l-344 -8v-426l418 -8l-10 -71h-547zM154 1177l195 212h84l195 -212l-48 -48l-189 154l-189 -154z" />
<glyph unicode="&#xcb;" horiz-adv-x="743" d="M128 0v1024h525l-10 -74l-376 -5v-363l354 -4l-10 -65l-344 -8v-426l418 -8l-10 -71h-547zM137 1211l94 95l96 -95l-96 -95zM470 1211l94 95l96 -95l-96 -95z" />
<glyph unicode="&#xcc;" horiz-adv-x="391" d="M-11 1344l86 83l222 -260l-52 -46zM128 0v1024h139v-1024h-139z" />
<glyph unicode="&#xcd;" horiz-adv-x="391" d="M106 1167l222 260l86 -83l-256 -223zM128 0v1024h139v-1024h-139z" />
<glyph unicode="&#xce;" horiz-adv-x="391" d="M-39 1177l195 212h84l195 -212l-48 -48l-189 154l-189 -154zM128 0v1024h139v-1024h-139z" />
<glyph unicode="&#xcf;" horiz-adv-x="391" d="M-61 1211l94 95l96 -95l-96 -95zM128 0v1024h139v-1024h-139zM272 1211l94 95l96 -95l-96 -95z" />
<glyph unicode="&#xd0;" horiz-adv-x="1094" d="M5 485l10 62l113 2v467q33 4 76 7.5t89.5 6t94.5 4t93 1.5q117 0 212.5 -29.5t163.5 -89.5t105 -151t37 -213q0 -123 -34 -226.5t-102 -177.5t-169 -115.5t-235 -41.5q-89 0 -177 5t-154 12v474zM267 75q31 -5 69.5 -8.5t87.5 -3.5q97 -1 174 15.5t126 51.5 q24 17 47.5 46.5t41.5 77.5t29.5 117t11.5 165q0 119 -35 200.5t-93 131.5t-134 71.5t-157 21.5q-35 0 -58.5 -1t-41.5 -2.5t-33.5 -3.5t-34.5 -4v-398h251l-10 -64l-241 -8v-405z" />
<glyph unicode="&#xd1;" horiz-adv-x="1129" d="M128 0v1031h61l724 -796h1q-2 105 -3 195q0 38 -0.5 77t-1 73.5t-0.5 61.5v42v339h92v-1028h-63l-723 798h-3q2 -113 4 -206q1 -40 1.5 -79.5t1 -72.5t1 -57t0.5 -33v-345h-92zM318 1139q14 78 51 113t98 35q30 0 60.5 -12t60 -26.5t55.5 -26.5t47 -12q22 0 36 7t23 18 t14.5 24t8.5 24l61 -12q-14 -78 -52 -113.5t-100 -35.5q-33 0 -63 12t-57.5 26.5t-53 26.5t-48.5 12q-22 0 -36 -6.5t-23 -16.5t-14 -23.5t-8 -26.5z" />
<glyph unicode="&#xd2;" horiz-adv-x="1167" d="M95 516q0 120 28 216t87 163.5t150 103.5t216 36q124 0 217 -36t155 -103.5t93 -163.5t31 -216q0 -122 -31.5 -220t-93.5 -167t-155.5 -106t-217.5 -37q-126 0 -217 38t-149 107.5t-85.5 167t-27.5 217.5zM243 516q0 -97 16.5 -179.5t54.5 -142.5t101.5 -94t158.5 -34 q91 0 154.5 16.5t113.5 59.5q22 18 37 56.5t25 89t14.5 109.5t4.5 119q0 98 -20 179t-62.5 139t-108 90t-156.5 32q-79 0 -147 -17t-108 -51q-22 -19 -37 -56t-24 -86.5t-13 -108t-4 -121.5zM415 1344l86 83l222 -260l-52 -46z" />
<glyph unicode="&#xd3;" horiz-adv-x="1167" d="M95 516q0 120 28 216t87 163.5t150 103.5t216 36q124 0 217 -36t155 -103.5t93 -163.5t31 -216q0 -122 -31.5 -220t-93.5 -167t-155.5 -106t-217.5 -37q-126 0 -217 38t-149 107.5t-85.5 167t-27.5 217.5zM243 516q0 -97 16.5 -179.5t54.5 -142.5t101.5 -94t158.5 -34 q91 0 154.5 16.5t113.5 59.5q22 18 37 56.5t25 89t14.5 109.5t4.5 119q0 98 -20 179t-62.5 139t-108 90t-156.5 32q-79 0 -147 -17t-108 -51q-22 -19 -37 -56t-24 -86.5t-13 -108t-4 -121.5zM437 1167l222 260l86 -83l-256 -223z" />
<glyph unicode="&#xd4;" horiz-adv-x="1167" d="M95 516q0 120 28 216t87 163.5t150 103.5t216 36q124 0 217 -36t155 -103.5t93 -163.5t31 -216q0 -122 -31.5 -220t-93.5 -167t-155.5 -106t-217.5 -37q-126 0 -217 38t-149 107.5t-85.5 167t-27.5 217.5zM243 516q0 -97 16.5 -179.5t54.5 -142.5t101.5 -94t158.5 -34 q91 0 154.5 16.5t113.5 59.5q22 18 37 56.5t25 89t14.5 109.5t4.5 119q0 98 -20 179t-62.5 139t-108 90t-156.5 32q-79 0 -147 -17t-108 -51q-22 -19 -37 -56t-24 -86.5t-13 -108t-4 -121.5zM346 1177l195 212h84l195 -212l-48 -48l-189 154l-189 -154z" />
<glyph unicode="&#xd5;" horiz-adv-x="1167" d="M95 516q0 120 28 216t87 163.5t150 103.5t216 36q124 0 217 -36t155 -103.5t93 -163.5t31 -216q0 -122 -31.5 -220t-93.5 -167t-155.5 -106t-217.5 -37q-126 0 -217 38t-149 107.5t-85.5 167t-27.5 217.5zM243 516q0 -97 16.5 -179.5t54.5 -142.5t101.5 -94t158.5 -34 q91 0 154.5 16.5t113.5 59.5q22 18 37 56.5t25 89t14.5 109.5t4.5 119q0 98 -20 179t-62.5 139t-108 90t-156.5 32q-79 0 -147 -17t-108 -51q-22 -19 -37 -56t-24 -86.5t-13 -108t-4 -121.5zM331 1139q14 78 51 113t98 35q30 0 60.5 -12t60 -26.5t55.5 -26.5t47 -12 q22 0 36 7t23 18t14.5 24t8.5 24l61 -12q-14 -78 -52 -113.5t-100 -35.5q-33 0 -63 12t-57.5 26.5t-53 26.5t-48.5 12q-22 0 -36 -6.5t-23 -16.5t-14 -23.5t-8 -26.5z" />
<glyph unicode="&#xd6;" horiz-adv-x="1167" d="M95 516q0 120 28 216t87 163.5t150 103.5t216 36q124 0 217 -36t155 -103.5t93 -163.5t31 -216q0 -122 -31.5 -220t-93.5 -167t-155.5 -106t-217.5 -37q-126 0 -217 38t-149 107.5t-85.5 167t-27.5 217.5zM243 516q0 -97 16.5 -179.5t54.5 -142.5t101.5 -94t158.5 -34 q91 0 154.5 16.5t113.5 59.5q22 18 37 56.5t25 89t14.5 109.5t4.5 119q0 98 -20 179t-62.5 139t-108 90t-156.5 32q-79 0 -147 -17t-108 -51q-22 -19 -37 -56t-24 -86.5t-13 -108t-4 -121.5zM319 1211l94 95l96 -95l-96 -95zM652 1211l94 95l96 -95l-96 -95z" />
<glyph unicode="&#xd7;" horiz-adv-x="822" d="M90 211l267 266l-257 257l54 54l257 -256l267 267l54 -54l-267 -267l256 -257l-54 -54l-257 257l-266 -267z" />
<glyph unicode="&#xd8;" horiz-adv-x="1167" d="M95 516q0 120 28 216t87 163.5t150 103.5t216 36q85 0 155 -17.5t127 -50.5l88 126l64 -44l-89 -127q75 -68 113 -170.5t38 -235.5q0 -122 -31.5 -220t-93.5 -167t-155.5 -106t-217.5 -37q-81 0 -146.5 16t-118.5 45l-93 -133l-64 44l94 134q-78 70 -114.5 177.5 t-36.5 246.5zM243 516q0 -99 16.5 -181.5t55.5 -142.5l482 689q-41 36 -95.5 55.5t-125.5 19.5q-79 0 -147 -17t-108 -51q-22 -19 -37 -56t-24 -86.5t-13 -108t-4 -121.5zM368 131q38 -32 88.5 -48.5t117.5 -16.5q91 0 154.5 16.5t113.5 59.5q22 18 37 56.5t25 89 t14.5 109.5t4.5 119q0 93 -17.5 169.5t-55.5 134.5z" />
<glyph unicode="&#xd9;" horiz-adv-x="1045" d="M123 347v677h135v-697q0 -77 16.5 -127t48 -79.5t78.5 -41.5t109 -12q76 0 135 15.5t90 47.5q27 29 40 81t13 120v693h134v-663q0 -77 -27 -145t-80.5 -119t-132.5 -81t-183 -30q-86 0 -155 19t-118.5 61.5t-76 111.5t-26.5 169zM354 1344l86 83l222 -260l-52 -46z" />
<glyph unicode="&#xda;" horiz-adv-x="1045" d="M123 347v677h135v-697q0 -77 16.5 -127t48 -79.5t78.5 -41.5t109 -12q76 0 135 15.5t90 47.5q27 29 40 81t13 120v693h134v-663q0 -77 -27 -145t-80.5 -119t-132.5 -81t-183 -30q-86 0 -155 19t-118.5 61.5t-76 111.5t-26.5 169zM372 1167l222 260l86 -83l-256 -223z" />
<glyph unicode="&#xdb;" horiz-adv-x="1045" d="M123 347v677h135v-697q0 -77 16.5 -127t48 -79.5t78.5 -41.5t109 -12q76 0 135 15.5t90 47.5q27 29 40 81t13 120v693h134v-663q0 -77 -27 -145t-80.5 -119t-132.5 -81t-183 -30q-86 0 -155 19t-118.5 61.5t-76 111.5t-26.5 169zM282 1177l195 212h84l195 -212l-48 -48 l-189 154l-189 -154z" />
<glyph unicode="&#xdc;" horiz-adv-x="1045" d="M123 347v677h135v-697q0 -77 16.5 -127t48 -79.5t78.5 -41.5t109 -12q76 0 135 15.5t90 47.5q27 29 40 81t13 120v693h134v-663q0 -77 -27 -145t-80.5 -119t-132.5 -81t-183 -30q-86 0 -155 19t-118.5 61.5t-76 111.5t-26.5 169zM276 1264l94 95l96 -95l-96 -95z M569 1264l94 95l96 -95l-96 -95z" />
<glyph unicode="&#xdd;" horiz-adv-x="828" d="M10 1024h155l287 -545l269 545h97l-322 -631v-393h-135v393zM301 1167l222 260l86 -83l-256 -223z" />
<glyph unicode="&#xde;" horiz-adv-x="819" d="M128 0v1019q14 1 37 2.5t46 2.5q26 1 56 2v-195l149 3q89 0 155 -20t109 -56.5t64 -89t21 -118.5q0 -69 -25 -129t-77.5 -104t-133 -69.5t-191.5 -25.5h-9l-8 44l29 5q54 9 102.5 23.5t84.5 43.5t57.5 77.5t21.5 126.5q0 58 -18 100t-50 69t-78 40t-101 13 q-29 0 -50 -1.5t-52 -4.5v-758h-139z" />
<glyph unicode="&#xdf;" horiz-adv-x="807" d="M115 0v811q0 68 25 128.5t66.5 105.5t94 71.5t106.5 26.5q119 0 184.5 -48t65.5 -151q0 -34 -8 -62t-23 -52.5t-36 -47t-47 -44.5q-27 -23 -42.5 -39.5t-23 -29.5t-9.5 -24.5t-2 -24.5q0 -23 11 -42t29 -36t41 -33t47 -34q31 -23 59 -46t49 -50.5t33.5 -62.5t12.5 -81 q0 -65 -21.5 -107t-57.5 -74q-15 -14 -31 -26t-35 -21t-43.5 -14.5t-55.5 -5.5q-60 0 -109.5 15t-91.5 45l49 93q18 -14 39 -27t44 -24t47 -17.5t48 -6.5q29 0 49.5 8.5t34.5 21.5q16 15 24.5 36t8.5 58q0 34 -12.5 59.5t-33 46t-46.5 38t-53 37.5q-27 19 -53 39.5t-47 45 t-34 55t-13 69.5q0 27 4.5 47.5t12.5 37t19.5 29.5t25.5 26q36 32 59.5 53t37.5 42t19.5 47t5.5 67q0 62 -36.5 93.5t-116.5 31.5q-11 0 -27 -1t-32 -3.5t-29.5 -6.5t-19.5 -9q-8 -7 -13.5 -28t-8.5 -52.5t-4.5 -70.5t-1.5 -82v-800h-135z" />
<glyph unicode="&#xe0;" horiz-adv-x="734" d="M70 174q0 50 14.5 87.5t46.5 63t83 38.5t125 15l123 4v121q0 57 -23 83.5t-77 26.5q-39 0 -95 -14.5t-110 -37.5l-24 64q32 13 67.5 26.5t72.5 24t75 17t75 6.5q41 0 73.5 -9t55 -30.5t34 -57t11.5 -87.5v-327q0 -117 56 -117q27 0 71 12v-43q-32 -17 -70 -33t-80 -16 q-24 0 -41 7.5t-28 20t-18 27.5t-12 30q-26 -17 -50 -33t-50.5 -28.5t-56.5 -20t-67 -7.5q-84 0 -132.5 46.5t-48.5 140.5zM204 1021l85 82l222 -260l-51 -45zM205 193q0 -57 19.5 -87.5t65.5 -30.5q49 0 90 11t86 36q0 5 -2 57.5t-2 148.5q-109 0 -165 -14t-69 -28 q-12 -13 -17.5 -37t-5.5 -56z" />
<glyph unicode="&#xe1;" horiz-adv-x="734" d="M70 174q0 50 14.5 87.5t46.5 63t83 38.5t125 15l123 4v121q0 57 -23 83.5t-77 26.5q-39 0 -95 -14.5t-110 -37.5l-24 64q32 13 67.5 26.5t72.5 24t75 17t75 6.5q41 0 73.5 -9t55 -30.5t34 -57t11.5 -87.5v-327q0 -117 56 -117q27 0 71 12v-43q-32 -17 -70 -33t-80 -16 q-24 0 -41 7.5t-28 20t-18 27.5t-12 30q-26 -17 -50 -33t-50.5 -28.5t-56.5 -20t-67 -7.5q-84 0 -132.5 46.5t-48.5 140.5zM205 193q0 -57 19.5 -87.5t65.5 -30.5q49 0 90 11t86 36q0 5 -2 57.5t-2 148.5q-109 0 -165 -14t-69 -28q-12 -13 -17.5 -37t-5.5 -56zM260 843 l222 260l86 -83l-256 -223z" />
<glyph unicode="&#xe2;" horiz-adv-x="734" d="M70 174q0 50 14.5 87.5t46.5 63t83 38.5t125 15l123 4v121q0 57 -23 83.5t-77 26.5q-39 0 -95 -14.5t-110 -37.5l-24 64q32 13 67.5 26.5t72.5 24t75 17t75 6.5q41 0 73.5 -9t55 -30.5t34 -57t11.5 -87.5v-327q0 -117 56 -117q27 0 71 12v-43q-32 -17 -70 -33t-80 -16 q-24 0 -41 7.5t-28 20t-18 27.5t-12 30q-26 -17 -50 -33t-50.5 -28.5t-56.5 -20t-67 -7.5q-84 0 -132.5 46.5t-48.5 140.5zM135 847l195 212h84l195 -212l-48 -48l-189 154l-189 -154zM205 193q0 -57 19.5 -87.5t65.5 -30.5q49 0 90 11t86 36q0 5 -2 57.5t-2 148.5 q-109 0 -165 -14t-69 -28q-12 -13 -17.5 -37t-5.5 -56z" />
<glyph unicode="&#xe3;" horiz-adv-x="734" d="M70 174q0 50 14.5 87.5t46.5 63t83 38.5t125 15l123 4v121q0 57 -23 83.5t-77 26.5q-39 0 -95 -14.5t-110 -37.5l-24 64q32 13 67.5 26.5t72.5 24t75 17t75 6.5q41 0 73.5 -9t55 -30.5t34 -57t11.5 -87.5v-327q0 -117 56 -117q27 0 71 12v-43q-32 -17 -70 -33t-80 -16 q-24 0 -41 7.5t-28 20t-18 27.5t-12 30q-26 -17 -50 -33t-50.5 -28.5t-56.5 -20t-67 -7.5q-84 0 -132.5 46.5t-48.5 140.5zM118 819q14 78 51 113t98 35q30 0 60.5 -12t60 -26.5t55.5 -26.5t47 -12q22 0 36 7t23 18t14.5 24t8.5 24l61 -12q-14 -78 -52 -113.5t-100 -35.5 q-33 0 -63 12t-57.5 26.5t-53 26.5t-48.5 12q-22 0 -36 -6.5t-23 -16.5t-14 -23.5t-8 -26.5zM205 193q0 -57 19.5 -87.5t65.5 -30.5q49 0 90 11t86 36q0 5 -2 57.5t-2 148.5q-109 0 -165 -14t-69 -28q-12 -13 -17.5 -37t-5.5 -56z" />
<glyph unicode="&#xe4;" horiz-adv-x="734" d="M70 174q0 50 14.5 87.5t46.5 63t83 38.5t125 15l123 4v121q0 57 -23 83.5t-77 26.5q-39 0 -95 -14.5t-110 -37.5l-24 64q32 13 67.5 26.5t72.5 24t75 17t75 6.5q41 0 73.5 -9t55 -30.5t34 -57t11.5 -87.5v-327q0 -117 56 -117q27 0 71 12v-43q-32 -17 -70 -33t-80 -16 q-24 0 -41 7.5t-28 20t-18 27.5t-12 30q-26 -17 -50 -33t-50.5 -28.5t-56.5 -20t-67 -7.5q-84 0 -132.5 46.5t-48.5 140.5zM129 915l94 95l96 -95l-96 -95zM205 193q0 -57 19.5 -87.5t65.5 -30.5q49 0 90 11t86 36q0 5 -2 57.5t-2 148.5q-109 0 -165 -14t-69 -28 q-12 -13 -17.5 -37t-5.5 -56zM422 915l94 95l96 -95l-96 -95z" />
<glyph unicode="&#xe5;" horiz-adv-x="734" d="M70 174q0 50 14.5 87.5t46.5 63t83 38.5t125 15l123 4v121q0 57 -23 83.5t-77 26.5q-39 0 -95 -14.5t-110 -37.5l-24 64q32 13 67.5 26.5t72.5 24t75 17t75 6.5q41 0 73.5 -9t55 -30.5t34 -57t11.5 -87.5v-327q0 -117 56 -117q27 0 71 12v-43q-32 -17 -70 -33t-80 -16 q-24 0 -41 7.5t-28 20t-18 27.5t-12 30q-26 -17 -50 -33t-50.5 -28.5t-56.5 -20t-67 -7.5q-84 0 -132.5 46.5t-48.5 140.5zM201 947q0 40 14 69.5t38 49t55 29t65 9.5t65.5 -9.5t55.5 -29t38 -49t14 -69.5t-14 -69.5t-38 -48.5t-55.5 -28.5t-65.5 -9.5t-65 9.5t-55 28.5 t-38 48.5t-14 69.5zM205 193q0 -57 19.5 -87.5t65.5 -30.5q49 0 90 11t86 36q0 5 -2 57.5t-2 148.5q-109 0 -165 -14t-69 -28q-12 -13 -17.5 -37t-5.5 -56zM278 947q0 -23 8 -39t21.5 -26t30.5 -14t35 -4q19 0 36.5 4t31 14t21.5 26t8 39t-8 39t-21.5 26t-31 14.5t-36.5 4.5 q-18 0 -35 -4.5t-30.5 -14.5t-21.5 -26t-8 -39z" />
<glyph unicode="&#xe6;" horiz-adv-x="1112" d="M70 174q0 50 14.5 87.5t46.5 63t83 38.5t125 15l123 4v121q0 57 -23 83.5t-77 26.5q-39 0 -95 -14.5t-110 -37.5l-24 64q32 13 67.5 26.5t72.5 24t75 17t75 6.5q101 0 143 -70q42 37 94.5 53.5t113.5 16.5q45 0 88 -13t78.5 -43.5t62 -81t39.5 -125.5v-8 q-9 -11 -24.5 -20t-40.5 -16t-61.5 -12.5t-87.5 -8.5l-222 -15v-43q0 -121 43 -176t130 -55q36 0 74.5 7t73.5 17t63.5 20.5t44.5 18.5l17 -39q-29 -19 -65 -40t-77.5 -38.5t-87 -29t-93.5 -11.5q-66 0 -120 24t-91 78q-26 -17 -58 -35t-67 -33t-71.5 -24.5t-70.5 -9.5 q-84 0 -132.5 46.5t-48.5 140.5zM205 193q0 -57 19.5 -87.5t65.5 -30.5q55 0 108.5 18.5t95.5 41.5q-17 41 -24.5 90t-7.5 99v4q-109 0 -165 -14t-69 -28q-12 -13 -17.5 -37t-5.5 -56zM608 420l286 12q-5 34 -14.5 68.5t-26 61.5t-41.5 44t-61 17q-24 0 -47.5 -5t-42.5 -18 q-11 -8 -20.5 -25.5t-16.5 -42t-11.5 -53.5t-4.5 -59z" />
<glyph unicode="&#xe7;" horiz-adv-x="653" d="M79 324q0 88 22 157.5t64.5 118t105.5 74t145 25.5q49 0 99 -5.5t92 -13.5l-35 -113q-19 9 -45 19t-53.5 17.5t-54 12.5t-45.5 5q-24 0 -47.5 -8t-46.5 -28q-11 -10 -21.5 -27t-18.5 -46.5t-12.5 -73.5t-4.5 -107q0 -72 11 -120t33.5 -76.5t56 -40.5t77.5 -12 q50 0 104 12t98 32l18 -41q-26 -19 -56.5 -37t-64.5 -31.5t-71 -21.5t-77 -8q-57 0 -107 18t-87 58t-58 104.5t-21 156.5zM227 -334l12 61q14 -4 36 -6t39 -2q50 0 72 19t22 49q0 22 -13.5 37.5t-33 25t-42.5 14.5t-42 7l71 129h65l-44 -78q62 -10 102 -39.5t40 -80.5 q0 -70 -47.5 -109t-152.5 -39q-20 0 -44.5 3.5t-39.5 8.5z" />
<glyph unicode="&#xe8;" horiz-adv-x="729" d="M79 324q0 103 24 175t66 116t99 64t123 20q45 0 88 -13t78.5 -43.5t62 -81t39.5 -125.5v-8q-9 -11 -24.5 -20t-40.5 -16t-61.5 -12.5t-87.5 -8.5l-222 -15v-43q0 -121 43 -176t130 -55q36 0 74.5 7t73.5 17t63.5 20.5t44.5 18.5l17 -39q-29 -19 -65 -40t-77.5 -38.5 t-87 -29t-93.5 -11.5q-57 0 -105.5 18t-84.5 58t-56.5 104.5t-20.5 156.5zM200 1021l85 82l222 -260l-51 -45zM225 420l286 12q-5 34 -14.5 68.5t-26 61.5t-41.5 44t-61 17q-24 0 -47.5 -5t-42.5 -18q-11 -8 -20.5 -25.5t-16.5 -42t-11.5 -53.5t-4.5 -59z" />
<glyph unicode="&#xe9;" horiz-adv-x="729" d="M79 324q0 103 24 175t66 116t99 64t123 20q45 0 88 -13t78.5 -43.5t62 -81t39.5 -125.5v-8q-9 -11 -24.5 -20t-40.5 -16t-61.5 -12.5t-87.5 -8.5l-222 -15v-43q0 -121 43 -176t130 -55q36 0 74.5 7t73.5 17t63.5 20.5t44.5 18.5l17 -39q-29 -19 -65 -40t-77.5 -38.5 t-87 -29t-93.5 -11.5q-57 0 -105.5 18t-84.5 58t-56.5 104.5t-20.5 156.5zM225 420l286 12q-5 34 -14.5 68.5t-26 61.5t-41.5 44t-61 17q-24 0 -47.5 -5t-42.5 -18q-11 -8 -20.5 -25.5t-16.5 -42t-11.5 -53.5t-4.5 -59zM282 843l222 260l86 -83l-256 -223z" />
<glyph unicode="&#xea;" horiz-adv-x="729" d="M79 324q0 103 24 175t66 116t99 64t123 20q45 0 88 -13t78.5 -43.5t62 -81t39.5 -125.5v-8q-9 -11 -24.5 -20t-40.5 -16t-61.5 -12.5t-87.5 -8.5l-222 -15v-43q0 -121 43 -176t130 -55q36 0 74.5 7t73.5 17t63.5 20.5t44.5 18.5l17 -39q-29 -19 -65 -40t-77.5 -38.5 t-87 -29t-93.5 -11.5q-57 0 -105.5 18t-84.5 58t-56.5 104.5t-20.5 156.5zM137 847l195 212h84l195 -212l-48 -48l-189 154l-189 -154zM225 420l286 12q-5 34 -14.5 68.5t-26 61.5t-41.5 44t-61 17q-24 0 -47.5 -5t-42.5 -18q-11 -8 -20.5 -25.5t-16.5 -42t-11.5 -53.5 t-4.5 -59z" />
<glyph unicode="&#xeb;" horiz-adv-x="729" d="M79 324q0 103 24 175t66 116t99 64t123 20q45 0 88 -13t78.5 -43.5t62 -81t39.5 -125.5v-8q-9 -11 -24.5 -20t-40.5 -16t-61.5 -12.5t-87.5 -8.5l-222 -15v-43q0 -121 43 -176t130 -55q36 0 74.5 7t73.5 17t63.5 20.5t44.5 18.5l17 -39q-29 -19 -65 -40t-77.5 -38.5 t-87 -29t-93.5 -11.5q-57 0 -105.5 18t-84.5 58t-56.5 104.5t-20.5 156.5zM137 915l94 95l96 -95l-96 -95zM225 420l286 12q-5 34 -14.5 68.5t-26 61.5t-41.5 44t-61 17q-24 0 -47.5 -5t-42.5 -18q-11 -8 -20.5 -25.5t-16.5 -42t-11.5 -53.5t-4.5 -59zM430 915l94 95l96 -95 l-96 -95z" />
<glyph unicode="&#xec;" horiz-adv-x="379" d="M13 1021l85 82l222 -260l-51 -45zM122 0v684h135v-684h-135z" />
<glyph unicode="&#xed;" horiz-adv-x="379" d="M57 843l222 260l86 -83l-256 -223zM122 0v684h135v-684h-135z" />
<glyph unicode="&#xee;" horiz-adv-x="379" d="M-43 847l195 212h84l195 -212l-48 -48l-189 154l-189 -154zM122 0v684h135v-684h-135z" />
<glyph unicode="&#xef;" horiz-adv-x="379" d="M-49 915l94 95l96 -95l-96 -95zM122 0v684h135v-684h-135zM244 915l94 95l96 -95l-96 -95z" />
<glyph unicode="&#xf0;" d="M79 322q0 78 21 140.5t63 106t104 67t144 23.5q83 0 150 -25q-15 67 -44.5 135t-89.5 141l-198 -99l-30 56l186 92q-28 29 -61.5 57.5t-75.5 60.5l42 46q45 -30 85.5 -61t80.5 -68l189 93l29 -54l-173 -87q53 -56 97 -120.5t76 -139t50 -160t18 -183.5v-19 q0 -78 -21 -140.5t-63 -106t-104 -67t-143 -23.5q-161 0 -246.5 85t-85.5 250zM222 323q0 -69 10.5 -118.5t33 -81t58 -46.5t85.5 -15q41 0 71 7.5t60 27.5q35 24 47 84t12 141q0 136 -44.5 198.5t-141.5 62.5q-40 0 -71.5 -7.5t-59.5 -25.5q-17 -11 -28 -34t-18.5 -53.5 t-10.5 -66.5t-3 -73z" />
<glyph unicode="&#xf1;" horiz-adv-x="841" d="M122 0v684h113l19 -80h2q23 13 53.5 29.5t65.5 31t73 24.5t77 10q44 0 81 -12.5t63.5 -38t41.5 -63t15 -88.5v-497h-135v476q0 24 -4 47.5t-16.5 42t-35.5 30.5t-62 12q-25 0 -53.5 -6t-57.5 -15t-56 -21t-49 -24v-542h-135zM161 819q14 78 51 113t98 35q30 0 60.5 -12 t60 -26.5t55.5 -26.5t47 -12q22 0 36 7t23 18t14.5 24t8.5 24l61 -12q-14 -78 -52 -113.5t-100 -35.5q-33 0 -63 12t-57.5 26.5t-53 26.5t-48.5 12q-22 0 -36 -6.5t-23 -16.5t-14 -23.5t-8 -26.5z" />
<glyph unicode="&#xf2;" d="M79 342q0 82 21 148.5t63 112.5t104 71t144 25q81 0 143 -23.5t104 -69t63 -111.5t21 -151q0 -83 -21 -149t-63 -112.5t-104 -71t-143 -24.5q-161 0 -246.5 90.5t-85.5 264.5zM222 343q0 -75 10.5 -128t33 -87t58 -50t85.5 -16q41 0 71 8t60 30q35 26 47 90.5t12 151.5 q0 146 -44.5 213.5t-141.5 67.5q-40 0 -71.5 -8t-59.5 -28q-17 -12 -28 -36.5t-18.5 -57t-10.5 -71.5t-3 -79zM257 1021l85 82l222 -260l-51 -45z" />
<glyph unicode="&#xf3;" d="M79 342q0 82 21 148.5t63 112.5t104 71t144 25q81 0 143 -23.5t104 -69t63 -111.5t21 -151q0 -83 -21 -149t-63 -112.5t-104 -71t-143 -24.5q-161 0 -246.5 90.5t-85.5 264.5zM222 343q0 -75 10.5 -128t33 -87t58 -50t85.5 -16q41 0 71 8t60 30q35 26 47 90.5t12 151.5 q0 146 -44.5 213.5t-141.5 67.5q-40 0 -71.5 -8t-59.5 -28q-17 -12 -28 -36.5t-18.5 -57t-10.5 -71.5t-3 -79zM286 843l222 260l86 -83l-256 -223z" />
<glyph unicode="&#xf4;" d="M79 342q0 82 21 148.5t63 112.5t104 71t144 25q81 0 143 -23.5t104 -69t63 -111.5t21 -151q0 -83 -21 -149t-63 -112.5t-104 -71t-143 -24.5q-161 0 -246.5 90.5t-85.5 264.5zM171 847l195 212h84l195 -212l-48 -48l-189 154l-189 -154zM222 343q0 -75 10.5 -128t33 -87 t58 -50t85.5 -16q41 0 71 8t60 30q35 26 47 90.5t12 151.5q0 146 -44.5 213.5t-141.5 67.5q-40 0 -71.5 -8t-59.5 -28q-17 -12 -28 -36.5t-18.5 -57t-10.5 -71.5t-3 -79z" />
<glyph unicode="&#xf5;" d="M79 342q0 82 21 148.5t63 112.5t104 71t144 25q81 0 143 -23.5t104 -69t63 -111.5t21 -151q0 -83 -21 -149t-63 -112.5t-104 -71t-143 -24.5q-161 0 -246.5 90.5t-85.5 264.5zM151 819q14 78 51 113t98 35q30 0 60.5 -12t60 -26.5t55.5 -26.5t47 -12q22 0 36 7t23 18 t14.5 24t8.5 24l61 -12q-14 -78 -52 -113.5t-100 -35.5q-33 0 -63 12t-57.5 26.5t-53 26.5t-48.5 12q-22 0 -36 -6.5t-23 -16.5t-14 -23.5t-8 -26.5zM222 343q0 -75 10.5 -128t33 -87t58 -50t85.5 -16q41 0 71 8t60 30q35 26 47 90.5t12 151.5q0 146 -44.5 213.5 t-141.5 67.5q-40 0 -71.5 -8t-59.5 -28q-17 -12 -28 -36.5t-18.5 -57t-10.5 -71.5t-3 -79z" />
<glyph unicode="&#xf6;" d="M79 342q0 82 21 148.5t63 112.5t104 71t144 25q81 0 143 -23.5t104 -69t63 -111.5t21 -151q0 -83 -21 -149t-63 -112.5t-104 -71t-143 -24.5q-161 0 -246.5 90.5t-85.5 264.5zM167 915l94 95l96 -95l-96 -95zM222 343q0 -75 10.5 -128t33 -87t58 -50t85.5 -16q41 0 71 8 t60 30q35 26 47 90.5t12 151.5q0 146 -44.5 213.5t-141.5 67.5q-40 0 -71.5 -8t-59.5 -28q-17 -12 -28 -36.5t-18.5 -57t-10.5 -71.5t-3 -79zM460 915l94 95l96 -95l-96 -95z" />
<glyph unicode="&#xf7;" horiz-adv-x="822" d="M50 439v77h722v-77h-722zM327 203l85 86l87 -86l-87 -86zM327 753l85 86l87 -86l-87 -86z" />
<glyph unicode="&#xf8;" d="M60 -13l90 107q-71 89 -71 248q0 82 21 148.5t63 112.5t104 71t144 25q121 0 201 -54l86 102l57 -48l-88 -104q75 -92 75 -251q0 -83 -21 -149t-63 -112.5t-104 -71t-143 -24.5q-126 0 -206 56l-88 -105zM222 343q0 -44 3 -80.5t11 -65.5l310 369q-44 57 -133 57 q-40 0 -71.5 -8t-59.5 -28q-17 -12 -28 -36.5t-18.5 -57t-10.5 -71.5t-3 -79zM270 121q23 -31 57 -45t82 -14q41 0 71 8t60 30q35 26 47 90.5t12 151.5q0 88 -17 150z" />
<glyph unicode="&#xf9;" horiz-adv-x="841" d="M115 187v497h135v-476q0 -24 4 -47.5t16.5 -42t35.5 -30.5t62 -12q25 0 53.5 6t57.5 15t56 21t49 24v542h135v-684h-113l-20 80q-23 -13 -53.5 -29.5t-66 -31t-73.5 -24.5t-77 -10q-44 0 -81 12.5t-63.5 38t-41.5 63t-15 88.5zM262 1021l85 82l222 -260l-51 -45z" />
<glyph unicode="&#xfa;" horiz-adv-x="841" d="M115 187v497h135v-476q0 -24 4 -47.5t16.5 -42t35.5 -30.5t62 -12q25 0 53.5 6t57.5 15t56 21t49 24v542h135v-684h-113l-20 80q-23 -13 -53.5 -29.5t-66 -31t-73.5 -24.5t-77 -10q-44 0 -81 12.5t-63.5 38t-41.5 63t-15 88.5zM280 843l222 260l86 -83l-256 -223z" />
<glyph unicode="&#xfb;" horiz-adv-x="841" d="M115 187v497h135v-476q0 -24 4 -47.5t16.5 -42t35.5 -30.5t62 -12q25 0 53.5 6t57.5 15t56 21t49 24v542h135v-684h-113l-20 80q-23 -13 -53.5 -29.5t-66 -31t-73.5 -24.5t-77 -10q-44 0 -81 12.5t-63.5 38t-41.5 63t-15 88.5zM180 847l195 212h84l195 -212l-48 -48 l-189 154l-189 -154z" />
<glyph unicode="&#xfc;" horiz-adv-x="841" d="M115 187v497h135v-476q0 -24 4 -47.5t16.5 -42t35.5 -30.5t62 -12q25 0 53.5 6t57.5 15t56 21t49 24v542h135v-684h-113l-20 80q-23 -13 -53.5 -29.5t-66 -31t-73.5 -24.5t-77 -10q-44 0 -81 12.5t-63.5 38t-41.5 63t-15 88.5zM177 915l94 95l96 -95l-96 -95zM470 915 l94 95l96 -95l-96 -95z" />
<glyph unicode="&#xfd;" horiz-adv-x="732" d="M-126 -402q9 -2 20.5 -3.5t20.5 -1.5q30 0 67 18.5t77.5 49t81.5 70t78.5 82.5t69.5 85.5t54 79.5q-39 112 -77 210t-71 177t-61 136.5t-47 88.5q-15 24 -36 34.5t-41 10.5h-11v41q17 5 47 10.5t59 5.5q26 0 50.5 -6.5t39.5 -25.5q22 -27 49 -83.5t56.5 -131t60.5 -161 t60 -173.5h3q37 65 61 126.5t37.5 119.5t18.5 112.5t5 106.5q0 14 -1.5 29.5t-4 29t-5.5 24t-5 16.5l116 27q8 -17 11.5 -43.5t3.5 -54.5q0 -60 -18.5 -135.5t-49.5 -155.5t-72 -161t-85 -152q-31 -49 -65 -102.5t-71 -105.5t-77 -99t-82.5 -83t-87.5 -57t-92 -21 q-29 0 -50 6t-37 17v43zM263 843l222 260l86 -83l-256 -223z" />
<glyph unicode="&#xfe;" d="M122 -469v1591l135 34v-421q0 -18 -0.5 -37t-0.5 -35q-1 -18 -1 -37q21 15 43 28t46 23t51 16t59 6q56 0 108 -18t92 -58t64 -104.5t24 -156.5q0 -89 -23.5 -158.5t-68 -117.5t-108 -73.5t-143.5 -25.5q-38 0 -75 7.5t-69 16.5q0 -5 0.5 -16t0.5 -24.5t0.5 -28t0.5 -26.5 v-353zM257 72q32 -5 61.5 -7.5t63.5 -2.5q48 0 88.5 8t62.5 26q11 10 22.5 31t21.5 53.5t16 76t6 97.5q0 68 -13.5 116t-38.5 79t-60 45t-77 14t-79.5 -8.5t-73.5 -23.5v-504z" />
<glyph unicode="&#xff;" horiz-adv-x="732" d="M-126 -402q9 -2 20.5 -3.5t20.5 -1.5q30 0 67 18.5t77.5 49t81.5 70t78.5 82.5t69.5 85.5t54 79.5q-39 112 -77 210t-71 177t-61 136.5t-47 88.5q-15 24 -36 34.5t-41 10.5h-11v41q17 5 47 10.5t59 5.5q26 0 50.5 -6.5t39.5 -25.5q22 -27 49 -83.5t56.5 -131t60.5 -161 t60 -173.5h3q37 65 61 126.5t37.5 119.5t18.5 112.5t5 106.5q0 14 -1.5 29.5t-4 29t-5.5 24t-5 16.5l116 27q8 -17 11.5 -43.5t3.5 -54.5q0 -60 -18.5 -135.5t-49.5 -155.5t-72 -161t-85 -152q-31 -49 -65 -102.5t-71 -105.5t-77 -99t-82.5 -83t-87.5 -57t-92 -21 q-29 0 -50 6t-37 17v43zM125 915l94 95l96 -95l-96 -95zM418 915l94 95l96 -95l-96 -95z" />
<glyph unicode="&#x152;" horiz-adv-x="1369" d="M95 516q0 120 28 216t87 163.5t150 103.5t216 36q22 0 46.5 -1.5t48.5 -4.5t45.5 -8t37.5 -11v14h525l-10 -74l-376 -5v-363l354 -4l-10 -65l-344 -8v-426l418 -8l-10 -71h-547v14q-29 -12 -77 -20t-103 -8q-126 0 -217 38t-149 107.5t-85.5 167t-27.5 217.5zM243 516 q0 -97 16.5 -179.5t54.5 -142.5t101.5 -94t158.5 -34q55 0 99 5t81 19v823q-26 22 -69 32.5t-109 10.5q-79 0 -147 -17t-108 -51q-22 -19 -37 -56t-24 -86.5t-13 -108t-4 -121.5z" />
<glyph unicode="&#x153;" horiz-adv-x="1249" d="M79 342q0 82 21 148.5t63 112.5t104 71t144 25q174 0 258 -107q43 57 105 82t137 25q45 0 88 -13t78.5 -43.5t62 -81t39.5 -125.5v-8q-9 -11 -24.5 -20t-40.5 -16t-61.5 -12.5t-87.5 -8.5l-222 -15v-43q0 -121 43 -176t130 -55q36 0 74.5 7t73.5 17t63.5 20.5t44.5 18.5 l17 -39q-29 -19 -65 -40t-77.5 -38.5t-87 -29t-93.5 -11.5q-64 0 -117 22.5t-90 74.5q-42 -48 -104 -72.5t-144 -24.5q-161 0 -246.5 90.5t-85.5 264.5zM222 343q0 -75 10.5 -128t33 -87t58 -50t85.5 -16q41 0 71 8t60 30q32 23 45.5 81.5t13.5 160.5q0 146 -44.5 213.5 t-141.5 67.5q-40 0 -71.5 -8t-59.5 -28q-17 -12 -28 -36.5t-18.5 -57t-10.5 -71.5t-3 -79zM745 420l286 12q-5 34 -14.5 68.5t-26 61.5t-41.5 44t-61 17q-24 0 -47.5 -5t-42.5 -18q-11 -8 -20.5 -25.5t-16.5 -42t-11.5 -53.5t-4.5 -59z" />
<glyph unicode="&#x178;" horiz-adv-x="828" d="M10 1024h155l287 -545l269 545h97l-322 -631v-393h-135v393zM197 1262l94 95l96 -95l-96 -95zM490 1262l94 95l96 -95l-96 -95z" />
<glyph unicode="&#x2c6;" horiz-adv-x="562" d="M44 847l195 212h84l195 -212l-48 -48l-189 154l-189 -154z" />
<glyph unicode="&#x2dc;" horiz-adv-x="581" d="M33 819q14 78 51 113t98 35q30 0 60.5 -12t60 -26.5t55.5 -26.5t47 -12q22 0 36 7t23 18t14.5 24t8.5 24l61 -12q-14 -78 -52 -113.5t-100 -35.5q-33 0 -63 12t-57.5 26.5t-53 26.5t-48.5 12q-22 0 -36 -6.5t-23 -16.5t-14 -23.5t-8 -26.5z" />
<glyph unicode="&#x2000;" horiz-adv-x="713" />
<glyph unicode="&#x2001;" horiz-adv-x="1427" />
<glyph unicode="&#x2002;" horiz-adv-x="713" />
<glyph unicode="&#x2003;" horiz-adv-x="1427" />
<glyph unicode="&#x2004;" horiz-adv-x="475" />
<glyph unicode="&#x2005;" horiz-adv-x="356" />
<glyph unicode="&#x2006;" horiz-adv-x="237" />
<glyph unicode="&#x2007;" horiz-adv-x="237" />
<glyph unicode="&#x2008;" horiz-adv-x="178" />
<glyph unicode="&#x2009;" horiz-adv-x="285" />
<glyph unicode="&#x200a;" horiz-adv-x="79" />
<glyph unicode="&#x2010;" horiz-adv-x="488" d="M50 307l10 106h378l-10 -106h-378z" />
<glyph unicode="&#x2011;" horiz-adv-x="488" d="M50 307l10 106h378l-10 -106h-378z" />
<glyph unicode="&#x2012;" horiz-adv-x="488" d="M50 307l10 106h378l-10 -106h-378z" />
<glyph unicode="&#x2013;" horiz-adv-x="1038" d="M50 317l10 86h929l-10 -86h-929z" />
<glyph unicode="&#x2014;" horiz-adv-x="2048" d="M50 317l10 86h1939l-10 -86h-1939z" />
<glyph unicode="&#x2018;" horiz-adv-x="300" d="M30 816l181 321l59 -22l-121 -346z" />
<glyph unicode="&#x2019;" horiz-adv-x="300" d="M30 791l121 346l119 -47l-181 -321z" />
<glyph unicode="&#x201a;" horiz-adv-x="300" d="M30 -162l121 346l119 -47l-181 -321z" />
<glyph unicode="&#x201c;" horiz-adv-x="566" d="M30 816l181 321l59 -22l-121 -346zM296 816l181 321l59 -22l-121 -346z" />
<glyph unicode="&#x201d;" horiz-adv-x="566" d="M30 791l121 346l119 -47l-181 -321zM296 791l121 346l119 -47l-181 -321z" />
<glyph unicode="&#x201e;" horiz-adv-x="566" d="M30 -162l121 346l119 -47l-181 -321zM296 -162l121 346l119 -47l-181 -321z" />
<glyph unicode="&#x2022;" horiz-adv-x="598" d="M107 483q0 40 15 75t41 61t61 41t75 15t75 -15t61 -41t41 -61t15 -75t-15 -75t-41 -61t-61 -41t-75 -15t-75 15t-61 41t-41 61t-15 75z" />
<glyph unicode="&#x2026;" horiz-adv-x="1005" d="M72 74l95 95l96 -95l-96 -95zM407 74l95 95l96 -95l-96 -95zM742 74l95 95l96 -95l-96 -95z" />
<glyph unicode="&#x202f;" horiz-adv-x="285" />
<glyph unicode="&#x2039;" horiz-adv-x="408" d="M60 338l222 308l65 -49l-187 -240l188 -218l-75 -66z" />
<glyph unicode="&#x203a;" horiz-adv-x="408" d="M60 579l75 66l213 -265l-222 -308l-65 49l187 240z" />
<glyph unicode="&#x205f;" horiz-adv-x="356" />
<glyph unicode="&#x20ac;" horiz-adv-x="824" d="M51 342l10 77h89q-3 45 -3 96v25.5t1 24.5h-97l10 77h94q16 109 56 184.5t95 122t119.5 67t128.5 20.5q27 0 59.5 -2t64 -5t58 -6.5t42.5 -7.5l-31 -122q-16 6 -46 14t-64.5 14.5t-67.5 11t-55 4.5q-50 0 -85.5 -9.5t-66.5 -38.5q-29 -27 -44 -90t-20 -157h289l-10 -77 h-282v-50v-49.5t2 -46.5h290l-10 -77h-272q18 -137 70.5 -207t146.5 -70q33 0 69 3.5t72 9.5t70 15t63 20v-53q-32 -18 -68.5 -31.5t-75.5 -23t-78 -14.5t-75 -5q-77 0 -135.5 24.5t-100 71t-67.5 112t-38 148.5h-107z" />
<glyph unicode="&#x2122;" horiz-adv-x="1213" d="M39 977l5 47h395l-5 -45l-153 -4v-463h-84v463zM471 512l53 514h61l212 -411l205 411h61l57 -514h-84l-41 380l-191 -380h-47l-197 384l-33 -384h-56z" />
<glyph unicode="&#x25fc;" horiz-adv-x="690" d="M0 0v690h690v-690h-690z" />
<glyph unicode="&#xfb01;" horiz-adv-x="799" d="M25 611l10 45q21 5 41 9q17 4 34.5 7t28.5 5v124q0 64 25 125.5t73 109.5t117.5 77.5t159.5 29.5q36 0 79 -1t74 -3l-27 -109q-22 2 -48 4.5t-52.5 4.5t-52 3t-46.5 1q-35 0 -62.5 -3t-53.5 -17q-14 -8 -24 -27.5t-16 -48.5t-8.5 -66.5t-2.5 -80.5v-116h403v-684h-135 v619q-30 -1 -69 -2t-77.5 -2.5t-71 -2.5t-50.5 -2v-610h-135v610h-67q-22 0 -47 1z" />
<glyph unicode="&#xfb02;" horiz-adv-x="819" d="M25 611l10 45q21 5 41 9q17 4 34.5 7t28.5 5v124q0 64 25 125.5t65.5 109.5t92 77.5t103.5 29.5q22 0 57.5 -1t74.5 -2t76.5 -2.5t63.5 -2.5v-1135h-135v1027q-27 3 -55 6t-52 5l-42 3.5t-25 1.5q-22 0 -47 -3t-39 -17q-8 -8 -13.5 -27.5t-8.5 -48.5t-4.5 -66.5 t-1.5 -80.5v-116h171l-10 -64q-29 -2 -57 -4q-24 -2 -52 -3.5t-52 -2.5v-610h-135v610h-67q-22 0 -47 1z" />
<glyph unicode="&#xfb03;" horiz-adv-x="1202" d="M25 611l10 45q21 5 41 9q17 4 34.5 7t28.5 5v104q0 64 25 125.5t65.5 109.5t92 77.5t103.5 29.5q21 0 46 -1t43 -3l-26 -104q-24 5 -50.5 6.5t-49.5 1.5q-22 0 -47 -3t-39 -17q-8 -8 -13.5 -27.5t-8.5 -48.5t-4.5 -66.5t-1.5 -80.5v-96h268v117q0 64 25 125.5t73 109.5 t117.5 77.5t159.5 29.5q36 0 79 -1t74 -3l-27 -109q-22 2 -48 4.5t-52.5 4.5t-52 3t-46.5 1q-35 0 -62.5 -3t-53.5 -17q-14 -8 -24 -27.5t-16 -48.5t-8.5 -66.5t-2.5 -80.5v-116h403v-684h-135v619q-30 -1 -69 -2t-77.5 -2.5t-71 -2.5t-50.5 -2v-610h-135v610h-268v-610 h-135v610h-67q-22 0 -47 1z" />
<glyph unicode="&#xfb04;" horiz-adv-x="1222" d="M25 611l10 45q21 5 41 9q17 4 34.5 7t28.5 5v104q0 64 25 125.5t65.5 109.5t92 77.5t103.5 29.5q21 0 46 -1t43 -3l-26 -104q-24 5 -50.5 6.5t-49.5 1.5q-22 0 -47 -3t-39 -17q-8 -8 -13.5 -27.5t-8.5 -48.5t-4.5 -66.5t-1.5 -80.5v-96h268v117q0 64 25 125.5t65.5 109.5 t92 77.5t103.5 29.5q22 0 57.5 -1t74.5 -2t76.5 -2.5t63.5 -2.5v-1135h-135v1027q-27 3 -55 6t-52 5l-42 3.5t-25 1.5q-22 0 -47 -3t-39 -17q-8 -8 -13.5 -27.5t-8.5 -48.5t-4.5 -66.5t-1.5 -80.5v-116h171l-10 -64q-29 -2 -57 -4q-24 -2 -52 -3.5t-52 -2.5v-610h-135v610 h-268v-610h-135v610h-67q-22 0 -47 1z" />
</font>
</defs>
</svg>
